<?xml version="1.0" encoding="UTF-8" standalone="no"?>
<svg
   xmlns:dc="http://purl.org/dc/elements/1.1/"
   xmlns:cc="http://creativecommons.org/ns#"
   xmlns:rdf="http://www.w3.org/1999/02/22-rdf-syntax-ns#"
   xmlns:svg="http://www.w3.org/2000/svg"
   xmlns="http://www.w3.org/2000/svg"
   xmlns:sodipodi="http://sodipodi.sourceforge.net/DTD/sodipodi-0.dtd"
   xmlns:inkscape="http://www.inkscape.org/namespaces/inkscape"
   width="101"
   height="101"
   viewBox="0 0 26.722918 26.722918"
   version="1.1"
   id="svg1373"
   inkscape:version="1.0.1 (3bc2e813f5, 2020-09-07)"
   sodipodi:docname="colourless_half.svg">
  <defs
     id="defs1367" />
  <sodipodi:namedview
     id="base"
     pagecolor="#ffffff"
     bordercolor="#666666"
     borderopacity="1.0"
     inkscape:pageopacity="0.0"
     inkscape:pageshadow="2"
     inkscape:zoom="1.979899"
     inkscape:cx="117.43847"
     inkscape:cy="151.29002"
     inkscape:document-units="mm"
     inkscape:current-layer="layer1"
     inkscape:document-rotation="0"
     showgrid="false"
     units="px"
     inkscape:window-width="2560"
     inkscape:window-height="1377"
     inkscape:window-x="1912"
     inkscape:window-y="-8"
     inkscape:window-maximized="1" />
  <metadata
     id="metadata1370">
    <rdf:RDF>
      <cc:Work
         rdf:about="">
        <dc:format>image/svg+xml</dc:format>
        <dc:type
           rdf:resource="http://purl.org/dc/dcmitype/StillImage" />
        <dc:title></dc:title>
      </cc:Work>
    </rdf:RDF>
  </metadata>
  <g
     inkscape:label="Layer 1"
     inkscape:groupmode="layer"
     id="layer1">
    <g
       id="g2460"
       style="fill:none;stroke:#000000;stroke-opacity:1;stroke-width:4"
       transform="matrix(0.26458333,0,0,0.26458333,166.81979,-83.210924)">
      <circle
         
         cx="-580"
         cy="364.99799"
         r="50"
         id="circle2458"
         style="fill:none;stroke:#000000;stroke-opacity:1;stroke-width:4" />
    </g>
    <path
       fill="#0d0f0f"
       d="m 13.971851,1.7864736 v 7.208837 c 0,0.862542 0.362744,1.2935484 1.08929,1.2935484 h 0.189177 v 0.493448 h -3.8354 v -0.493448 h 0.240771 c 0.702733,0 1.053041,-0.4310064 1.053041,-1.2935484 v -4.728898 c 0,-0.872331 -0.302948,-1.308893 -0.908579,-1.308893 h -0.385498 v -0.477573 h 0.138377 c 0.7493,0 1.427427,-0.231511 2.034117,-0.693473 z"
       id="path2462"
       style="stroke-width:0.264583" />
    <path
       fill="#0d0f0f"
       d="m 16.418189,21.432844 -0.662517,2.237052 h -5.508625 v -0.478631 c 0.267758,-0.298185 0.85381,-0.899583 1.75895,-1.804987 0.545835,-0.545836 1.085321,-1.121305 1.619514,-1.727994 0.267759,-0.298715 0.47334,-0.556154 0.617009,-0.772054 0.319352,-0.461963 0.478631,-0.935302 0.478631,-1.418961 0,-0.473339 -0.146844,-0.889794 -0.439208,-1.249627 -0.292365,-0.360627 -0.669661,-0.541073 -1.13374,-0.541073 -0.998273,0 -1.779852,0.674952 -2.345002,2.022211 l -0.493977,-0.185473 c 0.668602,-1.891771 1.721908,-2.838715 3.162565,-2.838715 0.710141,0 1.313656,0.2413 1.813718,0.724429 0.499269,0.483659 0.748242,1.080029 0.748242,1.7907 0,0.905404 -0.519906,1.790171 -1.55866,2.653507 l -1.08003,0.894027 c -0.689239,0.57785 -1.261004,1.117864 -1.712647,1.621631 -0.03096,0.0299 -0.09313,0.103452 -0.184944,0.215371 h 2.8702 c 0.441325,0 0.776287,-0.08731 1.002506,-0.262467 0.194204,-0.153987 0.385498,-0.446881 0.570442,-0.878417 h 0.477573 z"
       id="path2464"
       style="stroke-width:0.264583" />
    <g
       id="g2468"
       transform="matrix(0.26458333,0,0,0.26458333,166.81979,-83.210924)">
      <path
         fill="#0d0f0f"
         d="m -609.268,364.455 v -2.91 h 58.328 v 2.91 z"
         id="path2466" />
    </g>
  </g>
</svg>
