<?xml version="1.0" encoding="UTF-8" standalone="no"?>
<svg
   xmlns:dc="http://purl.org/dc/elements/1.1/"
   xmlns:cc="http://creativecommons.org/ns#"
   xmlns:rdf="http://www.w3.org/1999/02/22-rdf-syntax-ns#"
   xmlns:svg="http://www.w3.org/2000/svg"
   xmlns="http://www.w3.org/2000/svg"
   xmlns:sodipodi="http://sodipodi.sourceforge.net/DTD/sodipodi-0.dtd"
   xmlns:inkscape="http://www.inkscape.org/namespaces/inkscape"
   width="101"
   height="101"
   viewBox="0 0 26.722918 26.722918"
   version="1.1"
   id="svg1373"
   inkscape:version="1.0.1 (3bc2e813f5, 2020-09-07)"
   sodipodi:docname="colourless_0.svg">
  <defs
     id="defs1367" />
  <sodipodi:namedview
     id="base"
     pagecolor="#ffffff"
     bordercolor="#666666"
     borderopacity="1.0"
     inkscape:pageopacity="0.0"
     inkscape:pageshadow="2"
     inkscape:zoom="1.979899"
     inkscape:cx="117.43847"
     inkscape:cy="151.29002"
     inkscape:document-units="mm"
     inkscape:current-layer="layer1"
     inkscape:document-rotation="0"
     showgrid="false"
     units="px"
     inkscape:window-width="2560"
     inkscape:window-height="1377"
     inkscape:window-x="1912"
     inkscape:window-y="-8"
     inkscape:window-maximized="1" />
  <metadata
     id="metadata1370">
    <rdf:RDF>
      <cc:Work
         rdf:about="">
        <dc:format>image/svg+xml</dc:format>
        <dc:type
           rdf:resource="http://purl.org/dc/dcmitype/StillImage" />
        <dc:title></dc:title>
      </cc:Work>
    </rdf:RDF>
  </metadata>
  <g
     inkscape:label="Layer 1"
     inkscape:groupmode="layer"
     id="layer1">
    <g
       id="g2106"
       style="fill:none;stroke:#000000;stroke-opacity:1"
       transform="matrix(0.26458333,0,0,0.26458333,250.16354,55.694791)">
      <circle
         fill="#CAC5C0"
         cx="-895"
         cy="-160"
         r="50"
         id="circle2104"
         style="fill:none;stroke:#000000;stroke-opacity:1" />
    </g>
    <path
       fill="#0d0f0f"
       d="m 6.2177045,14.003861 c 0,-2.58948 0.545306,-4.97761 1.638035,-7.162799 1.353873,-2.708275 3.2075435,-4.062677 5.5594255,-4.062677 2.327539,0 4.144962,1.153318 5.451739,3.456516 1.091936,1.9013 1.638036,4.11083 1.638036,6.62808 0,2.61435 -0.5461,4.97787 -1.638036,7.09162 -1.331118,2.66118 -3.18426,3.99019 -5.55916,3.99019 -2.257161,0 -4.0494485,-1.13956 -5.3805665,-3.42001 -1.139825,-1.9476 -1.709473,-4.12115 -1.709473,-6.52092 z m 2.992173,-1.17581 c 0,3.42001 0.510646,6.08119 1.5332605,7.98195 0.711993,1.32953 1.626129,1.99523 2.742935,1.99523 2.684463,0 4.027223,-2.77972 4.027223,-8.33914 0,-2.44581 -0.214048,-4.51353 -0.640821,-6.20025 C 16.135611,5.48666 14.888629,4.09601 13.129944,4.09601 c -2.613819,0 -3.9200665,2.685521 -3.9200665,8.054711 z"
       id="path2108"
       style="stroke-width:0.264583" />
  </g>
</svg>
