<?xml version="1.0" encoding="UTF-8" standalone="no"?>
<svg
   xmlns:dc="http://purl.org/dc/elements/1.1/"
   xmlns:cc="http://creativecommons.org/ns#"
   xmlns:rdf="http://www.w3.org/1999/02/22-rdf-syntax-ns#"
   xmlns:svg="http://www.w3.org/2000/svg"
   xmlns="http://www.w3.org/2000/svg"
   xmlns:sodipodi="http://sodipodi.sourceforge.net/DTD/sodipodi-0.dtd"
   xmlns:inkscape="http://www.inkscape.org/namespaces/inkscape"
   width="101"
   height="101"
   viewBox="0 0 26.722918 26.722918"
   version="1.1"
   id="svg1373"
   inkscape:version="1.0.1 (3bc2e813f5, 2020-09-07)"
   sodipodi:docname="colourless_10.svg">
  <defs
     id="defs1367" />
  <sodipodi:namedview
     id="base"
     pagecolor="#ffffff"
     bordercolor="#666666"
     borderopacity="1.0"
     inkscape:pageopacity="0.0"
     inkscape:pageshadow="2"
     inkscape:zoom="1.979899"
     inkscape:cx="117.43847"
     inkscape:cy="151.29002"
     inkscape:document-units="mm"
     inkscape:current-layer="layer1"
     inkscape:document-rotation="0"
     showgrid="false"
     units="px"
     inkscape:window-width="2560"
     inkscape:window-height="1377"
     inkscape:window-x="1912"
     inkscape:window-y="-8"
     inkscape:window-maximized="1" />
  <metadata
     id="metadata1370">
    <rdf:RDF>
      <cc:Work
         rdf:about="">
        <dc:format>image/svg+xml</dc:format>
        <dc:type
           rdf:resource="http://purl.org/dc/dcmitype/StillImage" />
        <dc:title></dc:title>
      </cc:Work>
    </rdf:RDF>
  </metadata>
  <g
     inkscape:label="Layer 1"
     inkscape:groupmode="layer"
     id="layer1">
    <g
       id="g2220"
       style="fill:none;stroke:#000000;stroke-opacity:1"
       transform="matrix(0.26458333,0,0,0.26458333,250.16354,27.91407)">
      <circle
         fill="#CAC5C0"
         cx="-895"
         cy="-55.001999"
         r="50"
         id="circle2218"
         style="fill:none;stroke:#000000;stroke-opacity:1" />
    </g>
    <path
       fill="#0d0f0f"
       d="M 9.4736721,5.0628012 V 18.408119 c 0,1.586971 0.6791849,2.380721 2.0354389,2.380721 h 0.345282 v 0.904875 H 4.7460971 V 20.78884 h 0.4569354 c 1.3046605,0 1.9579167,-0.79375 1.9579167,-2.380721 V 9.6557032 c 0,-1.608667 -0.5701771,-2.413794 -1.7110604,-2.413794 H 4.7460971 v -0.905933 h 0.2688167 c 1.3858875,0 2.6376312,-0.424392 3.7547021,-1.27344 z m 2.5823329,8.8180328 c 0,-2.078831 0.435504,-3.9904458 1.307042,-5.7329908 1.095904,-2.167732 2.594239,-3.252523 4.493154,-3.252523 1.833828,0 3.286655,0.928158 4.359276,2.782358 0.872067,1.520825 1.308365,3.2758058 1.308365,5.2646788 0,2.07936 -0.436034,3.979069 -1.308365,5.700448 -1.09564,2.124339 -2.58154,3.185848 -4.459024,3.185848 -1.810279,0 -3.252523,-0.916782 -4.326467,-2.750344 -0.916516,-1.541992 -1.373981,-3.274483 -1.373981,-5.197475 z m 2.413529,-0.972608 c 0,1.767416 0.189971,3.353858 0.570442,4.761441 0.58129,2.168261 1.530615,3.253052 2.849827,3.253052 2.146036,0 3.218657,-2.234935 3.218657,-6.706129 0,-5.5215888 -1.162579,-8.2817218 -3.487738,-8.2817218 -2.101056,0 -3.151717,2.144447 -3.151717,6.4367828 z"
       id="path2222"
       style="stroke-width:0.264583" />
  </g>
</svg>
