<?xml version="1.0" encoding="UTF-8" standalone="no"?>
<svg
   xmlns:dc="http://purl.org/dc/elements/1.1/"
   xmlns:cc="http://creativecommons.org/ns#"
   xmlns:rdf="http://www.w3.org/1999/02/22-rdf-syntax-ns#"
   xmlns:svg="http://www.w3.org/2000/svg"
   xmlns="http://www.w3.org/2000/svg"
   xmlns:sodipodi="http://sodipodi.sourceforge.net/DTD/sodipodi-0.dtd"
   xmlns:inkscape="http://www.inkscape.org/namespaces/inkscape"
   width="101"
   height="101"
   viewBox="0 0 26.722918 26.722918"
   version="1.1"
   id="svg1373"
   inkscape:version="1.0.1 (3bc2e813f5, 2020-09-07)"
   sodipodi:docname="colourless_9.svg">
  <defs
     id="defs1367" />
  <sodipodi:namedview
     id="base"
     pagecolor="#ffffff"
     bordercolor="#666666"
     borderopacity="1.0"
     inkscape:pageopacity="0.0"
     inkscape:pageshadow="2"
     inkscape:zoom="1.979899"
     inkscape:cx="117.43847"
     inkscape:cy="151.29002"
     inkscape:document-units="mm"
     inkscape:current-layer="layer1"
     inkscape:document-rotation="0"
     showgrid="false"
     units="px"
     inkscape:window-width="2560"
     inkscape:window-height="1377"
     inkscape:window-x="1912"
     inkscape:window-y="-8"
     inkscape:window-maximized="1" />
  <metadata
     id="metadata1370">
    <rdf:RDF>
      <cc:Work
         rdf:about="">
        <dc:format>image/svg+xml</dc:format>
        <dc:type
           rdf:resource="http://purl.org/dc/dcmitype/StillImage" />
        <dc:title></dc:title>
      </cc:Work>
    </rdf:RDF>
  </metadata>
  <g
     inkscape:label="Layer 1"
     inkscape:groupmode="layer"
     id="layer1">
    <g
       id="g2160"
       style="fill:none;stroke:#000000;stroke-opacity:1"
       transform="matrix(0.26458333,0,0,0.26458333,0.13229166,55.69532)">
      <circle
         fill="#CAC5C0"
         cx="50"
         cy="-160.002"
         r="50"
         id="circle2158"
         style="fill:none;stroke:#000000;stroke-opacity:1" />
    </g>
    <path
       fill="#0d0f0f"
       d="m 16.907405,14.823545 c -1.566862,1.472935 -3.148012,2.210064 -4.738687,2.210064 -1.734344,0 -3.1244653,-0.688975 -4.1693053,-2.067454 -0.974725,-1.258888 -1.461293,-2.779977 -1.461293,-4.561681 0,-1.92405 0.569383,-3.6451645 1.709473,-5.1662541 1.236133,-1.6401521 2.7926773,-2.4595667 4.6693663,-2.4595667 2.281238,0 4.098132,0.9863667 5.45174,2.9583063 1.212321,1.7340791 1.816894,3.7885687 1.816894,6.1653205 0,3.372379 -1.1176,6.217179 -3.348302,8.534665 -2.233348,2.315633 -5.025232,3.48562 -8.3748573,3.508639 v -1.104635 c 1.021027,-0.04657 1.8396483,-0.165629 2.4598323,-0.3556 3.418945,-1.045369 5.415756,-3.598598 5.985139,-7.661804 z m 0.215106,-2.138363 c 0.02276,-0.451379 0.03413,-0.878946 0.03413,-1.282171 0,-1.6629057 -0.284163,-3.1839953 -0.854605,-4.5614161 -0.760677,-1.8298584 -1.852083,-2.7447875 -3.277129,-2.7447875 -1.237191,0 -2.149739,0.6310312 -2.745052,1.8893896 -0.4754543,0.9744604 -0.7119923,2.1500041 -0.7119923,3.5279541 0,1.4726709 0.225425,2.7315579 0.6770693,3.7769269 0.617009,1.42531 1.567921,2.138627 2.851415,2.138627 1.566333,0 2.907771,-0.914929 4.026164,-2.744523 z"
       id="path2162"
       style="stroke-width:0.264583" />
  </g>
</svg>
