<?xml version="1.0" encoding="UTF-8" standalone="no"?>
<svg
   xmlns:dc="http://purl.org/dc/elements/1.1/"
   xmlns:cc="http://creativecommons.org/ns#"
   xmlns:rdf="http://www.w3.org/1999/02/22-rdf-syntax-ns#"
   xmlns:svg="http://www.w3.org/2000/svg"
   xmlns="http://www.w3.org/2000/svg"
   xmlns:sodipodi="http://sodipodi.sourceforge.net/DTD/sodipodi-0.dtd"
   xmlns:inkscape="http://www.inkscape.org/namespaces/inkscape"
   width="101"
   height="101"
   viewBox="0 0 26.722918 26.722918"
   version="1.1"
   id="svg1373"
   inkscape:version="1.0.1 (3bc2e813f5, 2020-09-07)"
   sodipodi:docname="colourless_12.svg">
  <defs
     id="defs1367" />
  <sodipodi:namedview
     id="base"
     pagecolor="#ffffff"
     bordercolor="#666666"
     borderopacity="1.0"
     inkscape:pageopacity="0.0"
     inkscape:pageshadow="2"
     inkscape:zoom="1.979899"
     inkscape:cx="117.43847"
     inkscape:cy="151.29002"
     inkscape:document-units="mm"
     inkscape:current-layer="layer1"
     inkscape:document-rotation="0"
     showgrid="false"
     units="px"
     inkscape:window-width="2560"
     inkscape:window-height="1377"
     inkscape:window-x="1912"
     inkscape:window-y="-8"
     inkscape:window-maximized="1" />
  <metadata
     id="metadata1370">
    <rdf:RDF>
      <cc:Work
         rdf:about="">
        <dc:format>image/svg+xml</dc:format>
        <dc:type
           rdf:resource="http://purl.org/dc/dcmitype/StillImage" />
        <dc:title></dc:title>
      </cc:Work>
    </rdf:RDF>
  </metadata>
  <g
     inkscape:label="Layer 1"
     inkscape:groupmode="layer"
     id="layer1">
    <g
       id="g2208"
       style="fill:none;stroke:#000000;stroke-opacity:1;stroke-width:4"
       transform="matrix(0.26458333,0,0,0.26458333,194.60104,27.91407)">
      <circle
         
         cx="-685"
         cy="-55.001999"
         r="50"
         id="circle2206"
         style="fill:none;stroke:#000000;stroke-opacity:1;stroke-width:4" />
    </g>
    <path
       fill="#0d0f0f"
       d="M 9.5593932,5.2167881 V 18.228996 c 0,1.554427 0.6424078,2.332567 1.9253728,2.332567 h 0.338137 v 0.91149 H 4.8947892 v -0.91149 h 0.405606 c 1.306513,0 1.959504,-0.77814 1.959504,-2.332567 V 9.6776631 c 0,-1.5755938 -0.540543,-2.3651105 -1.621366,-2.3651105 H 4.9289202 V 6.4336068 h 0.269611 c 1.351756,0 2.568839,-0.4050771 3.649927,-1.2165542 z M 23.043882,17.484723 21.86093,21.507184 h -9.903089 v -0.878417 c 0.474398,-0.540544 1.521089,-1.622689 3.143779,-3.245379 0.96811,-0.968375 1.937808,-2.005012 2.907242,-3.108325 0.473075,-0.542131 0.844285,-0.991658 1.115218,-1.353344 0.562504,-0.855133 0.844286,-1.710531 0.844286,-2.567252 0,-0.8567206 -0.259557,-1.6118414 -0.777346,-2.2650977 -0.518319,-0.6537854 -1.206236,-0.9802812 -2.061369,-0.9802812 -1.78091,0 -3.178175,1.2165541 -4.191794,3.6509849 l -0.878681,-0.338402 c 1.217348,-3.3800517 3.109383,-5.0704746 5.678223,-5.0704746 1.261269,0 2.343415,0.4288896 3.244321,1.2845521 0.900642,0.8567208 1.351756,1.9264312 1.351756,3.2112479 0,1.6443856 -0.935037,3.2443206 -2.804054,4.7998066 l -1.926696,1.553898 c -1.240367,1.037166 -2.265098,2.017447 -3.076575,2.939785 -0.0672,0.06932 -0.180181,0.192881 -0.336814,0.373062 h 5.171016 c 0.788194,0 1.373717,-0.147372 1.757627,-0.440266 0.382323,-0.291571 0.731838,-0.822061 1.046692,-1.588559 z"
       id="path2210"
       style="stroke-width:0.264583" />
  </g>
</svg>
