<?xml version="1.0" encoding="UTF-8" standalone="no"?>
<svg
   xmlns:dc="http://purl.org/dc/elements/1.1/"
   xmlns:cc="http://creativecommons.org/ns#"
   xmlns:rdf="http://www.w3.org/1999/02/22-rdf-syntax-ns#"
   xmlns:svg="http://www.w3.org/2000/svg"
   xmlns="http://www.w3.org/2000/svg"
   xmlns:sodipodi="http://sodipodi.sourceforge.net/DTD/sodipodi-0.dtd"
   xmlns:inkscape="http://www.inkscape.org/namespaces/inkscape"
   width="101"
   height="101"
   viewBox="0 0 26.722918 26.722918"
   version="1.1"
   id="svg1373"
   inkscape:version="1.0.1 (3bc2e813f5, 2020-09-07)"
   sodipodi:docname="colourless_16.svg">
  <defs
     id="defs1367" />
  <sodipodi:namedview
     id="base"
     pagecolor="#ffffff"
     bordercolor="#666666"
     borderopacity="1.0"
     inkscape:pageopacity="0.0"
     inkscape:pageshadow="2"
     inkscape:zoom="1.979899"
     inkscape:cx="117.43847"
     inkscape:cy="151.29002"
     inkscape:document-units="mm"
     inkscape:current-layer="layer1"
     inkscape:document-rotation="0"
     showgrid="false"
     units="px"
     inkscape:window-width="2560"
     inkscape:window-height="1377"
     inkscape:window-x="1912"
     inkscape:window-y="-8"
     inkscape:window-maximized="1" />
  <metadata
     id="metadata1370">
    <rdf:RDF>
      <cc:Work
         rdf:about="">
        <dc:format>image/svg+xml</dc:format>
        <dc:type
           rdf:resource="http://purl.org/dc/dcmitype/StillImage" />
        <dc:title></dc:title>
      </cc:Work>
    </rdf:RDF>
  </metadata>
  <g
     inkscape:label="Layer 1"
     inkscape:groupmode="layer"
     id="layer1">
    <g
       id="g2184"
       style="fill:none;stroke:#000000;stroke-opacity:1"
       transform="matrix(0.26458333,0,0,0.26458333,83.476041,27.91407)">
      <circle
         fill="#CAC5C0"
         cx="-265"
         cy="-55.001999"
         r="50"
         id="circle2182"
         style="fill:none;stroke:#000000;stroke-opacity:1" />
    </g>
    <path
       fill="#0d0f0f"
       d="M 9.2098796,4.9805152 V 18.431403 c 0,1.599935 0.665692,2.39977 1.9941654,2.39977 h 0.338402 v 0.912019 H 4.3770006 v -0.912019 h 0.47334 c 1.351756,0 2.028825,-0.799835 2.028825,-2.39977 V 9.6091362 c 0,-1.621102 -0.575204,-2.432314 -1.725083,-2.432314 h -0.709613 v -0.913078 h 0.270669 c 1.397264,0 2.658798,-0.427831 3.784864,-1.283229 z m 5.3070134,7.2651938 c 1.239308,-1.169988 2.4892,-1.757627 3.751791,-1.757627 1.351757,0 2.443692,0.542131 3.278452,1.623219 0.765969,0.991129 1.148292,2.197364 1.148292,3.616325 0,1.532202 -0.450585,2.87311 -1.351756,4.021402 -0.991129,1.284552 -2.230438,1.926431 -3.717131,1.926431 -1.757627,0 -3.176588,-0.765969 -4.259263,-2.297642 -0.94615,-1.351756 -1.419489,-2.951691 -1.419489,-4.799806 0,-1.981729 0.540543,-3.802327 1.623218,-5.4586188 1.080559,-1.655762 2.534709,-2.832893 4.35954,-3.531658 1.013354,-0.38391 2.096029,-0.575204 3.244321,-0.575204 v 0.878946 c -2.432315,0.113241 -4.246827,1.082675 -5.440627,2.907241 -0.6096,0.946944 -1.015207,2.0952358 -1.217348,3.4469918 z m -0.169334,1.65735 c -0.02169,0.336814 -0.03413,0.675481 -0.03413,1.013354 0,1.306513 0.225425,2.512483 0.677069,3.617383 0.585523,1.440657 1.440656,2.161646 2.56831,2.161646 0.968375,0 1.701271,-0.495035 2.196307,-1.486694 0.360627,-0.765968 0.540543,-1.70127 0.540543,-2.805641 0,-1.148292 -0.167481,-2.13995 -0.505883,-2.972859 -0.496623,-1.127654 -1.251215,-1.690422 -2.265098,-1.690422 -1.239308,0 -2.298171,0.720989 -3.177118,2.163233 z"
       id="path2186"
       style="stroke-width:0.264583" />
  </g>
</svg>
