<?xml version="1.0" encoding="UTF-8" standalone="no"?>
<svg
   xmlns:dc="http://purl.org/dc/elements/1.1/"
   xmlns:cc="http://creativecommons.org/ns#"
   xmlns:rdf="http://www.w3.org/1999/02/22-rdf-syntax-ns#"
   xmlns:svg="http://www.w3.org/2000/svg"
   xmlns="http://www.w3.org/2000/svg"
   xmlns:sodipodi="http://sodipodi.sourceforge.net/DTD/sodipodi-0.dtd"
   xmlns:inkscape="http://www.inkscape.org/namespaces/inkscape"
   width="189"
   height="101"
   viewBox="0 0 50.006252 26.722918"
   version="1.1"
   id="svg1373"
   inkscape:version="1.0.1 (3bc2e813f5, 2020-09-07)"
   sodipodi:docname="colourless_100.svg">
  <defs
     id="defs1367" />
  <sodipodi:namedview
     id="base"
     pagecolor="#ffffff"
     bordercolor="#666666"
     borderopacity="1.0"
     inkscape:pageopacity="0.0"
     inkscape:pageshadow="2"
     inkscape:zoom="1.979899"
     inkscape:cx="117.43847"
     inkscape:cy="151.29002"
     inkscape:document-units="mm"
     inkscape:current-layer="layer1"
     inkscape:document-rotation="0"
     showgrid="false"
     units="px"
     inkscape:window-width="2560"
     inkscape:window-height="1377"
     inkscape:window-x="1912"
     inkscape:window-y="-8"
     inkscape:window-maximized="1" />
  <metadata
     id="metadata1370">
    <rdf:RDF>
      <cc:Work
         rdf:about="">
        <dc:format>image/svg+xml</dc:format>
        <dc:type
           rdf:resource="http://purl.org/dc/dcmitype/StillImage" />
        <dc:title></dc:title>
      </cc:Work>
    </rdf:RDF>
  </metadata>
  <g
     inkscape:label="Layer 1"
     inkscape:groupmode="layer"
     id="layer1">
    <path
       fill="#CAC5C0"
       d="M 36.644792,0.1322915 H 13.361458 v 0 c -7.3059395,0 -13.2291665,5.922698 -13.2291665,13.2286365 0,7.306469 5.923227,13.229696 13.2291665,13.229696 v 0 h 23.283334 c 7.305939,0 13.229166,-5.923227 13.229166,-13.229696 0,-7.3059385 -5.923227,-13.2286365 -13.229166,-13.2286365 z"
       id="path2486"
       style="fill:none;stroke:#000000;stroke-width:0.264583;stroke-opacity:1" />
    <path
       fill="#0d0f0f"
       d="M 11.662569,3.5718745 V 19.26193 c 0,1.877484 0.788458,2.814902 2.369873,2.814902 h 0.412485 v 1.074209 H 6.0970581 v -1.074473 h 0.5236104 c 1.5290271,0 2.2928792,-0.937948 2.2928792,-2.815432 V 8.9693745 c 0,-1.899179 -0.6598708,-2.849562 -1.9777604,-2.849562 H 6.0970581 v -1.039813 h 0.3024188 c 1.6303625,0 3.1062083,-0.503237 4.4251561,-1.508919 h 0.837936 z"
       id="path2488"
       style="stroke-width:0.264583" />
    <path
       fill="#0d0f0f"
       d="m 16.834379,13.955182 c 0,-2.394743 0.504825,-4.6037495 1.515798,-6.6254305 1.252008,-2.505339 2.966773,-3.757877 5.142442,-3.757877 2.152914,0 3.833812,1.066006 5.042693,3.196696 1.01018,1.758421 1.515798,3.8028555 1.515798,6.1314535 0,2.418556 -0.505354,4.604279 -1.515798,6.560344 -1.230841,2.460889 -2.945077,3.690673 -5.142441,3.690673 -2.087827,0 -3.745442,-1.0541 -4.976548,-3.163623 -1.054894,-1.802077 -1.581944,-3.812117 -1.581944,-6.032236 z m 2.767806,-1.087173 c 0,3.163623 0.472282,5.625571 1.418432,7.383463 0.658283,1.229783 1.503891,1.845469 2.536825,1.845469 2.483114,0 3.725333,-2.570957 3.725333,-7.713134 0,-2.262981 -0.197908,-4.175389 -0.592667,-5.7351075 -0.681566,-2.571485 -1.83515,-3.857096 -3.461808,-3.857096 -2.418027,0 -3.626115,2.483644 -3.626115,7.4501375 z"
       id="path2490"
       style="stroke-width:0.264583" />
    <path
       fill="#0d0f0f"
       d="m 33.062333,13.955182 c 0,-2.394743 0.504825,-4.6037495 1.515798,-6.6254305 1.252009,-2.505339 2.966773,-3.757877 5.142442,-3.757877 2.152914,0 3.833812,1.066006 5.042694,3.196696 1.010179,1.758421 1.515798,3.8028555 1.515798,6.1314535 0,2.418556 -0.505355,4.604279 -1.515798,6.560344 -1.230842,2.460889 -2.945077,3.690673 -5.142442,3.690673 -2.087827,0 -3.745442,-1.0541 -4.976548,-3.163623 -1.054894,-1.802077 -1.581944,-3.812117 -1.581944,-6.032236 z m 2.767807,-1.087173 c 0,3.163623 0.472281,5.625571 1.418431,7.383463 0.658283,1.229783 1.503891,1.845469 2.536825,1.845469 2.483114,0 3.725333,-2.570957 3.725333,-7.713134 0,-2.262981 -0.197908,-4.175389 -0.592667,-5.7351075 -0.681566,-2.571485 -1.83515,-3.857096 -3.461808,-3.857096 -2.418027,0 -3.626114,2.483644 -3.626114,7.4501375 z"
       id="path2492"
       style="stroke-width:0.264583" />
  </g>
</svg>
