<?xml version="1.0" encoding="UTF-8" standalone="no"?>
<svg
   xmlns:dc="http://purl.org/dc/elements/1.1/"
   xmlns:cc="http://creativecommons.org/ns#"
   xmlns:rdf="http://www.w3.org/1999/02/22-rdf-syntax-ns#"
   xmlns:svg="http://www.w3.org/2000/svg"
   xmlns="http://www.w3.org/2000/svg"
   xmlns:sodipodi="http://sodipodi.sourceforge.net/DTD/sodipodi-0.dtd"
   xmlns:inkscape="http://www.inkscape.org/namespaces/inkscape"
   width="101"
   height="101"
   viewBox="0 0 26.722918 26.722918"
   version="1.1"
   id="svg1373"
   inkscape:version="1.0.1 (3bc2e813f5, 2020-09-07)"
   sodipodi:docname="colourless_5.svg">
  <defs
     id="defs1367" />
  <sodipodi:namedview
     id="base"
     pagecolor="#ffffff"
     bordercolor="#666666"
     borderopacity="1.0"
     inkscape:pageopacity="0.0"
     inkscape:pageshadow="2"
     inkscape:zoom="1.979899"
     inkscape:cx="117.43847"
     inkscape:cy="151.29002"
     inkscape:document-units="mm"
     inkscape:current-layer="layer1"
     inkscape:document-rotation="0"
     showgrid="false"
     units="px"
     inkscape:window-width="2560"
     inkscape:window-height="1377"
     inkscape:window-x="1912"
     inkscape:window-y="-8"
     inkscape:window-maximized="1" />
  <metadata
     id="metadata1370">
    <rdf:RDF>
      <cc:Work
         rdf:about="">
        <dc:format>image/svg+xml</dc:format>
        <dc:type
           rdf:resource="http://purl.org/dc/dcmitype/StillImage" />
        <dc:title></dc:title>
      </cc:Work>
    </rdf:RDF>
  </metadata>
  <g
     inkscape:label="Layer 1"
     inkscape:groupmode="layer"
     id="layer1">
    <g
       id="g2136"
       style="fill:none;stroke:#000000;stroke-opacity:1"
       transform="matrix(0.26458333,0,0,0.26458333,111.25729,55.69532)">
      <circle
         fill="#CAC5C0"
         cx="-370"
         cy="-160.002"
         r="50"
         id="circle2134"
         style="fill:none;stroke:#000000;stroke-opacity:1" />
    </g>
    <path
       fill="#0d0f0f"
       d="m 9.3813313,3.1363688 h 7.6573047 c 0.993246,0 1.584325,-0.119062 1.773503,-0.3577165 h 1.099608 L 19.270926,5.6692248 H 9.9274313 l -0.9017,4.177507 c 1.3565177,-0.547688 2.5579907,-0.821267 3.6049467,-0.821267 2.044965,0 3.770313,0.684477 5.174986,2.0526382 1.403614,1.36816 2.106347,3.074987 2.106347,5.121539 0,2.380192 -0.916781,4.29604 -2.750079,5.74728 -1.689364,1.333235 -3.747029,1.998398 -6.174846,1.998398 -1.4274257,0 -2.8204567,-0.213784 -4.1764467,-0.64188 l 0.427831,-1.070504 c 1.143,0.309298 2.153973,0.463286 3.0345057,0.463286 1.760538,0 3.301206,-0.576792 4.623065,-1.731434 1.32027,-1.153054 1.9812,-2.599796 1.9812,-4.33705 0,-1.498864 -0.487892,-2.7305 -1.46394,-3.693318 -0.976048,-0.964671 -2.21324,-1.446742 -3.712898,-1.446742 -1.379273,0 -2.6643537,0.47625 -3.8544487,1.427692 l -0.71464,-0.142346 z"
       id="path2138"
       style="stroke-width:0.264583" />
  </g>
</svg>
