<?xml version="1.0" encoding="UTF-8" standalone="no"?>
<svg
   xmlns:dc="http://purl.org/dc/elements/1.1/"
   xmlns:cc="http://creativecommons.org/ns#"
   xmlns:rdf="http://www.w3.org/1999/02/22-rdf-syntax-ns#"
   xmlns:svg="http://www.w3.org/2000/svg"
   xmlns="http://www.w3.org/2000/svg"
   xmlns:sodipodi="http://sodipodi.sourceforge.net/DTD/sodipodi-0.dtd"
   xmlns:inkscape="http://www.inkscape.org/namespaces/inkscape"
   width="101"
   height="101"
   viewBox="0 0 26.722918 26.722918"
   version="1.1"
   id="svg1373"
   inkscape:version="1.0.1 (3bc2e813f5, 2020-09-07)"
   sodipodi:docname="colourless_15.svg">
  <defs
     id="defs1367" />
  <sodipodi:namedview
     id="base"
     pagecolor="#ffffff"
     bordercolor="#666666"
     borderopacity="1.0"
     inkscape:pageopacity="0.0"
     inkscape:pageshadow="2"
     inkscape:zoom="1.979899"
     inkscape:cx="117.43847"
     inkscape:cy="151.29002"
     inkscape:document-units="mm"
     inkscape:current-layer="layer1"
     inkscape:document-rotation="0"
     showgrid="false"
     units="px"
     inkscape:window-width="2560"
     inkscape:window-height="1377"
     inkscape:window-x="1912"
     inkscape:window-y="-8"
     inkscape:window-maximized="1" />
  <metadata
     id="metadata1370">
    <rdf:RDF>
      <cc:Work
         rdf:about="">
        <dc:format>image/svg+xml</dc:format>
        <dc:type
           rdf:resource="http://purl.org/dc/dcmitype/StillImage" />
        <dc:title></dc:title>
      </cc:Work>
    </rdf:RDF>
  </metadata>
  <g
     inkscape:label="Layer 1"
     inkscape:groupmode="layer"
     id="layer1">
    <g
       id="g2190"
       style="fill:none;stroke:#000000;stroke-opacity:1;stroke-width:4"
       transform="matrix(0.26458333,0,0,0.26458333,111.25729,27.913541)">
      <path
         
         d="M -320,-55.002 C -320,-27.387 -342.387,-5 -370.002,-5 -397.615,-5 -420,-27.387 -420,-55.002 c 0,-27.613 22.385,-49.998 49.998,-49.998 27.615,0 50.002,22.385 50.002,49.998 z"
         id="path2188"
         style="fill:none;stroke:#000000;stroke-opacity:1;stroke-width:4" />
    </g>
    <path
       fill="#0d0f0f"
       d="m 9.305396,4.928922 v 13.451416 c 0,1.599407 0.6656917,2.399771 1.994164,2.399771 h 0.337873 v 0.91149 H 4.473046 v -0.91149 h 0.4728104 c 1.3517563,0 2.0282959,-0.800364 2.0282959,-2.399771 V 9.558072 c 0,-1.6216313 -0.574675,-2.4328438 -1.7245542,-2.4328438 H 4.5399856 V 6.2126803 h 0.2706688 c 1.3972645,0 2.6582687,-0.4278313 3.7848645,-1.2837583 z m 4.732073,0.3368145 H 20.1549 c 0.789517,0 1.262327,-0.0889 1.420548,-0.269875 h 0.878946 l -0.507471,2.2987 H 14.478 l -0.709613,3.3115245 c 1.057805,-0.427831 2.005013,-0.6424078 2.838715,-0.6424078 1.62269,0 2.991115,0.5421308 4.106333,1.6232188 1.115219,1.080558 1.672167,2.432314 1.672167,4.055533 0,1.8923 -0.72046,3.412596 -2.161646,4.563004 -1.353344,1.058333 -2.98741,1.588558 -4.901406,1.588558 -1.126596,0 -2.230438,-0.169597 -3.311525,-0.50747 l 0.336815,-0.844286 c 0.900641,0.247121 1.70127,0.370946 2.39977,0.370946 1.397265,0 2.619905,-0.460904 3.66739,-1.384829 1.048015,-0.923925 1.570567,-2.074333 1.570567,-3.447786 0,-1.1938 -0.387615,-2.17461 -1.164696,-2.940314 -0.77814,-0.765969 -1.751806,-1.14935 -2.923911,-1.14935 -1.103841,0 -2.128573,0.383381 -3.075781,1.14935 l -0.573617,-0.101336 z"
       id="path2192"
       style="stroke-width:0.264583" />
  </g>
</svg>
