<?xml version="1.0" encoding="UTF-8" standalone="no"?>
<svg
   xmlns:dc="http://purl.org/dc/elements/1.1/"
   xmlns:cc="http://creativecommons.org/ns#"
   xmlns:rdf="http://www.w3.org/1999/02/22-rdf-syntax-ns#"
   xmlns:svg="http://www.w3.org/2000/svg"
   xmlns="http://www.w3.org/2000/svg"
   xmlns:sodipodi="http://sodipodi.sourceforge.net/DTD/sodipodi-0.dtd"
   xmlns:inkscape="http://www.inkscape.org/namespaces/inkscape"
   width="101"
   height="101"
   viewBox="0 0 26.722918 26.722918"
   version="1.1"
   id="svg1373"
   inkscape:version="1.0.1 (3bc2e813f5, 2020-09-07)"
   sodipodi:docname="colourless_18.svg">
  <defs
     id="defs1367" />
  <sodipodi:namedview
     id="base"
     pagecolor="#ffffff"
     bordercolor="#666666"
     borderopacity="1.0"
     inkscape:pageopacity="0.0"
     inkscape:pageshadow="2"
     inkscape:zoom="1.979899"
     inkscape:cx="117.43847"
     inkscape:cy="151.29002"
     inkscape:document-units="mm"
     inkscape:current-layer="layer1"
     inkscape:document-rotation="0"
     showgrid="false"
     units="px"
     inkscape:window-width="2560"
     inkscape:window-height="1377"
     inkscape:window-x="1912"
     inkscape:window-y="-8"
     inkscape:window-maximized="1" />
  <metadata
     id="metadata1370">
    <rdf:RDF>
      <cc:Work
         rdf:about="">
        <dc:format>image/svg+xml</dc:format>
        <dc:type
           rdf:resource="http://purl.org/dc/dcmitype/StillImage" />
        <dc:title></dc:title>
      </cc:Work>
    </rdf:RDF>
  </metadata>
  <g
     inkscape:label="Layer 1"
     inkscape:groupmode="layer"
     id="layer1">
    <g
       id="g2172"
       style="fill:none;stroke:#000000;stroke-opacity:1"
       transform="matrix(0.26458333,0,0,0.26458333,27.913541,27.91407)">
      <circle
         fill="#CAC5C0"
         cx="-55"
         cy="-55.001999"
         r="50"
         id="circle2170"
         style="fill:none;stroke:#000000;stroke-opacity:1" />
    </g>
    <path
       fill="#0d0f0f"
       d="M 9.6506763,5.2165232 V 18.296465 c 0,1.555486 0.6424077,2.332302 1.9264307,2.332302 h 0.338402 v 0.878681 H 4.9527343 v -0.878681 h 0.440267 c 1.328473,0 1.994164,-0.777081 1.994164,-2.332302 V 9.7123232 c 0,-1.577445 -0.564356,-2.36511 -1.690423,-2.36511 h -0.676539 v -0.878946 h 0.270669 c 1.351756,0 2.568839,-0.416454 3.649927,-1.251214 h 0.709877 z m 5.9819647,8.0435978 -0.337873,-0.26961 c -1.058863,-0.720725 -1.757627,-1.2954 -2.094442,-1.723231 -0.405606,-0.563827 -0.609335,-1.217084 -0.609335,-1.9610918 0,-1.239044 0.529166,-2.252662 1.588029,-3.041915 0.94615,-0.742685 2.074333,-1.115483 3.380581,-1.115483 1.217083,0 2.298171,0.316177 3.244321,0.94615 1.036637,0.722048 1.555485,1.679311 1.555485,2.872846 0,1.4425078 -0.991658,2.6032348 -2.974975,3.4819168 2.276475,1.10437 3.413654,2.64742 3.413654,4.630473 0,1.419225 -0.55192,2.545556 -1.656291,3.378993 -0.945621,0.744273 -2.151856,1.115219 -3.616854,1.115219 -1.396736,0 -2.590536,-0.34925 -3.582194,-1.048015 -1.148292,-0.787929 -1.723496,-1.835679 -1.723496,-3.142191 0,-1.329796 0.619125,-2.410884 1.859227,-3.245909 0.315383,-0.223308 0.833702,-0.516466 1.554163,-0.878152 z m 0.94615,0.372798 c -1.644386,0.765969 -2.466975,1.959504 -2.466975,3.582459 0,1.036902 0.338402,1.875895 1.013354,2.518039 0.677069,0.642409 1.521354,0.962819 2.536296,0.962819 0.94615,0 1.745191,-0.252942 2.39977,-0.760413 0.653257,-0.506147 0.979223,-1.210204 0.979223,-2.112433 0,-1.373717 -0.878945,-2.478087 -2.636573,-3.311525 z m 1.859227,-1.622689 c 1.464998,-0.653257 2.196306,-1.621367 2.196306,-2.9056538 0,-0.878682 -0.309033,-1.588559 -0.928158,-2.130425 -0.620184,-0.540544 -1.380861,-0.810155 -2.281502,-0.810155 -0.744273,0 -1.408113,0.213255 -1.994165,0.640821 -0.58711,0.429154 -0.878417,1.015206 -0.878417,1.757892 0,0.901964 0.416454,1.6226888 1.250157,2.1632328 0.179916,0.112713 0.923925,0.473075 2.230437,1.082411 z"
       id="path2174"
       style="stroke-width:0.264583" />
  </g>
</svg>
