<?xml version="1.0" encoding="UTF-8" standalone="no"?>
<svg
   xmlns:dc="http://purl.org/dc/elements/1.1/"
   xmlns:cc="http://creativecommons.org/ns#"
   xmlns:rdf="http://www.w3.org/1999/02/22-rdf-syntax-ns#"
   xmlns:svg="http://www.w3.org/2000/svg"
   xmlns="http://www.w3.org/2000/svg"
   xmlns:sodipodi="http://sodipodi.sourceforge.net/DTD/sodipodi-0.dtd"
   xmlns:inkscape="http://www.inkscape.org/namespaces/inkscape"
   width="101"
   height="101"
   viewBox="0 0 26.722918 26.722918"
   version="1.1"
   id="svg1373"
   inkscape:version="1.0.1 (3bc2e813f5, 2020-09-07)"
   sodipodi:docname="colourless_14.svg">
  <defs
     id="defs1367" />
  <sodipodi:namedview
     id="base"
     pagecolor="#ffffff"
     bordercolor="#666666"
     borderopacity="1.0"
     inkscape:pageopacity="0.0"
     inkscape:pageshadow="2"
     inkscape:zoom="1.979899"
     inkscape:cx="117.43847"
     inkscape:cy="151.29002"
     inkscape:document-units="mm"
     inkscape:current-layer="layer1"
     inkscape:document-rotation="0"
     showgrid="false"
     units="px"
     inkscape:window-width="2560"
     inkscape:window-height="1377"
     inkscape:window-x="1912"
     inkscape:window-y="-8"
     inkscape:window-maximized="1" />
  <metadata
     id="metadata1370">
    <rdf:RDF>
      <cc:Work
         rdf:about="">
        <dc:format>image/svg+xml</dc:format>
        <dc:type
           rdf:resource="http://purl.org/dc/dcmitype/StillImage" />
        <dc:title></dc:title>
      </cc:Work>
    </rdf:RDF>
  </metadata>
  <g
     inkscape:label="Layer 1"
     inkscape:groupmode="layer"
     id="layer1">
    <g
       id="g2196"
       style="fill:none;stroke:#000000;stroke-opacity:1"
       transform="matrix(0.26458333,0,0,0.26458333,139.03854,27.91407)">
      <circle
         fill="#CAC5C0"
         cx="-475"
         cy="-55.001999"
         r="50"
         id="circle2194"
         style="fill:none;stroke:#000000;stroke-opacity:1" />
    </g>
    <path
       fill="#0d0f0f"
       d="M 9.7387829,5.2845222 V 18.263128 c 0,1.531673 0.6421441,2.297641 1.9251091,2.297641 h 0.305329 v 0.878946 H 5.0736499 v -0.878946 h 0.440002 c 1.306513,0 1.959769,-0.765968 1.959769,-2.297641 V 9.7459262 c 0,-1.555485 -0.552979,-2.332567 -1.656027,-2.332567 h -0.67654 v -0.878416 h 0.270669 c 1.328473,0 2.534444,-0.416454 3.615531,-1.250157 z M 21.128302,16.843373 v 1.351757 c 0,1.509977 0.528108,2.265098 1.588294,2.265098 h 0.438679 v 0.877358 h -6.455304 v -0.877358 h 0.507471 c 1.059127,0 1.588558,-0.744273 1.588558,-2.230438 V 16.843373 H 12.3063 V 15.491617 L 19.167475,5.4866642 h 1.961092 V 15.693759 h 0.169068 c 0.653521,0 1.137444,-0.516731 1.452298,-1.553898 h 0.811213 L 23.15554,16.843638 Z M 19.336279,15.491617 V 6.9749452 l -5.745692,8.5166718 z"
       id="path2198"
       style="stroke-width:0.264583" />
  </g>
</svg>
