<?xml version="1.0" encoding="UTF-8" standalone="no"?>
<svg
   xmlns:dc="http://purl.org/dc/elements/1.1/"
   xmlns:cc="http://creativecommons.org/ns#"
   xmlns:rdf="http://www.w3.org/1999/02/22-rdf-syntax-ns#"
   xmlns:svg="http://www.w3.org/2000/svg"
   xmlns="http://www.w3.org/2000/svg"
   xmlns:sodipodi="http://sodipodi.sourceforge.net/DTD/sodipodi-0.dtd"
   xmlns:inkscape="http://www.inkscape.org/namespaces/inkscape"
   width="101"
   height="101"
   viewBox="0 0 26.722918 26.722918"
   version="1.1"
   id="svg1373"
   inkscape:version="1.0.1 (3bc2e813f5, 2020-09-07)"
   sodipodi:docname="colourless_7.svg">
  <defs
     id="defs1367" />
  <sodipodi:namedview
     id="base"
     pagecolor="#ffffff"
     bordercolor="#666666"
     borderopacity="1.0"
     inkscape:pageopacity="0.0"
     inkscape:pageshadow="2"
     inkscape:zoom="1.979899"
     inkscape:cx="117.43847"
     inkscape:cy="151.29002"
     inkscape:document-units="mm"
     inkscape:current-layer="layer1"
     inkscape:document-rotation="0"
     showgrid="false"
     units="px"
     inkscape:window-width="2560"
     inkscape:window-height="1377"
     inkscape:window-x="1912"
     inkscape:window-y="-8"
     inkscape:window-maximized="1" />
  <metadata
     id="metadata1370">
    <rdf:RDF>
      <cc:Work
         rdf:about="">
        <dc:format>image/svg+xml</dc:format>
        <dc:type
           rdf:resource="http://purl.org/dc/dcmitype/StillImage" />
        <dc:title></dc:title>
      </cc:Work>
    </rdf:RDF>
  </metadata>
  <g
     inkscape:label="Layer 1"
     inkscape:groupmode="layer"
     id="layer1">
    <g
       id="g2148"
       style="fill:none;stroke:#000000;stroke-opacity:1"
       transform="matrix(0.26458333,0,0,0.26458333,55.694791,55.69532)">
      <circle
         fill="#CAC5C0"
         cx="-160"
         cy="-160.002"
         r="50"
         id="circle2146"
         style="fill:none;stroke:#000000;stroke-opacity:1" />
    </g>
    <path
       fill="#0d0f0f"
       d="m 14.285911,23.94532 h -3.080543 v -0.327555 c 0,-1.956858 0.61595,-4.407693 1.846791,-7.357533 1.861344,-4.444736 3.577167,-7.8509818 5.14694,-10.2192672 l 0.217487,-0.3259667 h -7.211483 c -1.039812,0 -1.830916,0.2166938 -2.374635,0.6516688 C 8.285691,6.8019065 7.88273,7.527394 7.617089,8.5420711 H 6.421172 L 7.724509,2.7789169 h 0.762265 c 0.458788,0.2418292 1.254654,0.3627437 2.392098,0.3627437 h 9.421548 v 1.6311563 c -0.337344,0.4839229 -0.772054,1.2567708 -1.303338,2.3198667 -1.015471,1.9804062 -1.945216,4.2883664 -2.792148,6.9222944 -1.254918,3.889904 -1.89521,7.199048 -1.919023,9.930342 z"
       id="path2150"
       style="stroke-width:0.264583" />
  </g>
</svg>
