<?xml version="1.0" encoding="UTF-8" standalone="no"?>
<svg
   xmlns:dc="http://purl.org/dc/elements/1.1/"
   xmlns:cc="http://creativecommons.org/ns#"
   xmlns:rdf="http://www.w3.org/1999/02/22-rdf-syntax-ns#"
   xmlns:svg="http://www.w3.org/2000/svg"
   xmlns="http://www.w3.org/2000/svg"
   xmlns:sodipodi="http://sodipodi.sourceforge.net/DTD/sodipodi-0.dtd"
   xmlns:inkscape="http://www.inkscape.org/namespaces/inkscape"
   width="509"
   height="101"
   viewBox="0 0 134.67292 26.722918"
   version="1.1"
   id="svg1373"
   inkscape:version="1.0.1 (3bc2e813f5, 2020-09-07)"
   sodipodi:docname="colourless_1000000.svg">
  <defs
     id="defs1367" />
  <sodipodi:namedview
     id="base"
     pagecolor="#ffffff"
     bordercolor="#666666"
     borderopacity="1.0"
     inkscape:pageopacity="0.0"
     inkscape:pageshadow="2"
     inkscape:zoom="1.979899"
     inkscape:cx="117.43847"
     inkscape:cy="151.29002"
     inkscape:document-units="mm"
     inkscape:current-layer="layer1"
     inkscape:document-rotation="0"
     showgrid="false"
     units="px"
     inkscape:window-width="2560"
     inkscape:window-height="1377"
     inkscape:window-x="1912"
     inkscape:window-y="-8"
     inkscape:window-maximized="1" />
  <metadata
     id="metadata1370">
    <rdf:RDF>
      <cc:Work
         rdf:about="">
        <dc:format>image/svg+xml</dc:format>
        <dc:type
           rdf:resource="http://purl.org/dc/dcmitype/StillImage" />
        <dc:title></dc:title>
      </cc:Work>
    </rdf:RDF>
  </metadata>
  <g
     inkscape:label="Layer 1"
     inkscape:groupmode="layer"
     id="layer1">
    <path
       
       d="M 121.31146,0.1322915 H 13.361457 13.360928 c -7.3059385,0 -13.2286365,5.922698 -13.2286365,13.2286365 0,7.306469 5.922698,13.229696 13.2286365,13.229696 h 5.29e-4 107.950003 c 7.30594,0 13.22916,-5.923227 13.22916,-13.229696 0,-7.3059385 -5.92322,-13.2286365 -13.22916,-13.2286365 z"
       id="path2494"
       style="fill:none;stroke:#000000;stroke-width:0.264583;stroke-opacity:1" />
    <g
       id="g2498"
       transform="matrix(0.26458333,0,0,0.26458333,250.16354,-110.99271)">
      <path
         fill="#0d0f0f"
         d="m -860.859,505.529 v -2.619 c 6.889,-0.75 10.33,-3.271 10.33,-7.564 0,-2.543 -0.973,-3.889 -2.918,-4.041 l -0.973,-0.074 c -2.797,-0.197 -4.195,-1.572 -4.195,-4.117 0,-1.445 0.438,-2.584 1.311,-3.406 0.875,-0.82 2.035,-1.234 3.482,-1.234 2.445,0 4.367,1.225 5.766,3.67 1.197,2.047 1.795,4.393 1.795,7.037 0,4.143 -1.447,7.287 -4.342,9.432 -2.547,1.842 -5.965,2.817 -10.256,2.916 z"
         id="path2496" />
    </g>
    <g
       id="g2502"
       transform="matrix(0.26458333,0,0,0.26458333,250.16354,-110.99271)">
      <path
         fill="#0d0f0f"
         d="m -658.385,505.529 v -2.619 c 6.887,-0.75 10.33,-3.271 10.33,-7.564 0,-2.543 -0.971,-3.889 -2.92,-4.041 l -0.971,-0.074 c -2.795,-0.197 -4.193,-1.572 -4.193,-4.117 0,-1.445 0.438,-2.584 1.309,-3.406 0.875,-0.82 2.035,-1.234 3.482,-1.234 2.447,0 4.369,1.225 5.768,3.67 1.195,2.047 1.793,4.393 1.793,7.037 0,4.143 -1.447,7.287 -4.34,9.432 -2.547,1.842 -5.965,2.817 -10.258,2.916 z"
         id="path2500" />
    </g>
    <path
       fill="#0d0f0f"
       d="m 114.04309,13.458559 c 0,-2.524918 0.53578,-4.8535155 1.60867,-6.9839405 1.32847,-2.640542 3.14854,-3.961077 5.45703,-3.961077 2.28415,0 4.0685,1.123421 5.3512,3.369204 1.07182,1.853671 1.60866,4.008437 1.60866,6.4627115 0,2.54979 -0.53684,4.853517 -1.60866,6.915415 -1.30652,2.59371 -3.12553,3.890169 -5.45704,3.890169 -2.21535,0 -3.97483,-1.110986 -5.28134,-3.334809 -1.11866,-1.898914 -1.67852,-4.017698 -1.67852,-6.357673 z m 2.9374,-1.146704 c 0,3.334809 0.50139,5.929313 1.50522,7.782454 0.69876,1.296459 1.59623,1.945746 2.6924,1.945746 2.63498,0 3.95261,-2.710391 3.95261,-8.130381 0,-2.385483 -0.20929,-4.4013435 -0.62839,-6.0457285 -0.72337,-2.709863 -1.94759,-4.065323 -3.67427,-4.065323 -2.56566,0 -3.84783,2.618317 -3.84783,7.8528325 z"
       id="path2504"
       style="stroke-width:0.264583" />
    <path
       fill="#0d0f0f"
       d="m 97.903505,13.458559 c 0,-2.524918 0.535252,-4.8535155 1.608138,-6.9839405 1.329007,-2.640542 3.149067,-3.961077 5.457027,-3.961077 2.28415,0 4.06903,1.123421 5.35173,3.369204 1.07183,1.853671 1.60814,4.008437 1.60814,6.4627115 0,2.54979 -0.53631,4.853517 -1.60814,6.915415 -1.30651,2.59371 -3.12552,3.890169 -5.45703,3.890169 -2.21588,0 -3.97483,-1.110986 -5.281348,-3.334809 -1.119188,-1.898914 -1.678517,-4.017698 -1.678517,-6.357673 z m 2.937405,-1.146704 c 0,3.334809 0.50139,5.929313 1.50495,7.782454 0.69876,1.296459 1.59676,1.945746 2.6924,1.945746 2.63551,0 3.95314,-2.710391 3.95314,-8.130381 0,-2.385483 -0.20981,-4.4013435 -0.62839,-6.0457285 -0.72337,-2.709863 -1.94812,-4.065323 -3.67426,-4.065323 -2.5662,0 -3.84784,2.618317 -3.84784,7.8528325 z"
       id="path2506"
       style="stroke-width:0.264583" />
    <path
       fill="#0d0f0f"
       d="m 81.680314,13.458559 c 0,-2.524918 0.53631,-4.8535155 1.609195,-6.9839405 1.328209,-2.640542 3.148013,-3.961077 5.457032,-3.961077 2.284148,0 4.067968,1.123421 5.350668,3.369204 1.071827,1.853671 1.609196,4.008437 1.609196,6.4627115 0,2.54979 -0.537369,4.853517 -1.609196,6.915415 -1.306512,2.59371 -3.125523,3.890169 -5.457031,3.890169 -2.214827,0 -3.974835,-1.110986 -5.281348,-3.334809 -1.118394,-1.898914 -1.678516,-4.017698 -1.678516,-6.357673 z m 2.937139,-1.146704 c 0,3.334809 0.501386,5.929313 1.505744,7.782454 0.698764,1.296459 1.595702,1.945746 2.6924,1.945746 2.634456,0 3.952346,-2.710391 3.952346,-8.130381 0,-2.385483 -0.208757,-4.4013435 -0.628386,-6.0457285 -0.723371,-2.709863 -1.947068,-4.065323 -3.674268,-4.065323 -2.565136,0 -3.847836,2.618317 -3.847836,7.8528325 z"
       id="path2508"
       style="stroke-width:0.264583" />
    <path
       fill="#0d0f0f"
       d="m 60.15593,13.458559 c 0,-2.524918 0.536311,-4.8535155 1.609196,-6.9839405 1.328208,-2.640542 3.148013,-3.961077 5.457031,-3.961077 2.284148,0 4.067969,1.123421 5.350669,3.369204 1.071827,1.853671 1.609196,4.008437 1.609196,6.4627115 0,2.54979 -0.537369,4.853517 -1.609196,6.915415 -1.306248,2.59371 -3.125258,3.890169 -5.457031,3.890169 -2.214827,0 -3.974836,-1.110986 -5.281348,-3.334809 -1.118129,-1.898914 -1.678517,-4.017698 -1.678517,-6.357673 z m 2.937404,-1.146704 c 0,3.334809 0.501386,5.929313 1.505744,7.782454 0.698765,1.296459 1.595702,1.945746 2.6924,1.945746 2.634456,0 3.952346,-2.710391 3.952346,-8.130381 0,-2.385483 -0.208756,-4.4013435 -0.628385,-6.0457285 -0.723371,-2.709863 -1.947069,-4.065323 -3.674269,-4.065323 -2.565136,0 -3.847836,2.618317 -3.847836,7.8528325 z"
       id="path2510"
       style="stroke-width:0.264583" />
    <path
       fill="#0d0f0f"
       d="m 44.016348,13.458559 c 0,-2.524918 0.535781,-4.8535155 1.608667,-6.9839405 1.328471,-2.640542 3.14854,-3.961077 5.45703,-3.961077 2.284148,0 4.068498,1.123421 5.351198,3.369204 1.071827,1.853671 1.608137,4.008437 1.608137,6.4627115 0,2.54979 -0.53631,4.853517 -1.608137,6.915415 -1.306248,2.59371 -3.125259,3.890169 -5.457032,3.890169 -2.215356,0 -3.974835,-1.110986 -5.281347,-3.334809 -1.118658,-1.898914 -1.678516,-4.017698 -1.678516,-6.357673 z m 2.937403,-1.146704 c 0,3.334809 0.501385,5.929313 1.505215,7.782454 0.698764,1.296459 1.596231,1.945746 2.6924,1.945746 2.634985,0 3.95261,-2.710391 3.95261,-8.130381 0,-2.385483 -0.209285,-4.4013435 -0.628385,-6.0457285 -0.723371,-2.709863 -1.947598,-4.065323 -3.674269,-4.065323 -2.565665,0 -3.847836,2.618317 -3.847836,7.8528325 z"
       id="path2512"
       style="stroke-width:0.264583" />
    <path
       fill="#0d0f0f"
       d="m 27.793685,13.458559 c 0,-2.524918 0.535782,-4.8535155 1.608667,-6.9839405 1.328473,-2.640542 3.148542,-3.961077 5.457031,-3.961077 2.284148,0 4.068498,1.123421 5.351198,3.369204 1.071827,1.853671 1.608667,4.008437 1.608667,6.4627115 0,2.54979 -0.53684,4.853517 -1.608667,6.915415 -1.306512,2.59371 -3.125523,3.890169 -5.457031,3.890169 -2.215356,0 -3.974835,-1.110986 -5.281348,-3.334809 -1.118923,-1.898914 -1.678517,-4.017698 -1.678517,-6.357673 z m 2.93714,-1.146704 c 0,3.334809 0.501385,5.929313 1.505215,7.782454 0.698764,1.296459 1.596231,1.945746 2.6924,1.945746 2.634985,0 3.95261,-2.710391 3.95261,-8.130381 0,-2.385483 -0.209285,-4.4013435 -0.628385,-6.0457285 -0.723371,-2.709863 -1.947598,-4.065323 -3.674269,-4.065323 -2.565665,0 -3.847836,2.618317 -3.847836,7.8528325 z"
       id="path2514"
       style="stroke-width:0.264583" />
    <path
       fill="#0d0f0f"
       d="M 16.481689,2.5140705 V 19.052116 c 0,1.978818 0.853281,2.967302 2.562754,2.967302 h 0.445558 v 1.132152 h -9.024673 v -1.132152 h 0.566473 c 1.652588,0 2.478352,-0.988484 2.478352,-2.967302 V 8.2031415 c 0,-2.001044 -0.713052,-3.00355 -2.137833,-3.00355 h -0.906992 v -1.09564 h 0.327025 c 1.762125,0 3.357827,-0.530754 4.783667,-1.590675 h 0.905669 z"
       id="path2516"
       style="stroke-width:0.264583" />
  </g>
</svg>
