<?xml version="1.0" encoding="UTF-8" standalone="no"?>
<svg
   xmlns:dc="http://purl.org/dc/elements/1.1/"
   xmlns:cc="http://creativecommons.org/ns#"
   xmlns:rdf="http://www.w3.org/1999/02/22-rdf-syntax-ns#"
   xmlns:svg="http://www.w3.org/2000/svg"
   xmlns="http://www.w3.org/2000/svg"
   xmlns:sodipodi="http://sodipodi.sourceforge.net/DTD/sodipodi-0.dtd"
   xmlns:inkscape="http://www.inkscape.org/namespaces/inkscape"
   width="101"
   height="101"
   viewBox="0 0 26.722918 26.722918"
   version="1.1"
   id="svg1373"
   inkscape:version="1.0.1 (3bc2e813f5, 2020-09-07)"
   sodipodi:docname="colourless_20.svg">
  <defs
     id="defs1367" />
  <sodipodi:namedview
     id="base"
     pagecolor="#ffffff"
     bordercolor="#666666"
     borderopacity="1.0"
     inkscape:pageopacity="0.0"
     inkscape:pageshadow="2"
     inkscape:zoom="1.979899"
     inkscape:cx="117.43847"
     inkscape:cy="151.29002"
     inkscape:document-units="mm"
     inkscape:current-layer="layer1"
     inkscape:document-rotation="0"
     showgrid="false"
     units="px"
     inkscape:window-width="2560"
     inkscape:window-height="1377"
     inkscape:window-x="1912"
     inkscape:window-y="-8"
     inkscape:window-maximized="1" />
  <metadata
     id="metadata1370">
    <rdf:RDF>
      <cc:Work
         rdf:about="">
        <dc:format>image/svg+xml</dc:format>
        <dc:type
           rdf:resource="http://purl.org/dc/dcmitype/StillImage" />
        <dc:title></dc:title>
      </cc:Work>
    </rdf:RDF>
  </metadata>
  <g
     inkscape:label="Layer 1"
     inkscape:groupmode="layer"
     id="layer1">
    <g
       id="g2226"
       style="fill:none;stroke:#000000;stroke-opacity:1;stroke-width:4"
       transform="matrix(0.26458333,0,0,0.26458333,250.16354,0.13282054)">
      <circle
         
         cx="-895"
         cy="49.998001"
         r="50"
         id="circle2224"
         style="fill:none;stroke:#000000;stroke-opacity:1;stroke-width:4" />
    </g>
    <path
       fill="#0d0f0f"
       d="m 14.219767,16.871949 -1.182952,3.954198 H 3.3025283 v -0.811741 c 0.4733395,-0.540015 1.5213541,-1.610254 3.1440437,-3.209661 0.94615,-0.968375 1.8923,-1.983316 2.8387146,-3.042179 0.4950349,-0.540279 0.8567214,-1.002506 1.0821464,-1.386417 0.584465,-0.811212 0.877359,-1.655762 0.877359,-2.5341795 0,-0.811212 -0.264055,-1.538022 -0.793221,-2.179637 -0.5296965,-0.642408 -1.2009448,-0.962819 -2.0108344,-0.962819 -1.7576271,0 -3.1326667,1.1938 -4.124325,3.5827235 L 3.4043928,9.9438345 c 1.1938,-3.357298 3.0644042,-5.035815 5.6099605,-5.035815 1.2623277,0 2.3378587,0.427303 3.2276527,1.284288 0.890852,0.856721 1.335352,1.915583 1.335352,3.176587 0,1.6009945 -0.935302,3.1657405 -2.805641,4.6979425 L 8.8794158,15.655395 C 7.6623324,16.692562 6.6598262,17.64956 5.871897,18.527977 5.804164,18.573487 5.6914512,18.708422 5.5334949,18.934112 h 5.0704761 c 0.788194,0 1.384829,-0.169863 1.7907,-0.507471 0.338402,-0.270139 0.676539,-0.788458 1.013354,-1.554427 h 0.811742 z m -0.134938,-3.54912 c 0,-1.960034 0.405606,-3.7740175 1.217083,-5.4406275 1.058863,-2.072746 2.4892,-3.109913 4.292336,-3.109913 1.734344,0 3.120231,0.889794 4.157398,2.669646 0.809889,1.442773 1.215496,3.1093835 1.215496,5.0016835 0,1.983052 -0.405607,3.786452 -1.215496,5.409142 -1.06045,2.026444 -2.47994,3.040327 -4.259263,3.040327 -1.712118,0 -3.087687,-0.866246 -4.123266,-2.602442 -0.856721,-1.464204 -1.284288,-3.119966 -1.284288,-4.967816 z M 16.383,12.410545 c 0,1.690423 0.179917,3.2004 0.540544,4.528609 0.540014,2.074333 1.442243,3.109912 2.703777,3.109912 2.049991,0 3.07631,-2.129102 3.07631,-6.388629 0,-5.2726175 -1.115748,-7.9086605 -3.345921,-7.9086605 -1.983316,0 -2.974445,2.049991 -2.974445,6.1510335 z"
       id="path2228"
       style="stroke-width:0.264583" />
  </g>
</svg>
