<?xml version="1.0" encoding="UTF-8" standalone="no"?>
<svg
   xmlns:dc="http://purl.org/dc/elements/1.1/"
   xmlns:cc="http://creativecommons.org/ns#"
   xmlns:rdf="http://www.w3.org/1999/02/22-rdf-syntax-ns#"
   xmlns:svg="http://www.w3.org/2000/svg"
   xmlns="http://www.w3.org/2000/svg"
   xmlns:sodipodi="http://sodipodi.sourceforge.net/DTD/sodipodi-0.dtd"
   xmlns:inkscape="http://www.inkscape.org/namespaces/inkscape"
   version="1.1"
   id="svg4136"
   sodipodi:docname="energy.svg"
   inkscape:version="1.0.1 (3bc2e813f5, 2020-09-07)"
   x="0px"
   y="0px"
   width="102"
   height="102"
   viewBox="0 0 102 102"
   enable-background="new 0 0 480 486.75"
   xml:space="preserve"><metadata
   id="metadata838"><rdf:RDF><cc:Work
       rdf:about=""><dc:format>image/svg+xml</dc:format><dc:type
         rdf:resource="http://purl.org/dc/dcmitype/StillImage" /><dc:title></dc:title></cc:Work></rdf:RDF></metadata><defs
   id="defs836" />
<sodipodi:namedview
   id="namedview4138"
   inkscape:current-layer="svg4136"
   inkscape:window-maximized="1"
   inkscape:window-y="-8"
   inkscape:window-x="1912"
   inkscape:pageshadow="2"
   inkscape:pageopacity="0"
   inkscape:window-height="1377"
   inkscape:window-width="2560"
   inkscape:cx="138.81244"
   inkscape:cy="69.075628"
   objecttolerance="10"
   gridtolerance="10"
   guidetolerance="10"
   showgrid="false"
   inkscape:zoom="5.2100668"
   bordercolor="#666666"
   pagecolor="#ffffff"
   borderopacity="1"
   inkscape:document-rotation="0">
	</sodipodi:namedview>
<path
   id="path4182"
   inkscape:connector-curvature="0"
   d="M 49.67706,101.47835 C 49.118287,100.88001 48.972784,99.76058 48.506128,99.03767 47.95238,98.179517 47.273226,97.412433 46.685352,96.579404 45.914919,95.487189 45.035412,94.473275 44.256606,93.384202 42.924678,91.521554 41.412075,89.902599 39.818032,88.26166 35.90662,84.234892 31.821443,80.511483 27.178957,77.333447 19.986297,72.409378 12.362571,68.09956 4.1876096,65.031437 c -0.5671474,-0.212916 0,0 -3.6876096,-1.802353 0.6961112,-1.117965 4.9891804,-7.203336 5.9955583,-8.818105 1.6807159,-2.696724 2.8891227,-5.645095 4.1414957,-8.555573 1.59446,-3.705615 3.022692,-7.498949 4.165989,-11.367234 1.460473,-4.941656 2.687093,-9.954702 3.633176,-15.020717 C 18.69959,18.057437 20.267463,6.1119605 21.202869,0 c 8.20511,2.3655218 5.390727,1.652034 7.25128,2.1322984 5.154572,1.3308807 10.562257,1.5936235 15.852911,2.0008223 3.015575,0.2321767 6.003933,0.2091475 9.024113,0.1626702 C 57.821456,4.2267031 62.32095,4.0144155 66.772503,3.3970224 68.988545,3.0896868 71.195583,2.6711826 73.362635,2.114503 75.077684,1.6740164 76.182669,1.4259288 79.859393,0 c 0.405524,1.5770843 4.584494,30.353587 10.209072,43.584932 2.224206,5.232244 8.934095,16.722579 11.042525,19.316091 -2.998202,1.12257 -15.059662,6.666128 -21.322778,10.390165 -7.692395,4.574026 -14.96482,10.179553 -20.968334,16.841912 -2.833015,3.144538 -5.056384,6.826286 -7.34549,10.3709 -0.893116,1.3826 -1.237717,1.57039 -1.797328,0.97435 z m 2.4053,-11.494521 c 1.596345,-8.362128 6.201774,-19.002474 13.388991,-30.932458 2.424561,-4.024465 7.035014,-10.931352 9.832857,-14.730969 1.73494,-2.356099 2.291411,-3.224721 2.291411,-3.577069 0,-0.262534 -0.09966,-0.503502 -0.228828,-0.55312 -0.126032,-0.04835 -1.238763,0.09568 -2.473131,0.320106 -7.577039,1.377149 -15.287438,1.835012 -21.280693,1.263677 -2.712426,-0.258555 -4.698384,-0.584942 -4.922814,-0.809163 -0.158903,-0.158901 0.454723,-4.038491 0.954456,-6.03408 2.090428,-8.349357 6.972418,-17.12245 13.209364,-23.737704 0.960739,-1.018729 1.707514,-1.8913292 1.660199,-1.9386438 -0.04773,-0.047524 -0.638957,0.090651 -1.314132,0.3071264 -7.914732,2.5365664 -16.714414,2.7915624 -23.050178,0.6680574 -0.86527,-0.2901685 -1.596344,-0.5053871 -1.625026,-0.4787994 -0.02846,0.026801 0.03454,0.8849514 0.14006,1.9072404 0.993607,9.619941 -3.574557,22.230964 -13.157862,36.323812 -1.441211,2.119529 -4.260828,5.909513 -5.898835,7.929387 -0.66073,0.814607 -0.942734,1.273727 -0.802674,1.306177 0.118706,0.02763 1.330253,-0.233642 2.692328,-0.580337 3.887754,-0.98963 7.140111,-1.597183 11.583499,-2.163074 3.399325,-0.43295 11.771292,-0.393591 14.681141,0.06909 1.892585,0.300847 4.511428,0.881183 4.66384,1.033804 0.0314,0.0314 -0.0446,0.366793 -0.168742,0.74552 -0.658427,2.006056 -1.504438,5.995348 -1.894469,8.931577 -0.749706,5.64342 -0.749079,14.727828 0.0012,21.432896 0.294983,2.637057 0.817957,6.019635 0.968065,6.262487 0.127917,0.206427 0.194492,-0.05695 0.749917,-2.965537 z"
   style="stroke-width:0.209357" />
</svg>
