<?xml version="1.0" encoding="UTF-8" standalone="no"?>
<svg
   xmlns:dc="http://purl.org/dc/elements/1.1/"
   xmlns:cc="http://creativecommons.org/ns#"
   xmlns:rdf="http://www.w3.org/1999/02/22-rdf-syntax-ns#"
   xmlns:svg="http://www.w3.org/2000/svg"
   xmlns="http://www.w3.org/2000/svg"
   xmlns:sodipodi="http://sodipodi.sourceforge.net/DTD/sodipodi-0.dtd"
   xmlns:inkscape="http://www.inkscape.org/namespaces/inkscape"
   width="101"
   height="101"
   viewBox="0 0 26.722918 26.722918"
   version="1.1"
   id="svg1373"
   inkscape:version="1.0.1 (3bc2e813f5, 2020-09-07)"
   sodipodi:docname="mana_hybrid_2u.svg">
  <defs
     id="defs1367" />
  <sodipodi:namedview
     id="base"
     pagecolor="#ffffff"
     bordercolor="#666666"
     borderopacity="1.0"
     inkscape:pageopacity="0.0"
     inkscape:pageshadow="2"
     inkscape:zoom="1.979899"
     inkscape:cx="117.43847"
     inkscape:cy="151.29002"
     inkscape:document-units="mm"
     inkscape:current-layer="layer1"
     inkscape:document-rotation="0"
     showgrid="false"
     units="px"
     inkscape:window-width="2560"
     inkscape:window-height="1377"
     inkscape:window-x="1912"
     inkscape:window-y="-8"
     inkscape:window-maximized="1" />
  <metadata
     id="metadata1370">
    <rdf:RDF>
      <cc:Work
         rdf:about="">
        <dc:format>image/svg+xml</dc:format>
        <dc:type
           rdf:resource="http://purl.org/dc/dcmitype/StillImage" />
        <dc:title></dc:title>
      </cc:Work>
    </rdf:RDF>
  </metadata>
  <g
     inkscape:label="Layer 1"
     inkscape:groupmode="layer"
     id="layer1">
    <g
       id="g2382"
       style="fill:none;stroke:#000000;stroke-opacity:1"
       transform="matrix(0.26458333,0,0,0.26458333,222.38229,-55.430472)">
      <path
         fill="#c1d7e9"
         d="m -754.651,224.637 c 9.052,9.051 14.651,21.551 14.651,35.36 0,27.616 -22.386,50.003 -50.001,50.003 -13.806,0 -26.305,-5.596 -35.354,-14.646"
         id="path2378"
         style="fill:none;stroke:#000000;stroke-opacity:1" />
      <path
         fill="#cac5c0"
         d="m -754.651,224.638 c -9.048,-9.044 -21.546,-14.637 -35.35,-14.637 -27.613,0 -49.999,22.384 -49.999,49.997 0,13.807 5.597,26.309 14.646,35.356 z"
         id="path2380"
         style="fill:none;stroke:#000000;stroke-opacity:1" />
    </g>
    <path
       fill="#0d0f0f"
       d="m 20.431653,22.271038 c -0.712258,0.724694 -1.589617,1.086909 -2.63181,1.086909 -1.169988,0 -2.097882,-0.400579 -2.784475,-1.201209 -0.648759,-0.763058 -0.972609,-1.735137 -0.972609,-2.917825 0,-1.271058 0.55298,-2.720181 1.659202,-4.348162 0.90223,-1.335352 1.964003,-2.50481 3.18479,-3.509433 -0.178065,0.813858 -0.267229,1.392237 -0.267229,1.735931 0,0.788458 0.247914,1.557337 0.743744,2.307431 0.610393,0.890323 1.074473,1.551517 1.392237,1.983317 0.495829,0.750094 0.743744,1.481666 0.743744,2.193131 2.64e-4,1.055688 -0.3556,1.945746 -1.067594,2.66991 z m -0.01905,-4.071408 c -0.190764,-0.425714 -0.413279,-0.709083 -0.667544,-0.848783 0.03837,0.0762 0.05689,0.184679 0.05689,0.324379 0,0.267229 -0.07594,0.649023 -0.228336,1.144058 l -0.248179,0.763323 c 0,0.4445 0.221986,0.667279 0.667279,0.667279 0.470165,0 0.705909,-0.311414 0.705909,-0.934508 0,-0.317764 -0.09525,-0.690033 -0.286015,-1.115748 z"
       id="path2384"
       style="stroke-width:0.264583" />
    <path
       fill="#0d0f0f"
       d="m 11.680295,11.136843 -0.758296,2.559843 H 4.6193597 V 13.149528 C 4.9254826,12.80848 5.5962014,12.120563 6.6320451,11.084455 7.255668,10.460832 7.8734701,9.8009608 8.4854514,9.1064298 8.7915743,8.7659108 9.027318,8.4711658 9.1910949,8.2240448 c 0.364861,-0.529167 0.547688,-1.07024 0.547688,-1.624277 0,-0.541073 -0.167481,-1.017588 -0.502973,-1.429279 -0.3352273,-0.412486 -0.7680856,-0.618596 -1.2977814,-0.618596 -1.141148,0 -2.0357042,0.77126 -2.682875,2.312987 L 4.6897389,6.6529488 c 0.7649104,-2.165615 1.9706166,-3.248025 3.6189708,-3.248025 0.8120062,0 1.5033622,0.276225 2.0740683,0.829469 0.571236,0.553243 0.856192,1.235604 0.856192,2.047875 0,1.035843 -0.59399,2.04761 -1.7827621,3.036887 L 8.2211326,10.342034 C 7.4324097,11.001376 6.7783597,11.619178 6.2616285,12.19597 6.2256455,12.23169 6.155266,12.313974 6.0494326,12.44362 h 3.2834793 c 0.505883,0 0.8887351,-0.09975 1.1469681,-0.300302 0.223573,-0.176742 0.441854,-0.512498 0.653521,-1.006211 z"
       id="path2386"
       style="stroke-width:0.264583" />
  </g>
</svg>
