<?xml version="1.0" encoding="UTF-8" standalone="no"?>
<svg
   xmlns:dc="http://purl.org/dc/elements/1.1/"
   xmlns:cc="http://creativecommons.org/ns#"
   xmlns:rdf="http://www.w3.org/1999/02/22-rdf-syntax-ns#"
   xmlns:svg="http://www.w3.org/2000/svg"
   xmlns="http://www.w3.org/2000/svg"
   xmlns:sodipodi="http://sodipodi.sourceforge.net/DTD/sodipodi-0.dtd"
   xmlns:inkscape="http://www.inkscape.org/namespaces/inkscape"
   width="101"
   height="101"
   viewBox="0 0 26.722918 26.722918"
   version="1.1"
   id="svg1373"
   inkscape:version="1.0.1 (3bc2e813f5, 2020-09-07)"
   sodipodi:docname="mana_hybrid_pp.svg">
  <defs
     id="defs1367" />
  <sodipodi:namedview
     id="base"
     pagecolor="#ffffff"
     bordercolor="#666666"
     borderopacity="1.0"
     inkscape:pageopacity="0.0"
     inkscape:pageshadow="2"
     inkscape:zoom="1.979899"
     inkscape:cx="117.43847"
     inkscape:cy="151.29002"
     inkscape:document-units="mm"
     inkscape:current-layer="layer1"
     inkscape:document-rotation="0"
     showgrid="false"
     units="px"
     inkscape:window-width="2560"
     inkscape:window-height="1377"
     inkscape:window-x="1912"
     inkscape:window-y="-8"
     inkscape:window-maximized="1" />
  <metadata
     id="metadata1370">
    <rdf:RDF>
      <cc:Work
         rdf:about="">
        <dc:format>image/svg+xml</dc:format>
        <dc:type
           rdf:resource="http://purl.org/dc/dcmitype/StillImage" />
        <dc:title></dc:title>
      </cc:Work>
    </rdf:RDF>
  </metadata>
  <g
     inkscape:label="Layer 1"
     inkscape:groupmode="layer"
     id="layer1">
    <g
       id="g1339"
       style="fill:none;stroke:#000000;stroke-opacity:1"
       transform="matrix(0.26458333,0,0,0.26458333,250.16354,-27.649223)">
      <path
         fill="#c1d7e9"
         d="m -859.651,119.637 c 9.052,9.051 14.651,21.551 14.651,35.36 0,27.616 -22.387,50.003 -50.001,50.003 -13.806,0 -26.305,-5.596 -35.354,-14.646"
         id="path1335"
         style="fill:none;stroke:#000000;stroke-opacity:1" />
      <path
         fill="#f8f6d8"
         d="m -859.651,119.638 c -9.048,-9.043 -21.546,-14.637 -35.35,-14.637 -27.613,0 -49.999,22.384 -49.999,49.997 0,13.807 5.597,26.309 14.646,35.356 z"
         id="path1337"
         style="fill:none;stroke:#000000;stroke-opacity:1" />
    </g>
    <path
       fill="#111212"
       d="m 22.83678,16.998794 c 0.0085,-0.765434 -0.234756,-1.538031 -0.711432,-2.138177 -0.230175,-0.253519 -0.419817,-0.542417 -0.663597,-0.782191 -0.537839,-0.533543 -1.342808,-0.569063 -1.990362,-0.905229 -0.03781,-0.337601 -0.161134,-0.675344 -0.08651,-1.01609 0.02275,-0.1133 0.05629,-0.228029 -0.0042,-0.336312 -0.170018,-0.391311 -0.02379,-0.816282 -0.054,-1.224209 -0.02265,-0.21313 -0.0083,-0.473958 -0.211412,-0.6057276 -0.04726,0.4437316 -0.210408,0.8565266 -0.342612,1.2773436 -0.06102,0.328147 -0.06102,0.669756 -0.202388,0.979138 0.08981,0.313537 -0.0878,0.577371 -0.280019,0.808691 -0.425114,0.217713 -0.930436,0.26942 -1.300263,0.588545 -0.263549,0.223872 -0.548299,0.419957 -0.843214,0.602004 -0.221292,0.277013 -0.466365,0.543856 -0.565049,0.893773 -0.39561,0.477535 -0.442304,1.118788 -0.666607,1.678254 -0.0042,0.830607 0.164145,1.724951 0.694679,2.390696 0.379566,0.313394 0.644832,0.734928 1.023972,1.048176 0.36395,0.217427 0.752255,0.395896 1.127953,0.591119 0.244787,0.05729 0.497734,0.08537 0.741373,0.151971 0.19752,1.018239 0.332584,2.060975 0.72934,3.026934 0.131487,-0.396467 0.115589,-0.821581 0.229172,-1.222203 0.160276,-0.592267 -0.168439,-1.208741 0.01675,-1.790409 0.277582,-0.248079 0.74051,-0.08694 1.048461,-0.299929 0.586108,-0.361376 1.206305,-0.713295 1.631562,-1.266177 0.158273,-0.31783 0.490717,-0.55531 0.490717,-0.936596 0.0028,-0.513199 0.302077,-0.994177 0.187632,-1.513395 z m -4.350403,3.141377 c -0.424683,-0.10327 -0.82029,-0.306375 -1.176367,-0.554451 -0.383291,-0.255386 -0.526237,-0.731779 -0.904369,-0.993177 -0.354217,-0.422391 -0.277588,-0.999762 -0.42268,-1.500362 0.05815,-0.349345 0.126759,-0.695679 0.163142,-1.049321 0.172596,-0.28002 0.43915,-0.50332 0.513059,-0.840629 0.253378,-0.36281 0.638672,-0.613754 0.948055,-0.928148 0.225163,-0.259681 0.58353,-0.149966 0.879305,-0.160279 -0.02923,0.286464 -0.05242,0.582956 0.01921,0.865269 0.03495,0.173741 0.1133,0.344903 0.08652,0.526524 -0.0593,0.386582 0.08565,0.774599 -0.01675,1.156745 -0.206684,0.798666 0.01876,1.605494 0.03839,2.410888 -0.02951,0.356365 -0.04627,0.715881 -0.127479,1.066941 z m 3.219439,-1.513967 c -0.281164,0.200239 -0.520935,0.445595 -0.766294,0.685366 -0.426691,0.295203 -0.848508,0.607306 -1.356267,0.754837 0.04569,-0.362235 0.09038,-0.734927 -0.02492,-1.08957 -0.283459,-0.801245 0.06359,-1.639297 0.122322,-2.449565 -0.05171,-0.48169 -0.0024,-0.995606 -0.223446,-1.439344 -0.0288,-0.333158 0.115449,-0.655145 0.212844,-0.968825 0.33545,0.134067 0.651277,0.314682 0.930442,0.547148 0.337166,0.25295 0.853808,0.41652 0.929288,0.887899 0.03839,0.309383 0.377135,0.496589 0.367252,0.813277 -0.0209,0.752829 0.08293,1.540033 -0.191217,2.258777 z"
       id="path1341"
       style="stroke-width:0.143232" />
    <path
       fill="#111212"
       d="m 12.616873,8.8228704 c 0.0085,-0.765434 -0.234756,-1.53803 -0.711432,-2.138177 -0.230175,-0.253518 -0.419817,-0.542417 -0.663597,-0.78219 -0.537839,-0.533543 -1.3428075,-0.569063 -1.9903625,-0.90523 -0.03781,-0.3376 -0.161134,-0.675343 -0.08651,-1.01609 0.02275,-0.1133 0.05629,-0.228028 -0.0042,-0.336312 -0.170019,-0.39131 -0.02379,-0.816282 -0.054,-1.224208 -0.02265,-0.21313 -0.0083,-0.473959 -0.211413,-0.605729 -0.04726,0.443732 -0.210407,0.856527 -0.342612,1.277344 -0.06101,0.328147 -0.06101,0.669756 -0.202387,0.979139 0.08981,0.313536 -0.0878,0.577371 -0.280019,0.808691 -0.425114,0.217712 -0.930437,0.26942 -1.300263,0.588544 -0.263549,0.223872 -0.548299,0.419957 -0.843214,0.602004 -0.221292,0.277013 -0.466365,0.543856 -0.56505,0.893773 -0.39561,0.477536 -0.442304,1.118788 -0.666607,1.678255 -0.0041,0.830606 0.164145,1.7249496 0.69468,2.3906946 0.379566,0.313394 0.644831,0.734928 1.023971,1.048176 0.363951,0.217427 0.752256,0.395896 1.127954,0.591119 0.244787,0.05729 0.497734,0.08537 0.741373,0.151971 0.197519,1.018239 0.332584,2.060975 0.72934,3.026934 0.131487,-0.396467 0.115588,-0.821581 0.229171,-1.222203 0.160277,-0.592267 -0.168439,-1.208741 0.01675,-1.790409 0.277582,-0.248079 0.740511,-0.08694 1.0484625,-0.299929 0.586107,-0.361376 1.206304,-0.713295 1.631561,-1.266177 0.158273,-0.31783 0.490717,-0.55531 0.490717,-0.936596 0.0028,-0.5131976 0.302077,-0.9941756 0.187632,-1.5133946 z M 8.2664695,11.964247 c -0.424682,-0.10327 -0.82029,-0.306375 -1.176366,-0.554451 -0.383292,-0.255386 -0.526238,-0.731779 -0.90437,-0.993177 -0.354216,-0.4223906 -0.277588,-0.9997616 -0.42268,-1.5003606 0.05815,-0.349346 0.126759,-0.69568 0.163142,-1.049322 0.172596,-0.280019 0.43915,-0.503319 0.513059,-0.840629 0.253378,-0.36281 0.638673,-0.613754 0.948055,-0.928148 0.225163,-0.25968 0.583531,-0.149965 0.879306,-0.160279 -0.02923,0.286465 -0.05242,0.582957 0.01921,0.86527 0.03495,0.173741 0.1133,0.344903 0.08652,0.526523 -0.0593,0.386583 0.08565,0.7746 -0.01675,1.156745 -0.206685,0.798666 0.01876,1.6054936 0.03839,2.4108876 -0.02951,0.356365 -0.04626,0.715881 -0.127479,1.066941 z M 11.485909,10.45028 c -0.281164,0.200239 -0.520935,0.445595 -0.766294,0.685366 -0.426691,0.295203 -0.8485085,0.607306 -1.3562675,0.754837 0.04569,-0.362235 0.09038,-0.734927 -0.02492,-1.08957 -0.283458,-0.8012446 0.0636,-1.6392966 0.122323,-2.4495646 -0.05171,-0.481689 -0.0024,-0.995605 -0.223446,-1.439343 -0.0288,-0.333158 0.115448,-0.655146 0.212844,-0.968825 0.335449,0.134067 0.6512775,0.314682 0.9304415,0.547148 0.337167,0.252949 0.853808,0.41652 0.929288,0.887899 0.03839,0.309382 0.377135,0.496588 0.367252,0.813276 -0.0209,0.75283 0.08293,1.540034 -0.191217,2.2587766 z"
       id="path1343"
       style="stroke-width:0.143232" />
  </g>
</svg>
