<?xml version="1.0" encoding="UTF-8" standalone="no"?>
<svg
   xmlns:dc="http://purl.org/dc/elements/1.1/"
   xmlns:cc="http://creativecommons.org/ns#"
   xmlns:rdf="http://www.w3.org/1999/02/22-rdf-syntax-ns#"
   xmlns:svg="http://www.w3.org/2000/svg"
   xmlns="http://www.w3.org/2000/svg"
   xmlns:sodipodi="http://sodipodi.sourceforge.net/DTD/sodipodi-0.dtd"
   xmlns:inkscape="http://www.inkscape.org/namespaces/inkscape"
   width="101"
   height="101"
   viewBox="0 0 26.722918 26.722918"
   version="1.1"
   id="svg1373"
   inkscape:version="1.0.1 (3bc2e813f5, 2020-09-07)"
   sodipodi:docname="mana_hybrid_gu.svg">
  <defs
     id="defs1367" />
  <sodipodi:namedview
     id="base"
     pagecolor="#ffffff"
     bordercolor="#666666"
     borderopacity="1.0"
     inkscape:pageopacity="0.0"
     inkscape:pageshadow="2"
     inkscape:zoom="1.979899"
     inkscape:cx="117.43847"
     inkscape:cy="151.29002"
     inkscape:document-units="mm"
     inkscape:current-layer="layer1"
     inkscape:document-rotation="0"
     showgrid="false"
     units="px"
     inkscape:window-width="2560"
     inkscape:window-height="1377"
     inkscape:window-x="1912"
     inkscape:window-y="-8"
     inkscape:window-maximized="1" />
  <metadata
     id="metadata1370">
    <rdf:RDF>
      <cc:Work
         rdf:about="">
        <dc:format>image/svg+xml</dc:format>
        <dc:type
           rdf:resource="http://purl.org/dc/dcmitype/StillImage" />
        <dc:title></dc:title>
      </cc:Work>
    </rdf:RDF>
  </metadata>
  <g
     inkscape:label="Layer 1"
     inkscape:groupmode="layer"
     id="layer1">
    <g
       id="g2362"
       style="fill:none;stroke:#000000;stroke-opacity:1;stroke-width:4"
       transform="matrix(0.26458333,0,0,0.26458333,0.13229166,-27.648958)">
      <path
         fill="#c1d7e9"
         d="M 85.35,119.637 C 94.403,128.688 100,141.188 100,154.997 100,182.613 77.613,205 50,205 36.193,205 23.695,199.404 14.646,190.354"
         id="path2358"
         style="fill:none;stroke:#000000;stroke-opacity:1;stroke-width:4" />
      <path
         fill="#a3c095"
         d="M 85.35,119.637 C 76.301,110.593 63.803,105 50,105 22.387,105 0,127.384 0,154.997 c 0,13.808 5.596,26.31 14.646,35.357 z"
         id="path2360"
         style="fill:none;stroke:#000000;stroke-opacity:1;stroke-width:4" />
    </g>
    <path
       fill="#0d0f0f"
       d="m 20.431919,22.271302 c -0.712523,0.724694 -1.589617,1.087173 -2.631282,1.087173 -1.170516,0 -2.098145,-0.400844 -2.784475,-1.201473 -0.648758,-0.763058 -0.973137,-1.735137 -0.973137,-2.917825 0,-1.271058 0.553244,-2.720181 1.659467,-4.348162 0.902229,-1.335353 1.964266,-2.504811 3.184525,-3.509434 -0.178594,0.813859 -0.266965,1.392238 -0.266965,1.735931 0,0.788459 0.24765,1.557338 0.743744,2.307432 0.610394,0.890323 1.074737,1.551516 1.392237,1.983316 0.495565,0.750094 0.744273,1.481667 0.744273,2.193132 -5.29e-4,1.055687 -0.356923,1.945745 -1.068387,2.66991 z m -0.01984,-4.071408 C 20.22184,17.774179 19.99906,17.49081 19.74506,17.35111 c 0.03863,0.0762 0.05742,0.18468 0.05742,0.32438 0,0.267229 -0.07594,0.649022 -0.228865,1.144058 l -0.248179,0.763323 c 0,0.4445 0.22225,0.667279 0.667015,0.667279 0.470164,0 0.705908,-0.311415 0.705908,-0.934508 0,-0.317765 -0.09525,-0.690034 -0.28628,-1.115748 z"
       id="path2364"
       style="stroke-width:0.264583" />
    <path
       fill="#0d0f0f"
       d="m 13.79564,9.2035312 c 0,0.20029 -0.07752,0.380471 -0.232569,0.540544 -0.155311,0.159808 -0.333111,0.239183 -0.533665,0.239183 -0.319352,0 -0.555096,-0.149489 -0.704585,-0.449791 l -0.705379,-0.02963 c -0.150284,0 -0.445823,0.06482 -0.885296,0.194733 -0.470165,0.129646 -0.7403043,0.23495 -0.8106833,0.3151178 -0.109538,0.119857 -0.199761,0.40058 -0.269875,0.840317 -0.06032,0.360098 -0.08969,0.62521 -0.08969,0.795867 0,0.269346 0.04233,0.467519 0.127,0.592666 0.08493,0.124884 0.26035,0.229394 0.5249333,0.314325 0.264848,0.0844 0.427567,0.132821 0.487892,0.142346 0.03995,0 0.104775,-0.0048 0.194998,-0.01508 h 0.180181 c 0.12991,0 0.264848,0.02064 0.405342,0.06033 0.19976,0.0598 0.284956,0.1397 0.255322,0.239712 -0.140493,-0.01931 -0.385233,0.01006 -0.735012,0.09022 l 0.419629,0.210344 c 0,0.120121 -0.170127,0.179917 -0.510117,0.179917 -0.09049,0 -0.212989,-0.01958 -0.36777,-0.0598 -0.155311,-0.04048 -0.257969,-0.06059 -0.307711,-0.06059 h -0.194733 c -0.01032,0.100277 -0.03995,0.249767 -0.09022,0.450586 C 9.782976,13.784528 9.58348,13.684253 9.353028,13.494547 9.12284,13.304311 8.977849,13.209326 8.918317,13.209326 c -0.06032,0 -0.145785,0.09499 -0.255322,0.285221 -0.110332,0.189706 -0.1651,0.319616 -0.1651,0.39026 C 8.367984,13.814167 8.258447,13.684253 8.16743,13.494547 8.12748,13.363843 8.0825,13.234197 8.032757,13.103757 7.93248,13.113557 7.747801,13.32442 7.477397,13.734524 h -0.07514 c -0.02011,-0.03016 -0.09525,-0.239977 -0.225425,-0.630767 -0.310092,-0.09975 -0.600075,-0.149489 -0.86995,-0.149489 -0.129911,0 -0.330465,0.02963 -0.600605,0.09022 l -0.419629,-0.02937 c 0.05953,-0.06059 0.23495,-0.175684 0.524669,-0.345811 0.339725,-0.200554 0.60034,-0.300566 0.780256,-0.300566 0.02963,0 0.06985,0.0056 0.120121,0.01535 0.04974,0.01085 0.09022,0.01561 0.120121,0.01561 0.06958,0 0.182298,-0.03784 0.337344,-0.113242 0.155046,-0.07488 0.245268,-0.142081 0.26961,-0.202406 0.02593,-0.06059 0.03863,-0.215106 0.03863,-0.465402 0,-0.569913 -0.150283,-0.995363 -0.450585,-1.275556 C 6.766729,10.093857 6.336781,9.9134112 5.736441,9.8028152 5.576633,10.372728 5.126048,10.658478 4.386273,10.658478 c -0.240507,0 -0.480219,-0.144727 -0.720461,-0.43524 C 3.426364,9.9321972 3.305714,9.6676132 3.305714,9.4273722 c 0,-0.370417 0.155046,-0.674952 0.465138,-0.915459 -0.249767,-0.259556 -0.375179,-0.524668 -0.375179,-0.795073 0,-0.250031 0.07726,-0.470164 0.232568,-0.6604 0.155046,-0.189441 0.357982,-0.300037 0.607748,-0.330464 -0.01958,-0.319352 0.08493,-0.540279 0.315119,-0.659871 -0.110067,-0.109802 -0.164835,-0.304535 -0.164835,-0.584994 0,-0.329935 0.109537,-0.604837 0.329935,-0.824971 0.219604,-0.220133 0.4953,-0.330729 0.824706,-0.330729 0.360627,0 0.655902,0.125677 0.885825,0.375179 0.290513,-0.99007 0.915194,-1.485106 1.875631,-1.485106 0.500063,0 0.94033,0.20029 1.320271,0.600869 0.140229,0.14896 0.209815,0.229658 0.209815,0.239448 -0.119592,0 -0.05953,-0.02275 0.180181,-0.06773 0.240506,-0.04498 0.414867,-0.06773 0.525463,-0.06773 0.389995,0 0.735012,0.145521 1.035843,0.435504 0.259821,0.26035 0.440002,0.589756 0.540279,0.990071 0.06959,0.01005 0.179653,0.03969 0.329671,0.08996 0.219869,0.110596 0.3302,0.300302 0.3302,0.570441 0,0.05001 -0.04022,0.145257 -0.120121,0.285221 0.640028,0.360098 0.960438,0.859896 0.960438,1.500188 0,0.180181 -0.07038,0.430741 -0.209815,0.750623 0.260615,0.150548 0.391055,0.370945 0.391055,0.661193 z m -6.1827843,0.6604 v -0.194998 c 0,-0.230187 -0.112448,-0.440266 -0.337608,-0.630237 -0.22516,-0.190765 -0.452438,-0.284957 -0.682625,-0.284957 -0.280458,0 -0.540279,0.06482 -0.780256,0.194469 0.530225,-0.02937 1.1303,0.274902 1.800489,0.915723 z m -0.270139,-1.860285 c -0.149754,-0.170921 -0.279929,-0.345811 -0.389996,-0.525463 -0.420423,0.110067 -0.630238,0.235215 -0.630238,0.37465 0.119592,-0.0098 0.295011,0.01297 0.524669,0.06773 0.230188,0.05556 0.395817,0.08308 0.495565,0.08308 z m 0.916252,-0.465667 v -0.6604 c -0.240771,-0.03969 -0.386027,-0.06006 -0.435504,-0.06006 v 0.22516 z m 1.9502433,-0.420158 c -0.12012,-0.05001 -0.3452813,-0.150019 -0.6757453,-0.300302 v 1.290373 C 10.00416,7.8374872 10.228792,7.5078172 10.209212,7.1178212 Z m 0.824442,1.770591 -0.329671,-0.404548 c -0.19976,0.139965 -0.402431,0.282311 -0.608012,0.427303 -0.2050523,0.144727 -0.3823233,0.30771 -0.5320773,0.487891 0.4495273,-0.241035 0.9403293,-0.410369 1.4697603,-0.510646 z"
       id="path2366"
       style="stroke-width:0.264583" />
  </g>
</svg>
