<?xml version="1.0" encoding="UTF-8" standalone="no"?>
<svg
   xmlns:dc="http://purl.org/dc/elements/1.1/"
   xmlns:cc="http://creativecommons.org/ns#"
   xmlns:rdf="http://www.w3.org/1999/02/22-rdf-syntax-ns#"
   xmlns:svg="http://www.w3.org/2000/svg"
   xmlns="http://www.w3.org/2000/svg"
   xmlns:sodipodi="http://sodipodi.sourceforge.net/DTD/sodipodi-0.dtd"
   xmlns:inkscape="http://www.inkscape.org/namespaces/inkscape"
   width="101"
   height="101"
   viewBox="0 0 26.722918 26.722918"
   version="1.1"
   id="svg1373"
   inkscape:version="1.0.1 (3bc2e813f5, 2020-09-07)"
   sodipodi:docname="mana_hybrid_gw.svg">
  <defs
     id="defs1367" />
  <sodipodi:namedview
     id="base"
     pagecolor="#ffffff"
     bordercolor="#666666"
     borderopacity="1.0"
     inkscape:pageopacity="0.0"
     inkscape:pageshadow="2"
     inkscape:zoom="1.979899"
     inkscape:cx="117.43847"
     inkscape:cy="151.29002"
     inkscape:document-units="mm"
     inkscape:current-layer="layer1"
     inkscape:document-rotation="0"
     showgrid="false"
     units="px"
     inkscape:window-width="2560"
     inkscape:window-height="1377"
     inkscape:window-x="1912"
     inkscape:window-y="-8"
     inkscape:window-maximized="1" />
  <metadata
     id="metadata1370">
    <rdf:RDF>
      <cc:Work
         rdf:about="">
        <dc:format>image/svg+xml</dc:format>
        <dc:type
           rdf:resource="http://purl.org/dc/dcmitype/StillImage" />
        <dc:title></dc:title>
      </cc:Work>
    </rdf:RDF>
  </metadata>
  <g
     inkscape:label="Layer 1"
     inkscape:groupmode="layer"
     id="layer1">
    <g
       id="g2352"
       style="fill:none;stroke:#000000;stroke-opacity:1;stroke-width:4"
       transform="matrix(0.26458333,0,0,0.26458333,27.913541,-27.648958)">
      <path
         fill="#f8f6d8"
         d="M -19.651,119.637 C -10.599,128.688 -5,141.188 -5,154.997 -5,182.613 -27.387,205 -55,205 c -13.807,0 -26.305,-5.596 -35.354,-14.646"
         id="path2348"
         style="fill:none;stroke:#000000;stroke-opacity:1;stroke-width:4" />
      <path
         fill="#a3c095"
         d="M -19.651,119.637 C -28.699,110.593 -41.198,105 -55,105 c -27.613,0 -50,22.384 -50,49.998 0,13.807 5.596,26.309 14.646,35.356 z"
         id="path2350"
         style="fill:none;stroke:#000000;stroke-opacity:1;stroke-width:4" />
    </g>
    <path
       fill="#0d0f0f"
       d="m 23.415624,19.476244 c -0.644525,-0.599017 -1.072621,-0.923661 -1.2827,-0.974196 -0.1524,-0.03678 -0.300302,0.05239 -0.442383,0.265642 -0.142082,0.214047 -0.341577,0.289454 -0.600075,0.227541 -0.104775,-0.02513 -0.310886,-0.115094 -0.617538,-0.26961 -0.248179,0.234421 -0.381264,0.389466 -0.399785,0.465402 -0.02514,0.105569 0.02355,0.248179 0.145785,0.429154 0.121708,0.18071 0.236538,0.283633 0.344223,0.309827 0.068,0.0164 0.164306,0.02408 0.288396,0.02355 0.123825,-2.65e-4 0.205581,0.0042 0.245269,0.01349 0.11721,0.02752 0.124089,0.25691 0.02064,0.686858 -0.0979,0.411163 -0.344487,1.019704 -0.738981,1.823773 -0.01561,-1.034256 -0.161396,-1.584854 -0.43815,-1.650471 -0.03836,-0.0093 -0.12409,0.0011 -0.257175,0.02937 -0.133615,0.02831 -0.2286,0.03625 -0.28575,0.02222 -0.277283,-0.06615 -0.465138,-0.379413 -0.563827,-0.937948 -0.455877,-0.03863 -0.729456,0.133879 -0.821002,0.515673 -0.04604,0.192087 0.0061,0.365919 0.155839,0.522552 0.148961,0.156633 0.217752,0.259292 0.206904,0.306917 -0.06165,0.258498 -0.534722,0.564621 -1.417108,0.919162 -0.4699,0.191029 -0.795602,0.324909 -0.975783,0.402696 0.17436,-0.1397 0.362214,-0.332317 0.562769,-0.577321 0.22807,-0.279664 0.362743,-0.504296 0.404283,-0.677069 0.02275,-0.09499 -0.0553,-0.255852 -0.233892,-0.479954 -0.178858,-0.224631 -0.245004,-0.432329 -0.199231,-0.623093 0.03863,-0.162455 0.143669,-0.349515 0.315913,-0.560917 -0.09022,-0.172773 -0.220928,-0.280458 -0.392907,-0.321469 -0.382058,-0.09234 -0.602985,-0.01323 -0.662516,0.235479 0.04101,-0.171979 0.01005,-0.04286 -0.09261,0.387086 -0.06614,0.3175 -0.3429,0.417777 -0.830262,0.301889 -0.372798,-0.08943 -0.9779,-0.325173 -1.8161,-0.707496 1.053306,-0.01032 1.618721,-0.178329 1.696244,-0.503502 -0.0085,0.03863 -7.94e-4,-0.08096 0.02566,-0.357981 0.03228,-0.3048 0.306917,-0.522552 0.822325,-0.651669 0.01905,-0.459845 -0.157162,-0.734748 -0.530225,-0.823648 -0.05715,-0.01402 -0.186531,0.06112 -0.387085,0.225161 -0.201348,0.164306 -0.368565,0.230717 -0.502179,0.198437 -0.229394,-0.05424 -0.466461,-0.373856 -0.710142,-0.957791 -0.112977,-0.289719 -0.287867,-0.720461 -0.524669,-1.292754 0.192352,0.167481 0.38444,0.335227 0.577321,0.50165 0.254794,0.2032 0.468313,0.324643 0.640027,0.365918 0.133879,0.03202 0.293159,-0.05371 0.478367,-0.257175 0.184944,-0.203464 0.382587,-0.279929 0.592667,-0.229129 0.02937,0.0069 0.206375,0.109538 0.532606,0.309033 0.247914,-0.233627 0.387879,-0.416983 0.420158,-0.550862 0.02699,-0.115094 -0.01058,-0.262996 -0.114035,-0.444235 -0.103188,-0.181769 -0.212196,-0.285486 -0.326761,-0.313532 -0.04789,-0.01191 -0.125148,-0.01508 -0.232304,-0.01005 -0.107156,0.005 -0.184679,0.0013 -0.232569,-0.01005 -0.171714,-0.04154 -0.206639,-0.27649 -0.103716,-0.706702 0.02699,-0.115094 0.293687,-0.743479 0.799571,-1.884892 -0.04392,0.140494 -0.04577,0.423863 -0.0056,0.847461 0.04789,0.516731 0.181769,0.800364 0.401638,0.854075 0.0381,0.0085 0.121444,-0.0019 0.250296,-0.03122 0.128323,-0.0299 0.225425,-0.03704 0.2921,-0.02117 0.219604,0.05265 0.371475,0.220663 0.455877,0.503238 l 0.122502,0.437885 c 0.200554,0.04842 0.384969,0.01667 0.552979,-0.09446 0.168275,-0.111654 0.276754,-0.267494 0.324644,-0.468048 0.05001,-0.210344 0,-0.391319 -0.150284,-0.544248 -0.150548,-0.151871 -0.219339,-0.257175 -0.205052,-0.314325 0.04789,-0.200554 0.4445,-0.464344 1.189302,-0.791104 0.597959,-0.260879 0.98134,-0.406665 1.150673,-0.437092 -0.543454,0.456671 -0.846402,0.812536 -0.90805,1.071298 -0.03201,0.133879 0.01455,0.296598 0.140494,0.488686 0.157427,0.229393 0.2413,0.386027 0.251354,0.468841 0.0426,0.242358 -0.03863,0.541073 -0.244739,0.896673 0.214577,0.243417 0.388937,0.380471 0.523081,0.413015 0.276489,0.06615 0.449527,-0.04392 0.518054,-0.330729 0.0069,-0.02884 0.01667,-0.122238 0.02963,-0.280988 0.01217,-0.158485 0.02593,-0.246327 0.03995,-0.26326 0.07038,-0.124619 0.348986,-0.128588 0.836348,-0.01191 0.305859,0.07276 0.920486,0.310886 1.84494,0.714111 -0.224102,0.0066 -0.559858,0.01693 -1.007798,0.03096 -0.410104,0.02381 -0.63209,0.106892 -0.666485,0.250031 -0.01587,0.0672 -0.01958,0.187325 -0.01058,0.360892 0.009,0.173831 0.0045,0.299508 -0.01402,0.375444 -0.03175,0.134143 -0.147902,0.237066 -0.347133,0.310885 l -0.570177,0.227806 c 0.06482,0.237332 0.111125,0.380207 0.140494,0.427567 0.06853,0.137054 0.183091,0.225954 0.345545,0.264583 0.11483,0.02752 0.243946,-0.04815 0.387615,-0.225954 0.143404,-0.1778 0.320675,-0.241564 0.531019,-0.191029 0.257969,0.06112 0.492389,0.369623 0.702998,0.925512 0.118004,0.311944 0.302683,0.785284 0.554831,1.421607 z m -2.982913,-1.592527 c 0.14605,-0.611982 0.04868,-1.196182 -0.293158,-1.752865 -0.341842,-0.556683 -0.818621,-0.908315 -1.429808,-1.0541 -0.621242,-0.148431 -1.20994,-0.05424 -1.765036,0.283104 -0.55536,0.336021 -0.912283,0.814123 -1.070504,1.432719 -0.156104,0.609071 -0.05556,1.191948 0.30189,1.747308 0.357187,0.554832 0.841375,0.906198 1.453356,1.052513 0.649288,0.15531 1.242748,0.07197 1.779323,-0.248709 0.536046,-0.321204 0.877358,-0.808302 1.023937,-1.45997 z m -0.215635,-0.05186 c -0.139171,0.582877 -0.450585,1.018911 -0.933979,1.306777 -0.483129,0.288396 -1.016794,0.363273 -1.599142,0.223838 -0.563827,-0.135467 -0.999331,-0.446352 -1.307041,-0.934773 -0.307711,-0.487363 -0.393965,-1.012825 -0.259028,-1.576652 0.133086,-0.554567 0.449263,-0.98134 0.950384,-1.281113 0.50165,-0.299243 1.028964,-0.382323 1.583266,-0.249502 0.554038,0.132292 0.986103,0.447411 1.29593,0.94615 0.309827,0.499269 0.40005,1.020763 0.26961,1.565275 z"
       id="path2354"
       style="stroke-width:0.264583" />
    <path
       fill="#0d0f0f"
       d="m 13.795374,9.211204 c 0,0.200554 -0.07752,0.380471 -0.232569,0.540544 -0.155046,0.159808 -0.332846,0.240241 -0.5334,0.240241 -0.319352,0 -0.555096,-0.150018 -0.704585,-0.450056 l -0.705379,-0.03043 c -0.150284,0 -0.445823,0.06509 -0.885296,0.195263 -0.470165,0.129646 -0.7403037,0.235479 -0.8106827,0.314854 -0.109538,0.119592 -0.199761,0.400314 -0.269875,0.840052 -0.06033,0.360098 -0.08969,0.625475 -0.08969,0.795867 0,0.270139 0.04233,0.468048 0.127,0.592402 0.08493,0.125412 0.26035,0.230187 0.5249327,0.315118 0.264848,0.0844 0.427567,0.132557 0.487892,0.141817 0.03995,0 0.104775,-0.0048 0.194998,-0.01508 h 0.180181 c 0.12991,0 0.264848,0.02037 0.405342,0.06059 0.19976,0.06059 0.284956,0.139965 0.255322,0.240242 -0.140493,-0.02011 -0.385233,0.0098 -0.735012,0.08996 l 0.419629,0.21008 c 0,0.12012 -0.170127,0.180181 -0.510116,0.180181 -0.09049,0 -0.21299,-0.02011 -0.367771,-0.06006 -0.155311,-0.04022 -0.257969,-0.06006 -0.307711,-0.06006 h -0.194733 c -0.01032,0.09975 -0.03995,0.249502 -0.09022,0.449792 C 9.782975,13.792201 9.583479,13.692449 9.353027,13.501949 9.12284,13.312243 8.977848,13.216993 8.918317,13.216993 c -0.06033,0 -0.145786,0.09525 -0.255323,0.284956 -0.110332,0.1905 -0.1651,0.32041 -0.1651,0.390525 -0.129911,-0.07012 -0.239448,-0.200025 -0.330465,-0.390525 -0.03995,-0.12991 -0.08493,-0.259821 -0.134673,-0.39026 -0.100277,0.01032 -0.284956,0.220133 -0.55536,0.630502 h -0.07514 c -0.02011,-0.03016 -0.09525,-0.240242 -0.225425,-0.630502 -0.310092,-0.09975 -0.600075,-0.149755 -0.86995,-0.149755 -0.129911,0 -0.330465,0.03043 -0.600604,0.08996 l -0.4196294,-0.02937 c 0.059531,-0.06059 0.2349504,-0.175154 0.5246684,-0.345281 0.339725,-0.200025 0.60034,-0.300302 0.780257,-0.300302 0.02963,0 0.06985,0.0053 0.12012,0.01508 0.04974,0.01005 0.09022,0.01508 0.120121,0.01508 0.06959,0 0.182298,-0.03757 0.337344,-0.112977 0.155046,-0.07408 0.245269,-0.141817 0.26961,-0.202142 0.02593,-0.06032 0.03837,-0.215106 0.03837,-0.465931 0,-0.569648 -0.150283,-0.994833 -0.450585,-1.275027 -0.2601,-0.249762 -0.690048,-0.429943 -1.290387,-0.539745 -0.159808,0.569913 -0.6103938,0.855133 -1.3501688,0.855133 -0.2405062,0 -0.4802187,-0.145256 -0.7204604,-0.435504 C 3.4260889,9.940925 3.3054389,9.675812 3.3054389,9.435835 c 0,-0.370152 0.1550458,-0.675746 0.4651375,-0.915987 C 3.52081,8.260556 3.3953975,7.995444 3.3953975,7.725039 c 0,-0.25056 0.077258,-0.470164 0.2325688,-0.660929 C 3.7830121,6.874404 3.9859475,6.764337 4.2357142,6.734704 4.2161352,6.414294 4.3206452,6.194425 4.5508329,6.074304 4.4407663,5.964237 4.3859975,5.769239 4.3859975,5.48931 c 0,-0.329935 0.1095375,-0.605366 0.3299354,-0.825235 0.2196042,-0.220398 0.4953,-0.330729 0.8247064,-0.330729 0.360627,0 0.655902,0.126471 0.885825,0.375708 0.290512,-0.9903355 0.915194,-1.4853709 1.875631,-1.4853709 0.500063,0 0.940329,0.200025 1.320271,0.6003396 0.140229,0.1500188 0.209814,0.2301875 0.209814,0.2399771 -0.119591,0 -0.05953,-0.022754 0.1801807,-0.067733 0.240507,-0.044979 0.414867,-0.067733 0.525463,-0.067733 0.389996,0 0.735012,0.1452563 1.035844,0.4355042 0.259821,0.259821 0.440002,0.589756 0.540279,0.990071 0.06959,0.01032 0.179652,0.04022 0.329671,0.08996 0.219868,0.11086 0.3302,0.300302 0.3302,0.570441 0,0.04974 -0.04022,0.145257 -0.120121,0.284692 0.640027,0.360098 0.960437,0.860425 0.960437,1.501246 0,0.179652 -0.07011,0.429948 -0.209814,0.749829 0.260879,0.151077 0.391054,0.37174 0.391054,0.660929 z M 7.6128553,9.871869 V 9.677664 c 0,-0.230187 -0.112447,-0.440531 -0.337608,-0.630502 -0.22516,-0.189706 -0.452437,-0.284956 -0.682625,-0.284956 -0.280458,0 -0.540279,0.06429 -0.780256,0.194469 0.530225,-0.03016 1.1303,0.275431 1.800489,0.915194 z M 7.3427163,8.011319 C 7.1929623,7.840662 7.0627873,7.666037 6.9527203,7.486121 6.5322973,7.596452 6.3224833,7.7216 6.3224833,7.861035 c 0.119591,-0.0093 0.29501,0.0127 0.524668,0.06826 0.230188,0.05477 0.395817,0.08202 0.495565,0.08202 z m 0.916252,-0.465138 v -0.6604 C 8.0181973,6.846361 7.8729413,6.825461 7.8234643,6.825461 V 7.050622 Z M 10.209211,7.126287 C 10.089091,7.076277 9.8639303,6.976269 9.5334663,6.825985 V 8.116358 C 10.004159,7.845954 10.228791,7.515754 10.209211,7.126287 Z M 11.033653,8.896879 10.703982,8.491537 C 10.504222,8.631767 10.301551,8.773848 10.09597,8.919369 9.8909183,9.064625 9.7136473,9.226814 9.5638933,9.406731 10.01342,9.166489 10.504222,8.996892 11.033653,8.896879 Z"
       id="path2356"
       style="stroke-width:0.264583" />
  </g>
</svg>
