<?xml version="1.0" encoding="UTF-8" standalone="no"?>
<svg
   xmlns:dc="http://purl.org/dc/elements/1.1/"
   xmlns:cc="http://creativecommons.org/ns#"
   xmlns:rdf="http://www.w3.org/1999/02/22-rdf-syntax-ns#"
   xmlns:svg="http://www.w3.org/2000/svg"
   xmlns="http://www.w3.org/2000/svg"
   xmlns:sodipodi="http://sodipodi.sourceforge.net/DTD/sodipodi-0.dtd"
   xmlns:inkscape="http://www.inkscape.org/namespaces/inkscape"
   width="101"
   height="101"
   viewBox="0 0 26.722918 26.722918"
   version="1.1"
   id="svg1373"
   inkscape:version="1.0.1 (3bc2e813f5, 2020-09-07)"
   sodipodi:docname="mana_black.svg">
  <defs
     id="defs1367" />
  <sodipodi:namedview
     id="base"
     pagecolor="#ffffff"
     bordercolor="#666666"
     borderopacity="1.0"
     inkscape:pageopacity="0.0"
     inkscape:pageshadow="2"
     inkscape:zoom="1.979899"
     inkscape:cx="117.43847"
     inkscape:cy="151.29002"
     inkscape:document-units="mm"
     inkscape:current-layer="layer1"
     inkscape:document-rotation="0"
     showgrid="false"
     units="px"
     inkscape:window-width="2560"
     inkscape:window-height="1377"
     inkscape:window-x="1912"
     inkscape:window-y="-8"
     inkscape:window-maximized="1" />
  <metadata
     id="metadata1370">
    <rdf:RDF>
      <cc:Work
         rdf:about="">
        <dc:format>image/svg+xml</dc:format>
        <dc:type
           rdf:resource="http://purl.org/dc/dcmitype/StillImage" />
        <dc:title></dc:title>
      </cc:Work>
    </rdf:RDF>
  </metadata>
  <g
     inkscape:label="Layer 1"
     inkscape:groupmode="layer"
     id="layer1">
    <g
       id="g2244"
       style="fill:none;stroke:#000000;stroke-opacity:1;stroke-width:4"
       transform="matrix(0.26458333,0,0,0.26458333,83.476041,0.13282054)">
      <circle
         fill="#bab1ab"
         cx="-265"
         cy="49.998001"
         r="50"
         id="circle2242"
         style="fill:none;stroke:#000000;stroke-opacity:1;stroke-width:4" />
    </g>
    <path
       fill="#0d0f0f"
       d="m 24.12868,12.996597 c 0,1.459971 -0.531283,2.455598 -1.592792,2.986352 -0.310091,0.155046 -1.283229,0.364861 -2.920206,0.630503 -1.061508,0.17727 -1.592262,0.586581 -1.592262,1.227402 v 2.687637 c 0,0.111654 0.03307,0.453761 0.09922,1.028965 l 0.09975,1.062037 c 0,0.332052 -0.07752,0.874713 -0.232568,1.626129 -0.420159,0.08837 -0.906992,0.18759 -1.459971,0.299509 -0.177271,-0.664369 -0.265642,-1.1176 -0.265642,-1.361546 0,-0.110067 0.02778,-0.27649 0.08282,-0.497946 0.05477,-0.220662 0.08361,-0.386556 0.08361,-0.49821 0,-0.153459 -0.137583,-0.585523 -0.412485,-1.293019 h -0.514615 c -0.06826,0.110596 -0.09102,0.254264 -0.06879,0.431006 0.08837,0.376238 0.121444,0.696648 0.09975,0.96229 -0.376237,0.265641 -0.896144,0.619389 -1.559719,1.061773 -0.155045,-0.04392 -0.209814,-0.06615 -0.166422,-0.06615 v -2.35585 c -0.04339,-0.110067 -0.154517,-0.153723 -0.331788,-0.132821 h -0.397933 l -0.397934,3.118644 c -0.31062,0.02223 -0.6858,0.02223 -1.128183,0 -0.155575,-0.729721 -0.431535,-1.81319 -0.829469,-3.251465 H 10.45741 c -0.243946,0.774965 -0.376238,1.195652 -0.398463,1.261798 0,0.08837 0.02752,0.259556 0.08308,0.513821 0.05477,0.254529 0.08282,0.425714 0.08282,0.514085 0,0.06615 -0.02223,0.23204 -0.06615,0.497682 l -0.09975,0.796395 c -0.04445,0.04392 -0.09975,0.06615 -0.1658944,0.06615 -0.663575,0 -1.106487,-0.165894 -1.32715,-0.497152 -0.221206,-0.332317 -0.310106,-0.796925 -0.265656,-1.394619 l 0.265641,-3.981185 c 0,-0.06668 0.0217,-0.155046 0.06615,-0.265642 0.04339,-0.110596 0.06615,-0.188118 0.06615,-0.232039 0,-0.177271 -0.188119,-0.531284 -0.563827,-1.062038 -0.06562,-0.0217 -0.40984,-0.09975 -1.028435,-0.232569 -0.376767,-0.08837 -1.117865,-0.242887 -2.22303,-0.464608 -1.52691,-0.286808 -2.289704,-1.514739 -2.289704,-3.683 0,-3.229769 1.327679,-5.9174065 3.982244,-8.0631773 0.109537,0.5974291 0.298185,1.3932958 0.563298,2.3889229 0.199495,0.044979 0.631031,0.1441979 1.294077,0.2987146 0.13335,0.04445 0.807773,0.2878666 2.0245924,0.73025 C 9.8372186,7.4773887 9.0305046,6.8696407 8.0348766,6.0285303 7.6586396,5.586147 7.4705206,4.8455782 7.4705206,3.8060303 c 0,-0.2434166 0.420688,-0.5312833 1.261534,-0.8636 0.751416,-0.3095625 1.3163024,-0.485775 1.6922754,-0.5307542 1.194329,-0.1539875 2.112433,-0.2325687 2.754312,-0.2325687 2.764631,0 4.998244,0.7085542 6.701367,2.1243396 -0.55245,0.6418792 -1.503892,1.3266208 -2.853002,2.0566062 0.531283,0.022225 1.305454,-0.1870604 2.322777,-0.630502 1.017058,-0.4418542 1.448594,-0.663575 1.294077,-0.663575 0.176742,0 0.531283,0.3545416 1.062037,1.0620375 0.397934,0.5307541 0.718344,1.0072687 0.96229,1.4263687 0.707496,1.2615333 1.182952,2.6214916 1.426898,4.0814626 0,0.509588 0.01085,0.874448 0.03307,1.095111 v 0.265641 z m -12.708202,0.59743 c 0,-0.950913 -0.414867,-1.852613 -1.244335,-2.704836 C 9.3461436,10.037497 8.4558206,9.6123116 7.5049086,9.6123116 c -0.840846,0 -1.581415,0.3566583 -2.223029,1.0686524 -0.641879,0.712523 -0.96229,1.503363 -0.96229,2.37146 0,0.756444 0.364861,1.246982 1.095111,1.469232 0.464608,0.133879 1.116277,0.211931 1.957387,0.233627 h 1.825096 c 1.4811384,0.02222 2.2232944,-0.364861 2.2232944,-1.161256 z m 3.616325,4.115064 V 16.680127 C 14.882286,16.392789 14.72724,16.094074 14.572724,15.783983 14.439903,15.34107 14.196486,14.721945 13.842474,13.925285 l -0.36539,3.882496 c 0,0.310091 -0.06615,0.464608 -0.198966,0.464608 -0.08837,0 -0.154517,-0.0217 -0.198967,-0.06562 -0.155046,-2.345002 -0.232569,-3.362589 -0.232569,-3.053556 v -1.160727 c -0.04445,-0.0672 -0.09922,-0.100277 -0.165364,-0.100277 -0.752475,0.775229 -1.128184,2.024592 -1.128184,3.749675 0,0.951442 0.08731,1.537494 0.265113,1.75895 0.177271,-0.04392 0.376237,-0.121444 0.597429,-0.23204 0.08837,-0.04445 0.342635,-0.06668 0.763852,-0.06668 0.4191,0 0.928687,0.132821 1.525587,0.397934 0.221192,0 0.331788,-0.5969 0.331788,-1.790965 z m 7.49935,-4.623594 c 0,-0.890852 -0.331788,-1.686718 -0.995363,-2.387864 -0.664104,-0.7006173 -1.427427,-1.0517193 -2.289175,-1.0517193 -0.929216,0 -1.797843,0.4251853 -2.605087,1.2768793 -0.807773,0.851694 -1.211263,1.742017 -1.211263,2.671234 0,0.7747 0.375709,1.161256 1.128184,1.161256 h 3.815821 c 1.437481,-0.0217 2.156883,-0.578379 2.156883,-1.669786 z"
       id="path2246"
       style="stroke-width:0.264583" />
  </g>
</svg>
