<?xml version="1.0" encoding="UTF-8" standalone="no"?>
<svg
   xmlns:dc="http://purl.org/dc/elements/1.1/"
   xmlns:cc="http://creativecommons.org/ns#"
   xmlns:rdf="http://www.w3.org/1999/02/22-rdf-syntax-ns#"
   xmlns:svg="http://www.w3.org/2000/svg"
   xmlns="http://www.w3.org/2000/svg"
   xmlns:sodipodi="http://sodipodi.sourceforge.net/DTD/sodipodi-0.dtd"
   xmlns:inkscape="http://www.inkscape.org/namespaces/inkscape"
   width="101"
   height="101"
   viewBox="0 0 26.722918 26.722918"
   version="1.1"
   id="svg1373"
   inkscape:version="1.0.1 (3bc2e813f5, 2020-09-07)"
   sodipodi:docname="mana_hybrid_wu.svg">
  <defs
     id="defs1367" />
  <sodipodi:namedview
     id="base"
     pagecolor="#ffffff"
     bordercolor="#666666"
     borderopacity="1.0"
     inkscape:pageopacity="0.0"
     inkscape:pageshadow="2"
     inkscape:zoom="1.979899"
     inkscape:cx="117.43847"
     inkscape:cy="151.29002"
     inkscape:document-units="mm"
     inkscape:current-layer="layer1"
     inkscape:document-rotation="0"
     showgrid="false"
     units="px"
     inkscape:window-width="2560"
     inkscape:window-height="1377"
     inkscape:window-x="1912"
     inkscape:window-y="-8"
     inkscape:window-maximized="1" />
  <metadata
     id="metadata1370">
    <rdf:RDF>
      <cc:Work
         rdf:about="">
        <dc:format>image/svg+xml</dc:format>
        <dc:type
           rdf:resource="http://purl.org/dc/dcmitype/StillImage" />
        <dc:title></dc:title>
      </cc:Work>
    </rdf:RDF>
  </metadata>
  <g
     inkscape:label="Layer 1"
     inkscape:groupmode="layer"
     id="layer1">
    <g
       id="g2272"
       style="fill:none;stroke:#000000;stroke-opacity:1;stroke-width:4"
       transform="matrix(0.26458333,0,0,0.26458333,250.16354,-27.649223)">
      <path
         fill="#c1d7e9"
         d="m -859.651,119.637 c 9.052,9.051 14.651,21.551 14.651,35.36 0,27.616 -22.387,50.003 -50.001,50.003 -13.806,0 -26.305,-5.596 -35.354,-14.646"
         id="path2268"
         style="fill:none;stroke:#000000;stroke-opacity:1;stroke-width:4" />
      <path
         fill="#f8f6d8"
         d="m -859.651,119.638 c -9.048,-9.043 -21.546,-14.637 -35.35,-14.637 -27.613,0 -49.999,22.384 -49.999,49.997 0,13.807 5.597,26.309 14.646,35.356 z"
         id="path2270"
         style="fill:none;stroke:#000000;stroke-opacity:1;stroke-width:4" />
    </g>
    <path
       fill="#0d0f0f"
       d="m 20.431655,22.271037 c -0.712523,0.724694 -1.589352,1.087173 -2.631546,1.087173 -1.170252,0 -2.098146,-0.400843 -2.784739,-1.201473 -0.648759,-0.763058 -0.972609,-1.735137 -0.972609,-2.917825 0,-1.271058 0.55298,-2.720181 1.659202,-4.348162 0.90223,-1.335352 1.964003,-2.50481 3.18479,-3.509433 -0.1778,0.813858 -0.266965,1.392237 -0.266965,1.735931 0,0.788458 0.247386,1.557337 0.744009,2.307431 0.609864,0.890323 1.074208,1.551517 1.391973,1.983317 0.495829,0.750094 0.744273,1.481666 0.744273,2.193131 -2.65e-4,1.055688 -0.356659,1.945746 -1.068388,2.66991 z m -0.01879,-4.071408 c -0.191029,-0.425714 -0.413544,-0.709083 -0.667809,-0.848783 0.03837,0.0762 0.05715,0.184679 0.05715,0.324379 0,0.267229 -0.07593,0.649023 -0.2286,1.144058 l -0.248179,0.763323 c 0,0.4445 0.22225,0.667279 0.667809,0.667279 0.4699,0 0.705643,-0.311414 0.705643,-0.934508 -2.64e-4,-0.317764 -0.09551,-0.690033 -0.286014,-1.115748 z"
       id="path2274"
       style="stroke-width:0.264583" />
    <path
       fill="#0d0f0f"
       d="m 14.59627,10.256044 c -0.644525,-0.5990166 -1.072621,-0.9239256 -1.2827,-0.9741956 -0.152665,-0.03678 -0.300302,0.05212 -0.442384,0.265906 -0.142081,0.213783 -0.341841,0.289719 -0.600075,0.227012 -0.105039,-0.02487 -0.310885,-0.114829 -0.617272,-0.268816 -0.24818,0.234156 -0.381265,0.389202 -0.399786,0.465137 -0.02514,0.1050396 0.02355,0.2481796 0.145521,0.4288896 0.121708,0.18124 0.236537,0.283633 0.344223,0.309563 0.068,0.01667 0.164571,0.02434 0.288396,0.02381 0.123825,-5.29e-4 0.205581,0.004 0.245004,0.01349 0.117475,0.02752 0.124089,0.25691 0.0209,0.687123 -0.0979,0.410633 -0.344488,1.019439 -0.739246,1.823508 -0.01535,-1.033992 -0.161131,-1.584325 -0.437885,-1.650471 -0.03837,-0.0093 -0.12409,7.94e-4 -0.257175,0.02937 -0.133615,0.02805 -0.2286,0.03651 -0.28575,0.02275 -0.277284,-0.06668 -0.465138,-0.379412 -0.563827,-0.938477 -0.4556135,-0.03836 -0.7294575,0.133879 -0.8210025,0.515673 -0.04577,0.191823 0.0063,0.365919 0.155839,0.522552 0.149225,0.157163 0.218017,0.259292 0.207169,0.306917 -0.06138,0.258762 -0.534723,0.564356 -1.416844,0.919162 -0.470164,0.190765 -0.795602,0.324909 -0.975783,0.402696 0.17436,-0.139435 0.362214,-0.332581 0.562504,-0.577585 0.228071,-0.2794 0.363008,-0.504032 0.404283,-0.676804 0.02276,-0.09498 -0.05503,-0.255844 -0.233625,-0.48021 -0.178858,-0.224631 -0.245004,-0.432065 -0.199231,-0.622829 0.03863,-0.162455 0.143669,-0.348986 0.315648,-0.561182 -0.08996,-0.172773 -0.220663,-0.280458 -0.392642,-0.321468 -0.382058,-0.09155 -0.602985,-0.01296 -0.662516,0.236008 0.04128,-0.171715 0.01032,-0.04286 -0.09234,0.386821 -0.06615,0.3175 -0.3429,0.418041 -0.830263,0.301889 -0.372798,-0.08969 -0.9779,-0.325173 -1.8160999,-0.707231 1.0535709,-0.01058 1.6189849,-0.178594 1.6965079,-0.5035016 -0.0087,0.03863 -7.93e-4,-0.08123 0.0254,-0.357982 0.03255,-0.305064 0.306917,-0.522816 0.822326,-0.651933 0.01931,-0.459846 -0.156898,-0.734219 -0.529961,-0.823912 -0.05715,-0.01376 -0.186795,0.06138 -0.387085,0.225689 -0.201083,0.164306 -0.368565,0.230452 -0.502179,0.197908 -0.229394,-0.05424 -0.466196,-0.373591 -0.710142,-0.957527 -0.112712,-0.289983 -0.2876019,-0.72046 -0.524404,-1.292489 0.1923521,0.166952 0.3844396,0.334962 0.577056,0.50165 0.254794,0.202671 0.468313,0.324114 0.640027,0.365654 0.133879,0.03175 0.293159,-0.05398 0.478367,-0.25744 0.184679,-0.203464 0.382587,-0.279929 0.592667,-0.229129 0.02937,0.0066 0.206375,0.109538 0.532341,0.309298 0.247915,-0.233892 0.387879,-0.417248 0.420159,-0.551392 0.02699,-0.115093 -0.01058,-0.262202 -0.114036,-0.44397 -0.102923,-0.18124 -0.212196,-0.2852212 -0.32676,-0.3135316 -0.04789,-0.011377 -0.124884,-0.015081 -0.23204,-0.00979 -0.107421,0.00476 -0.184944,0.00106 -0.232569,-0.010319 -0.171979,-0.04101 -0.206639,-0.2764896 -0.103716,-0.7069666 0.02699,-0.1148292 0.293952,-0.74295 0.799571,-1.8846271 -0.04392,0.1404937 -0.04577,0.4235979 -0.0056,0.8474604 0.04789,0.5167312 0.181768,0.8006292 0.401637,0.854075 0.0381,0.009 0.121444,-0.00132 0.250031,-0.031485 0.128323,-0.029633 0.22569,-0.037042 0.292365,-0.020638 0.219604,0.052388 0.371475,0.2203979 0.455613,0.5029729 l 0.122502,0.43815 c 0.200293,0.048154 0.384972,0.016669 0.552718,-0.094721 0.168275,-0.111125 0.276754,-0.2674938 0.324644,-0.468048 0.05001,-0.2103437 0,-0.3913187 -0.150284,-0.5439833 -0.150812,-0.1521354 -0.219339,-0.2569104 -0.205052,-0.314325 0.04789,-0.2005542 0.4445,-0.4640792 1.1893025,-0.7908396 0.597959,-0.2606146 0.98134,-0.4066646 1.150673,-0.4368271 -0.543454,0.4564063 -0.846402,0.8122709 -0.907785,1.0707688 -0.03201,0.1338792 0.01455,0.2971271 0.140494,0.48895 0.157427,0.2293937 0.2413,0.3860271 0.251354,0.4685771 0.04286,0.2434166 -0.03863,0.5416021 -0.244475,0.8966729 0.214577,0.2434162 0.388673,0.3807352 0.523081,0.4132792 0.276225,0.06615 0.449527,-0.04419 0.518054,-0.330729 0.0071,-0.02858 0.01667,-0.1222377 0.02963,-0.2809877 0.01217,-0.15875 0.02593,-0.2463271 0.03995,-0.263525 0.07064,-0.1246188 0.34925,-0.1285875 0.836612,-0.011906 0.305858,0.07329 0.920485,0.31115 1.844675,0.7141107 -0.223837,0.0069 -0.559858,0.0172 -1.007798,0.03175 -0.409839,0.02302 -0.631825,0.106362 -0.666485,0.249502 -0.01561,0.0672 -0.01958,0.187325 -0.01058,0.360891 0.009,0.173567 0.0042,0.299773 -0.01402,0.375709 -0.03175,0.134144 -0.147637,0.237066 -0.346868,0.31115 l -0.570442,0.227277 c 0.06509,0.237331 0.111125,0.380471 0.140494,0.427302 0.06853,0.137583 0.183356,0.225954 0.34581,0.265112 0.114829,0.02752 0.243946,-0.04789 0.387615,-0.225954 0.143404,-0.1778 0.320675,-0.2413 0.530754,-0.191293 0.257969,0.06138 0.49239,0.369887 0.703262,0.926041 0.116682,0.310621 0.301361,0.78449 0.553509,1.4208126 z M 11.613093,8.6629874 c 0.14605,-0.611717 0.04842,-1.196181 -0.293159,-1.752335 -0.341841,-0.556684 -0.818621,-0.908315 -1.4298085,-1.054629 -0.621506,-0.1486963 -1.20994,-0.054505 -1.765035,0.282839 -0.555096,0.336286 -0.912284,0.814388 -1.07024,1.433248 -0.156104,0.609335 -0.05556,1.191948 0.30189,1.747044 0.357187,0.555625 0.841375,0.9064626 1.453356,1.0527766 0.649552,0.155311 1.2430125,0.07276 1.7793235,-0.248973 0.535781,-0.3212036 0.877094,-0.8083016 1.023673,-1.4599706 z m -0.215371,-0.05133 c -0.139436,0.582877 -0.450586,1.019175 -0.933979,1.306777 C 9.9806135,10.20683 9.4469485,10.281707 8.8646005,10.142272 8.3007735,10.007334 7.8652695,9.6956554 7.5575585,9.2080284 c -0.30771,-0.487627 -0.393964,-1.012825 -0.259027,-1.577446 0.133086,-0.554302 0.449263,-0.981075 0.950384,-1.280848 0.50165,-0.298715 1.028964,-0.382323 1.583002,-0.249502 0.5540375,0.132292 0.9863665,0.44794 1.2961935,0.946415 0.309827,0.499004 0.40005,1.019704 0.269611,1.56501 z"
       id="path2276"
       style="stroke-width:0.264583" />
  </g>
</svg>
