<?xml version="1.0" encoding="UTF-8" standalone="no"?>
<svg
   xmlns:dc="http://purl.org/dc/elements/1.1/"
   xmlns:cc="http://creativecommons.org/ns#"
   xmlns:rdf="http://www.w3.org/1999/02/22-rdf-syntax-ns#"
   xmlns:svg="http://www.w3.org/2000/svg"
   xmlns="http://www.w3.org/2000/svg"
   xmlns:sodipodi="http://sodipodi.sourceforge.net/DTD/sodipodi-0.dtd"
   xmlns:inkscape="http://www.inkscape.org/namespaces/inkscape"
   width="101"
   height="101"
   viewBox="0 0 26.722918 26.722918"
   version="1.1"
   id="svg1373"
   inkscape:version="1.0.1 (3bc2e813f5, 2020-09-07)"
   sodipodi:docname="mana_hybrid_rw.svg">
  <defs
     id="defs1367" />
  <sodipodi:namedview
     id="base"
     pagecolor="#ffffff"
     bordercolor="#666666"
     borderopacity="1.0"
     inkscape:pageopacity="0.0"
     inkscape:pageshadow="2"
     inkscape:zoom="1.979899"
     inkscape:cx="117.43847"
     inkscape:cy="151.29002"
     inkscape:document-units="mm"
     inkscape:current-layer="layer1"
     inkscape:document-rotation="0"
     showgrid="false"
     units="px"
     inkscape:window-width="2560"
     inkscape:window-height="1377"
     inkscape:window-x="1912"
     inkscape:window-y="-8"
     inkscape:window-maximized="1" />
  <metadata
     id="metadata1370">
    <rdf:RDF>
      <cc:Work
         rdf:about="">
        <dc:format>image/svg+xml</dc:format>
        <dc:type
           rdf:resource="http://purl.org/dc/dcmitype/StillImage" />
        <dc:title></dc:title>
      </cc:Work>
    </rdf:RDF>
  </metadata>
  <g
     inkscape:label="Layer 1"
     inkscape:groupmode="layer"
     id="layer1">
    <g
       id="g2332"
       style="fill:none;stroke:#000000;stroke-opacity:1;stroke-width:4"
       transform="matrix(0.26458333,0,0,0.26458333,83.476041,-27.649223)">
      <path
         fill="#f8f6d8"
         d="m -229.651,119.637 c 9.053,9.051 14.651,21.551 14.651,35.36 0,27.616 -22.387,50.003 -50,50.003 -13.807,0 -26.305,-5.596 -35.354,-14.646"
         id="path2328"
         style="fill:none;stroke:#000000;stroke-opacity:1;stroke-width:4" />
      <path
         fill="#e49977"
         d="m -229.651,119.638 c -9.048,-9.043 -21.547,-14.637 -35.349,-14.637 -27.613,0 -50,22.384 -50,49.997 0,13.807 5.596,26.309 14.646,35.356 z"
         id="path2330"
         style="fill:none;stroke:#000000;stroke-opacity:1;stroke-width:4" />
    </g>
    <path
       fill="#0d0f0f"
       d="m 23.415624,19.475979 c -0.644525,-0.599017 -1.072621,-0.92366 -1.2827,-0.974196 -0.1524,-0.03651 -0.300302,0.05239 -0.442383,0.266171 -0.142082,0.213783 -0.341577,0.288925 -0.600075,0.227013 -0.104775,-0.02514 -0.310886,-0.115094 -0.617538,-0.269082 -0.248179,0.234157 -0.381264,0.389202 -0.399785,0.465138 -0.02514,0.105304 0.02355,0.248179 0.145785,0.428889 0.121708,0.18124 0.236538,0.283634 0.344223,0.309828 0.068,0.0164 0.164306,0.02408 0.288396,0.02355 0.123825,-2.64e-4 0.205581,0.0042 0.245269,0.01349 0.11721,0.02752 0.124089,0.256911 0.02064,0.687388 -0.0979,0.410633 -0.344487,1.019175 -0.738981,1.823508 -0.01561,-1.034256 -0.161396,-1.58459 -0.43815,-1.650735 -0.03836,-0.0093 -0.12409,0.0011 -0.257175,0.02937 -0.133615,0.02831 -0.2286,0.03625 -0.28575,0.02249 -0.277283,-0.06641 -0.465138,-0.379148 -0.563827,-0.938213 -0.455877,-0.03836 -0.729456,0.13388 -0.821002,0.515673 -0.04604,0.192088 0.0061,0.365919 0.155839,0.522817 0.148961,0.156633 0.217752,0.259027 0.206904,0.306917 -0.06165,0.258762 -0.534722,0.564356 -1.416843,0.918898 -0.4699,0.191029 -0.795602,0.324908 -0.975784,0.402695 0.174361,-0.1397 0.362215,-0.332316 0.562769,-0.57732 0.228071,-0.279665 0.362744,-0.504296 0.404283,-0.677069 0.02276,-0.09499 -0.0553,-0.255588 -0.233891,-0.479954 -0.178859,-0.224632 -0.245004,-0.432329 -0.199231,-0.623094 0.03863,-0.162454 0.143668,-0.348985 0.315912,-0.560917 -0.09022,-0.172773 -0.220927,-0.280458 -0.392906,-0.321468 -0.382059,-0.09181 -0.602986,-0.01323 -0.662517,0.235743 0.04101,-0.172243 0.01005,-0.04313 -0.0926,0.386821 -0.06615,0.3175 -0.3429,0.418042 -0.830262,0.30189 -0.372798,-0.08943 -0.9779,-0.325173 -1.8161,-0.707496 1.053306,-0.01032 1.61872,-0.178329 1.696243,-0.502973 -0.0085,0.03863 -7.93e-4,-0.08149 0.02567,-0.357981 0.03228,-0.305329 0.306917,-0.523082 0.822325,-0.652198 0.01905,-0.459846 -0.157163,-0.734748 -0.530225,-0.823648 -0.05715,-0.01402 -0.186531,0.06112 -0.387086,0.225689 -0.201347,0.163778 -0.368564,0.230188 -0.502179,0.197909 -0.229393,-0.05424 -0.46646,-0.373856 -0.710141,-0.957792 -0.112977,-0.289719 -0.287867,-0.72046 -0.524669,-1.292489 0.192352,0.167216 0.384439,0.334962 0.577321,0.50165 0.254793,0.20267 0.468312,0.324379 0.640027,0.365918 0.133879,0.03149 0.293158,-0.05424 0.478366,-0.257704 0.184944,-0.2032 0.382588,-0.279929 0.592667,-0.229129 0.02937,0.0069 0.206375,0.109537 0.532606,0.309033 0.247915,-0.233627 0.38788,-0.416983 0.420159,-0.550862 0.02699,-0.115094 -0.01058,-0.262996 -0.114036,-0.444236 -0.103187,-0.181768 -0.212196,-0.285485 -0.32676,-0.313266 -0.04789,-0.01164 -0.125148,-0.01535 -0.232304,-0.01032 -0.107157,0.005 -0.184679,0.0013 -0.232569,-0.01005 -0.171715,-0.04101 -0.20664,-0.27649 -0.103717,-0.706702 0.02699,-0.115094 0.293688,-0.743479 0.799571,-1.884627 -0.04392,0.140229 -0.04577,0.423598 -0.0056,0.847196 0.04789,0.516731 0.181769,0.800893 0.401637,0.854074 0.0381,0.0087 0.121444,-0.0013 0.250296,-0.03122 0.128323,-0.0299 0.225425,-0.03704 0.2921,-0.02064 0.219604,0.05212 0.371475,0.220133 0.455877,0.502708 l 0.122502,0.437886 c 0.200554,0.04842 0.384969,0.01667 0.55298,-0.09446 0.168275,-0.11139 0.276754,-0.267494 0.324643,-0.468048 0.05001,-0.210344 0,-0.391319 -0.150283,-0.543719 -0.150548,-0.1524 -0.21934,-0.257175 -0.205052,-0.314325 0.04789,-0.200554 0.4445,-0.464344 1.189302,-0.791104 0.597958,-0.260615 0.98134,-0.4064 1.150673,-0.436827 -0.543454,0.456406 -0.846402,0.812271 -0.90805,1.070768 -0.03202,0.134144 0.01455,0.296598 0.140494,0.48895 0.157427,0.229394 0.2413,0.386028 0.251354,0.468578 0.0426,0.243416 -0.03863,0.541602 -0.24474,0.896937 0.214577,0.243417 0.388938,0.380471 0.523081,0.413279 0.27649,0.06615 0.449528,-0.04445 0.518055,-0.330729 0.0069,-0.02884 0.01667,-0.122502 0.02963,-0.281252 0.01217,-0.15875 0.02593,-0.246592 0.03995,-0.26326 0.07038,-0.124884 0.348985,-0.128853 0.836348,-0.01191 0.305858,0.07302 0.920485,0.310886 1.84494,0.713846 -0.224103,0.0071 -0.559859,0.01746 -1.007798,0.03201 -0.410105,0.02275 -0.63209,0.106098 -0.666486,0.249237 -0.01588,0.06694 -0.01958,0.187325 -0.01058,0.360892 0.009,0.173567 0.0045,0.299508 -0.01402,0.375973 -0.03175,0.133879 -0.147902,0.237066 -0.347133,0.310885 l -0.570178,0.227277 c 0.06482,0.237596 0.111125,0.380471 0.140494,0.427302 0.06853,0.137848 0.183092,0.225955 0.345546,0.265113 0.114829,0.02752 0.243946,-0.04763 0.387615,-0.225954 0.143404,-0.1778 0.320675,-0.241565 0.531018,-0.191029 0.257969,0.06138 0.49239,0.369887 0.702998,0.925777 0.11774,0.31115 0.302419,0.785018 0.554567,1.420812 z m -2.982913,-1.592527 c 0.14605,-0.611981 0.04868,-1.195917 -0.293158,-1.752335 -0.341842,-0.556419 -0.818621,-0.908315 -1.429808,-1.05463 -0.621242,-0.148431 -1.20994,-0.05424 -1.765036,0.283105 -0.55536,0.33602 -0.912283,0.814123 -1.070504,1.432983 -0.156104,0.609335 -0.05556,1.191683 0.30189,1.747308 0.357187,0.555096 0.841375,0.906198 1.453356,1.052513 0.649288,0.15531 1.242748,0.0725 1.779323,-0.248709 0.536046,-0.321468 0.877358,-0.808566 1.023937,-1.460235 z m -0.215635,-0.05186 c -0.139171,0.582877 -0.450585,1.01891 -0.933979,1.306777 -0.483129,0.288396 -1.016794,0.363273 -1.599142,0.223837 -0.563827,-0.134937 -0.999331,-0.446352 -1.307041,-0.934243 -0.307711,-0.487892 -0.393965,-1.013355 -0.259028,-1.577182 0.133086,-0.554566 0.449263,-0.981339 0.950384,-1.281112 0.50165,-0.298979 1.028964,-0.382323 1.583266,-0.249502 0.554038,0.132291 0.986103,0.447939 1.29593,0.94615 0.309827,0.499268 0.40005,1.020762 0.26961,1.565275 z"
       id="path2334"
       style="stroke-width:0.264583" />
    <path
       fill="#0d0f0f"
       d="m 13.873955,10.206567 c -0.454554,1.084527 -1.357312,1.626129 -2.709333,1.626129 -0.247915,0 -0.516467,0.03043 -0.805392,0.0926 -0.4336524,0.0934 -0.6500814,0.222515 -0.6500814,0.387615 0,0.05159 0.03598,0.110595 0.108214,0.178329 0.07197,0.06694 0.134408,0.100541 0.1860034,0.100541 -0.2584994,0 -0.08282,0.0079 0.525727,0.02276 0.609071,0.01587 0.991129,0.02355 1.146175,0.02355 -0.898261,0.525992 -2.3997724,0.76888 -4.5055904,0.727605 -0.691621,-0.0098 -1.285082,-0.314325 -1.780382,-0.913077 -0.485245,-0.567796 -0.727604,-1.202532 -0.727604,-1.903942 0,-0.7434786 0.250032,-1.3755686 0.751152,-1.8973266 0.500063,-0.520435 1.122363,-0.781315 1.865577,-0.781315 0.164836,0 0.38444,0.03625 0.657755,0.10795 0.273579,0.07223 0.456935,0.10848 0.549539,0.10848 0.382059,0 0.856721,-0.157957 1.424517,-0.472282 0.5677964,-0.314858 0.8363484,-0.472285 0.8053924,-0.472285 -0.103452,1.083733 -0.464608,1.811867 -1.0839984,2.183077 -0.444236,0.258763 -0.665692,0.51144 -0.665692,0.7582956 0,0.155046 0.09234,0.279135 0.278342,0.372004 0.144462,0.0717 0.304535,0.10795 0.480218,0.10795 0.268288,0 0.5312844,-0.164835 0.7895174,-0.495035 0.257705,-0.3301996 0.371211,-0.6297086 0.340255,-0.8985246 -0.03043,-0.309827 -0.0098,-0.681567 0.06218,-1.114425 0.02037,-0.124619 0.09551,-0.27649 0.224366,-0.456936 0.129117,-0.180975 0.245534,-0.2921 0.348457,-0.333639 0,0.0934 -0.03387,0.248179 -0.100807,0.464343 -0.0672,0.216694 -0.100541,0.377825 -0.100541,0.479955 0,0.227277 0.06165,0.402695 0.185737,0.52652 0.185738,-0.0717 0.350573,-0.30427 0.4953,-0.696912 0.123825,-0.299244 0.195792,-0.588433 0.216959,-0.866775 -0.433917,-0.01984 -0.849578,-0.216429 -1.246717,-0.588698 -0.397404,-0.371475 -0.595842,-0.774171 -0.595842,-1.207294 0,-0.07197 0.0098,-0.144727 0.03096,-0.216693 0.06138,0.0934 0.154253,0.23786 0.278871,0.433916 0.17489,0.25744 0.309563,0.386556 0.402432,0.386556 0.123825,0 0.185472,-0.129116 0.185472,-0.386556 0,-0.3302 -0.08758,-0.629444 -0.262995,-0.89826 -0.196321,-0.320411 -0.449263,-0.479954 -0.758561,-0.479954 -0.144991,0 -0.3614214,0.07752 -0.6503464,0.232568 -0.28919,0.154517 -0.55245,0.23204 -0.788988,0.23204 -0.0725,0 -0.392641,-0.09366 -0.960437,-0.279135 1.000919,-0.1651 1.501775,-0.31459 1.501775,-0.448998 0,-0.350838 -0.686329,-0.588434 -2.059252,-0.7117296 -0.134144,-0.010054 -0.381529,-0.030692 -0.74295,-0.062177 0.04101,-0.051065 0.335492,-0.10795 0.88265,-0.1703917 0.464344,-0.0508 0.789252,-0.077787 0.974989,-0.077787 2.4566574,0 4.0150534,1.1927413 4.6759824,3.5774313 0.114036,-0.09446 0.170921,-0.25109 0.170921,-0.470694 0,-0.282839 -0.08282,-0.638704 -0.247915,-1.067594 -0.06218,-0.167481 -0.160602,-0.4191 -0.294481,-0.753533 0.845873,1.078177 1.27,2.100263 1.27,3.064933 0,0.508 -0.119327,0.969963 -0.356658,1.383771 -0.154252,0.280723 -0.443971,0.638175 -0.866775,1.073944 -0.423069,0.4355046 -0.711994,0.7725836 -0.86704,1.0112376 0.567796,-0.155046 0.9398,-0.274108 1.115219,-0.356658 0.391583,-0.175419 0.747977,-0.4389446 1.067858,-0.7895166 -2.64e-4,0.135202 -0.05715,0.33602 -0.170127,0.6040436 z M 7.1231106,4.1219444 c 0,0.185737 -0.103452,0.304271 -0.309562,0.356658 l -0.402432,0.06165 c -0.144991,0.0717 -0.356393,0.356129 -0.634471,0.851429 -0.03122,-0.154516 -0.07752,-0.371475 -0.1397,-0.650346 -0.09287,0.01032 -0.24765,0.0934 -0.464343,0.247915 -0.09287,0.07197 -0.242623,0.180975 -0.449263,0.325173 0.06218,-0.371475 0.269081,-0.747713 0.619654,-1.130035 0.371475,-0.423069 0.733161,-0.633942 1.083734,-0.633942 0.464343,-7.94e-4 0.696383,0.190235 0.696383,0.5715 z m 2.693988,1.424781 c 0,0.17489 -0.09525,0.323056 -0.286544,0.441325 -0.191029,0.118533 -0.379413,0.178329 -0.564886,0.178329 -0.248179,0 -0.470164,-0.138906 -0.665956,-0.418571 -0.237596,-0.339989 -0.479954,-0.562239 -0.727869,-0.665691 0.05107,-0.05159 0.113507,-0.07752 0.186267,-0.07752 0.0926,0 0.249767,0.0717 0.471752,0.216429 0.221456,0.145256 0.363538,0.216958 0.425715,0.216958 0.05159,0 0.136789,-0.0717 0.255323,-0.216958 0.118533,-0.144727 0.250031,-0.216429 0.395023,-0.216429 0.341047,0 0.511175,0.180975 0.511175,0.542131 z"
       id="path2336"
       style="stroke-width:0.264583" />
  </g>
</svg>
