<?xml version="1.0" encoding="UTF-8" standalone="no"?>
<!-- Created with Inkscape (http://www.inkscape.org/) -->

<svg
   width="101mm"
   height="101mm"
   viewBox="0 0 101 101"
   version="1.1"
   id="svg3759"
   inkscape:version="1.2.2 (b0a8486541, 2022-12-01)"
   sodipodi:docname="mana_colourless.svg"
   xmlns:inkscape="http://www.inkscape.org/namespaces/inkscape"
   xmlns:sodipodi="http://sodipodi.sourceforge.net/DTD/sodipodi-0.dtd"
   xmlns="http://www.w3.org/2000/svg"
   xmlns:svg="http://www.w3.org/2000/svg">
  <sodipodi:namedview
     id="namedview3761"
     pagecolor="#505050"
     bordercolor="#eeeeee"
     borderopacity="1"
     inkscape:showpageshadow="0"
     inkscape:pageopacity="0"
     inkscape:pagecheckerboard="0"
     inkscape:deskcolor="#505050"
     inkscape:document-units="mm"
     showgrid="false"
     inkscape:zoom="0.73673541"
     inkscape:cx="125.55389"
     inkscape:cy="261.28783"
     inkscape:window-width="1920"
     inkscape:window-height="1006"
     inkscape:window-x="0"
     inkscape:window-y="0"
     inkscape:window-maximized="1"
     inkscape:current-layer="layer1" />
  <defs
     id="defs3756" />
  <g
     inkscape:label="Layer 1"
     inkscape:groupmode="layer"
     id="layer1">
    <path
       d="m 99.160846,50.5 c 0,26.869546 -21.782528,48.660845 -48.660827,48.660845 -26.878337,0 -48.6608672,-21.791299 -48.6608672,-48.660845 0,-26.869549 21.7825302,-48.6608482 48.6608672,-48.6608482 26.878299,0 48.660827,21.7912992 48.660827,48.6608482 z"
       id="Shape"
       
       style="fill:none;stroke:#000000;stroke-width:4;stroke-dasharray:none;stroke-opacity:1" />
    <path
       d="m 50.195382,13.543058 c 2.408735,4.834942 5.356599,9.530715 8.852382,14.087316 1.487101,1.913345 3.191184,3.913303 5.113279,5.982365 1.895834,2.069059 3.999932,4.139089 6.278235,6.174085 2.295811,2.035 4.80868,3.964888 7.548278,5.791617 2.739598,1.825755 5.686506,3.495795 8.852383,4.991628 -4.651985,2.487539 -9.261153,5.513273 -13.844021,9.095684 -1.903595,1.495837 -3.895799,3.217458 -5.982352,5.182384 -2.069082,1.948377 -4.104064,4.08751 -6.095275,6.399875 -1.991212,2.347399 -3.904554,4.869973 -5.73907,7.617364 -1.826717,2.730847 -3.487028,5.634927 -4.982846,8.713214 -2.330866,-4.57412 -5.234958,-9.095688 -8.721987,-13.582217 -2.991673,-3.825715 -6.773591,-7.843155 -11.347705,-12.087354 -4.56536,-4.243224 -10.09517,-8.017362 -16.573909,-11.33895 4.660739,-2.417469 9.269907,-5.408165 13.843065,-8.974033 3.904553,-3.078282 7.930748,-6.921518 12.078583,-11.530675 4.155634,-4.609153 7.720533,-10.104909 10.72096,-16.522303 z m -5.356563,51.478308 c 2.165379,2.748369 3.947369,5.53079 5.356563,8.348254 1.834515,-3.913303 4.034948,-7.269925 6.599386,-10.087389 2.574149,-2.834981 5.078262,-5.199902 7.486961,-7.113248 2.738641,-2.139129 5.599881,-4.017439 8.600308,-5.617406 -3.99114,-1.809208 -7.382827,-4.01744 -10.156487,-6.591595 -2.791169,-2.574158 -5.139542,-5.06073 -7.043173,-7.478203 -2.165416,-2.729871 -3.999895,-5.634923 -5.486995,-8.713207 -1.825761,3.982403 -4.017441,7.39158 -6.539026,10.209044 -2.539131,2.834981 -5.00819,5.182381 -7.417883,7.11324 -2.747396,2.156651 -5.608636,3.964888 -8.600308,5.478242 3.991177,2.070031 7.391582,4.399909 10.217805,6.974072 2.826222,2.574158 5.157088,5.078244 6.982849,7.478196 z"
       fill="#000000"
       id="path651"
       style="stroke:none;stroke-width:0.973217;stroke-opacity:1" />
  </g>
</svg>
