<?xml version="1.0" encoding="UTF-8" standalone="no"?>
<svg
   xmlns:dc="http://purl.org/dc/elements/1.1/"
   xmlns:cc="http://creativecommons.org/ns#"
   xmlns:rdf="http://www.w3.org/1999/02/22-rdf-syntax-ns#"
   xmlns:svg="http://www.w3.org/2000/svg"
   xmlns="http://www.w3.org/2000/svg"
   xmlns:sodipodi="http://sodipodi.sourceforge.net/DTD/sodipodi-0.dtd"
   xmlns:inkscape="http://www.inkscape.org/namespaces/inkscape"
   width="51"
   height="101"
   viewBox="0 0 13.49375 26.722918"
   version="1.1"
   id="svg1373"
   inkscape:version="1.0.1 (3bc2e813f5, 2020-09-07)"
   sodipodi:docname="mana_half_red.svg">
  <defs
     id="defs1367" />
  <sodipodi:namedview
     id="base"
     pagecolor="#ffffff"
     bordercolor="#666666"
     borderopacity="1.0"
     inkscape:pageopacity="0.0"
     inkscape:pageshadow="2"
     inkscape:zoom="1.979899"
     inkscape:cx="117.43847"
     inkscape:cy="151.29002"
     inkscape:document-units="mm"
     inkscape:current-layer="layer1"
     inkscape:document-rotation="0"
     showgrid="false"
     units="px"
     inkscape:window-width="2560"
     inkscape:window-height="1377"
     inkscape:window-x="1912"
     inkscape:window-y="-8"
     inkscape:window-maximized="1" />
  <metadata
     id="metadata1370">
    <rdf:RDF>
      <cc:Work
         rdf:about="">
        <dc:format>image/svg+xml</dc:format>
        <dc:type
           rdf:resource="http://purl.org/dc/dcmitype/StillImage" />
        <dc:title></dc:title>
      </cc:Work>
    </rdf:RDF>
  </metadata>
  <g
     inkscape:label="Layer 1"
     inkscape:groupmode="layer"
     id="layer1">
    <g
       id="g2480"
       style="fill:none;stroke:#000000;stroke-opacity:1"
       transform="matrix(0.26458333,0,0,0.26458333,15.742708,-110.99271)">
      <path
         fill="#e49977"
         d="m -59,420 c 0,33.334 0,66.666 0,100 27.613,0 50,-22.387 50,-50 0,-27.615 -22.387,-50 -50,-50 z"
         id="path2478"
         style="fill:none;stroke:#000000;stroke-opacity:1" />
    </g>
    <path
       fill="#0d0f0f"
       d="m 9.3098931,18.162326 c -0.382322,0.179917 -1.190625,0.43815 -2.4257,0.7747 0.336815,-0.518848 0.9652,-1.251479 1.886215,-2.199481 0.919956,-0.947738 1.5501939,-1.725877 1.8862149,-2.335213 0.515673,-0.9017 0.775229,-1.905794 0.775229,-3.011223 0,-2.0981459 -0.921808,-4.3211749 -2.7625149,-6.6672359 0.291571,0.728134 0.505354,1.274763 0.640821,1.638565 0.35851,0.933185 0.538427,1.707356 0.538427,2.322248 0,0.477573 -0.124089,0.819679 -0.370946,1.024202 -1.358106,-4.904052 -4.465902,-7.487444 -9.31730196,-7.754673 0,0.402961 0,0.807773 0,1.211263 0.797984,0.262466 1.20094396,0.59002 1.20094396,0.985573 0,0.176741 -0.40507696,0.365918 -1.20094396,0.567002 0,0.337873 0,0.67601 0,1.013883 0.0061,5.29e-4 0.01746,0.0027 0.02275,0.0027 0.515673,0 1.08823196,-0.169069 1.71767496,-0.505354 0.627327,-0.336815 1.09855,-0.505354 1.413934,-0.505354 0.672835,0 1.223698,0.348191 1.650471,1.04431 0.381264,0.583935 0.572558,1.235075 0.572558,1.953419 0,0.561181 -0.135467,0.841904 -0.404019,0.841904 -0.202671,0 -0.493977,-0.280723 -0.876564,-0.841904 -0.269875,-0.426248 -0.471223,-0.741102 -0.605632,-0.942979 -0.04551,0.15822 -0.0672,0.314589 -0.0672,0.471752 0,0.942975 0.432065,1.817952 1.29593,2.626783 0.863864,0.8093609 1.768475,1.2350749 2.711979,1.2805839 -0.04551,0.60616 -0.202671,1.235075 -0.471223,1.885685 -0.315119,0.853811 -0.674952,1.359165 -1.077913,1.515798 -0.269875,-0.269346 -0.404018,-0.65061 -0.404018,-1.144587 0,-0.224367 0.07223,-0.573088 0.218016,-1.044311 0.146844,-0.471223 0.219075,-0.808831 0.219075,-1.010179 -0.224366,0.08996 -0.477573,0.331258 -0.757502,0.724429 -0.281252,0.392642 -0.443442,0.723371 -0.487892,0.993246 -0.157162,0.94271 -0.20267,1.751277 -0.135466,2.424642 0.0672,0.584464 -0.179917,1.235075 -0.741098,1.953948 -0.561181,0.718343 -1.13374,1.077383 -1.717675,1.077383 -0.382323,0 -0.729721,-0.07858 -1.043781,-0.235744 -0.40401897,-0.202142 -0.60668997,-0.471752 -0.60668997,-0.808831 0,-0.538427 0.48259997,-1.088231 1.44806497,-1.649942 1.347787,-0.808302 2.134129,-2.391039 2.358495,-4.749006 0.0672,0 -0.516731,0.342635 -1.751806,1.027377 -0.945621,0.524933 -1.77138497,0.846402 -2.48046897,0.969433 0,3.825082 0,7.649634 0,11.474715 2.79558797,-0.181504 4.90511097,-0.685271 6.32010297,-1.51474 -0.336815,0 -1.167871,-0.01693 -2.492905,-0.05053 -1.323975,-0.0336 -1.706298,-0.05053 -1.144058,-0.05053 -0.112712,0 -0.248179,-0.07223 -0.404019,-0.218546 -0.158221,-0.146315 -0.235743,-0.274902 -0.235743,-0.387086 0,-0.359039 0.471222,-0.640821 1.413933,-0.842962 0.628385,-0.134409 1.213379,-0.201613 1.751806,-0.201613 2.941373,0 4.9051109,-1.178718 5.8941229,-3.536685 0.247121,-0.583406 0.369888,-1.021556 0.369888,-1.313656 -0.696648,0.762264 -1.470819,1.335352 -2.3235709,1.716881 z"
       id="path2482"
       style="stroke-width:0.264583" />
  </g>
</svg>
