<?xml version="1.0" encoding="UTF-8" standalone="no"?>
<svg
   xmlns:dc="http://purl.org/dc/elements/1.1/"
   xmlns:cc="http://creativecommons.org/ns#"
   xmlns:rdf="http://www.w3.org/1999/02/22-rdf-syntax-ns#"
   xmlns:svg="http://www.w3.org/2000/svg"
   xmlns="http://www.w3.org/2000/svg"
   xmlns:sodipodi="http://sodipodi.sourceforge.net/DTD/sodipodi-0.dtd"
   xmlns:inkscape="http://www.inkscape.org/namespaces/inkscape"
   width="101"
   height="101"
   viewBox="0 0 26.722918 26.722918"
   version="1.1"
   id="svg1373"
   inkscape:version="1.0.1 (3bc2e813f5, 2020-09-07)"
   sodipodi:docname="mana_blue.svg">
  <defs
     id="defs1367" />
  <sodipodi:namedview
     id="base"
     pagecolor="#ffffff"
     bordercolor="#666666"
     borderopacity="1.0"
     inkscape:pageopacity="0.0"
     inkscape:pageshadow="2"
     inkscape:zoom="1.979899"
     inkscape:cx="117.43847"
     inkscape:cy="151.29002"
     inkscape:document-units="mm"
     inkscape:current-layer="layer1"
     inkscape:document-rotation="0"
     showgrid="false"
     units="px"
     inkscape:window-width="2560"
     inkscape:window-height="1377"
     inkscape:window-x="1912"
     inkscape:window-y="-8"
     inkscape:window-maximized="1" />
  <metadata
     id="metadata1370">
    <rdf:RDF>
      <cc:Work
         rdf:about="">
        <dc:format>image/svg+xml</dc:format>
        <dc:type
           rdf:resource="http://purl.org/dc/dcmitype/StillImage" />
        <dc:title></dc:title>
      </cc:Work>
    </rdf:RDF>
  </metadata>
  <g
     inkscape:label="Layer 1"
     inkscape:groupmode="layer"
     id="layer1">
    <g
       id="g2250"
       style="fill:none;stroke:#000000;stroke-opacity:1;stroke-width:4"
       transform="matrix(0.26458333,0,0,0.26458333,111.25729,0.13229167)">
      <circle
         fill="#c1d7e9"
         cx="-370"
         cy="50"
         r="50"
         id="circle2248"
         style="fill:none;stroke:#000000;stroke-opacity:1;stroke-width:4" />
    </g>
    <path
       fill="#0d0f0f"
       d="m 17.988492,22.282944 c -1.266561,1.288786 -2.826809,1.933311 -4.67995,1.933311 -2.07989,0 -3.7300957,-0.711729 -4.9506187,-2.135981 -1.153319,-1.356519 -1.729582,-3.085571 -1.729582,-5.187421 0,-2.260336 0.983457,-4.838171 2.950105,-7.7321843 1.6044327,-2.373048 3.4922347,-4.452937 5.6626117,-6.238875 -0.316706,1.447006 -0.474398,2.475177 -0.474398,3.085571 0,1.402027 0.440267,2.769394 1.321859,4.1031593 1.085321,1.582208 1.910027,2.758545 2.475706,3.526366 0.881592,1.334294 1.322387,2.633927 1.322387,3.899165 5.3e-4,1.876689 -0.632618,3.459162 -1.89812,4.746889 z m -0.03413,-7.239529 c -0.338931,-0.756973 -0.734748,-1.259946 -1.18692,-1.508918 0.06773,0.135995 0.101864,0.328083 0.101864,0.576791 0,0.474927 -0.135467,1.15279 -0.407194,2.034381 l -0.440266,1.356519 c 0,0.791104 0.394758,1.186921 1.186391,1.186921 0.836084,0 1.254655,-0.554302 1.254655,-1.661848 0,-0.564621 -0.169334,-1.22555 -0.50853,-1.983846 z"
       id="path2252"
       style="stroke-width:0.264583" />
  </g>
</svg>
