<?xml version="1.0" encoding="UTF-8" standalone="no"?>
<svg
   xmlns:dc="http://purl.org/dc/elements/1.1/"
   xmlns:cc="http://creativecommons.org/ns#"
   xmlns:rdf="http://www.w3.org/1999/02/22-rdf-syntax-ns#"
   xmlns:svg="http://www.w3.org/2000/svg"
   xmlns="http://www.w3.org/2000/svg"
   xmlns:sodipodi="http://sodipodi.sourceforge.net/DTD/sodipodi-0.dtd"
   xmlns:inkscape="http://www.inkscape.org/namespaces/inkscape"
   width="101"
   height="101"
   viewBox="0 0 26.722918 26.722918"
   version="1.1"
   id="svg1373"
   inkscape:version="1.0.1 (3bc2e813f5, 2020-09-07)"
   sodipodi:docname="mana_hybrid_2r.svg">
  <defs
     id="defs1367" />
  <sodipodi:namedview
     id="base"
     pagecolor="#ffffff"
     bordercolor="#666666"
     borderopacity="1.0"
     inkscape:pageopacity="0.0"
     inkscape:pageshadow="2"
     inkscape:zoom="1.979899"
     inkscape:cx="117.43847"
     inkscape:cy="151.29002"
     inkscape:document-units="mm"
     inkscape:current-layer="layer1"
     inkscape:document-rotation="0"
     showgrid="false"
     units="px"
     inkscape:window-width="2560"
     inkscape:window-height="1377"
     inkscape:window-x="1912"
     inkscape:window-y="-8"
     inkscape:window-maximized="1" />
  <metadata
     id="metadata1370">
    <rdf:RDF>
      <cc:Work
         rdf:about="">
        <dc:format>image/svg+xml</dc:format>
        <dc:type
           rdf:resource="http://purl.org/dc/dcmitype/StillImage" />
        <dc:title></dc:title>
      </cc:Work>
    </rdf:RDF>
  </metadata>
  <g
     inkscape:label="Layer 1"
     inkscape:groupmode="layer"
     id="layer1">
    <g
       id="g2402"
       style="fill:none;stroke:#000000;stroke-opacity:1"
       transform="matrix(0.26458333,0,0,0.26458333,166.81979,-55.430472)">
      <path
         fill="#e49977"
         d="m -544.651,224.637 c 9.052,9.051 14.651,21.551 14.651,35.36 0,27.616 -22.387,50.003 -50,50.003 -13.807,0 -26.305,-5.596 -35.354,-14.646"
         id="path2398"
         style="fill:none;stroke:#000000;stroke-opacity:1" />
      <path
         fill="#cac5c0"
         d="m -544.651,224.638 c -9.048,-9.044 -21.547,-14.637 -35.349,-14.637 -27.613,0 -50,22.384 -50,49.997 0,13.807 5.597,26.309 14.646,35.356 z"
         id="path2400"
         style="fill:none;stroke:#000000;stroke-opacity:1" />
    </g>
    <path
       fill="#0d0f0f"
       d="m 23.494998,19.827347 c -0.454554,1.084527 -1.357313,1.625864 -2.709333,1.625864 -0.247915,0 -0.516467,0.03096 -0.805392,0.09366 -0.433652,0.09234 -0.650346,0.221721 -0.650346,0.387085 0,0.05107 0.03598,0.110596 0.108479,0.178329 0.07197,0.06721 0.134409,0.100542 0.186002,0.100542 -0.258498,0 -0.08308,0.0074 0.525727,0.02302 0.609336,0.01561 0.991394,0.02355 1.14644,0.02355 -0.897996,0.525727 -2.399771,0.768085 -4.50559,0.727604 -0.69162,-0.01032 -1.285081,-0.314854 -1.780381,-0.913871 -0.48551,-0.567796 -0.727868,-1.201473 -0.727868,-1.904206 0,-0.74295 0.250295,-1.374775 0.751152,-1.896533 0.500062,-0.52123 1.122362,-0.781844 1.865577,-0.781844 0.164835,0 0.384439,0.03625 0.657754,0.108479 0.273579,0.07223 0.456935,0.108479 0.549539,0.108479 0.382059,0 0.856986,-0.157692 1.424782,-0.47281 0.567795,-0.314325 0.836083,-0.471752 0.805127,-0.471752 -0.103452,1.084262 -0.464609,1.811602 -1.083998,2.183341 -0.443971,0.258234 -0.665692,0.510646 -0.665692,0.758561 0,0.153987 0.0926,0.278606 0.278342,0.37121 0.144462,0.0725 0.304535,0.108479 0.480219,0.108479 0.268287,0 0.531283,-0.1651 0.789516,-0.495564 0.257704,-0.330465 0.371211,-0.629444 0.340254,-0.898525 -0.03069,-0.309563 -0.0098,-0.680773 0.06218,-1.11469 0.02037,-0.124089 0.09552,-0.27596 0.224367,-0.456935 0.129117,-0.180975 0.245533,-0.291571 0.348456,-0.332846 0,0.0926 -0.0336,0.24765 -0.100541,0.464344 -0.0672,0.216693 -0.100542,0.37756 -0.100542,0.479689 0,0.227013 0.06191,0.402431 0.186002,0.526521 0.185473,-0.07223 0.350308,-0.3048 0.4953,-0.696912 0.123825,-0.299244 0.195792,-0.588434 0.216958,-0.866775 -0.433916,-0.02064 -0.849577,-0.21643 -1.246452,-0.588434 -0.397139,-0.371739 -0.595841,-0.774435 -0.595841,-1.207294 0,-0.07223 0.0098,-0.144727 0.03096,-0.216958 0.06138,0.09313 0.154252,0.237596 0.278606,0.433652 0.175154,0.258498 0.309563,0.386821 0.402432,0.386821 0.123825,0 0.185737,-0.128323 0.185737,-0.386821 0,-0.3302 -0.08784,-0.629708 -0.26326,-0.89826 -0.196586,-0.319881 -0.449528,-0.47969 -0.758561,-0.47969 -0.144992,0 -0.361421,0.07699 -0.650346,0.23204 -0.289189,0.154252 -0.55245,0.232039 -0.789252,0.232039 -0.07223,0 -0.392641,-0.09313 -0.960173,-0.27887 1.000919,-0.164571 1.501775,-0.314325 1.501775,-0.448734 0,-0.350308 -0.686329,-0.588433 -2.059252,-0.711994 -0.134408,-0.0098 -0.381794,-0.03069 -0.743214,-0.06191 0.04101,-0.05106 0.335491,-0.10795 0.88265,-0.170656 0.464343,-0.0508 0.789252,-0.07699 0.974989,-0.07699 2.456656,0 4.015052,1.192742 4.675981,3.577431 0.114036,-0.09419 0.170657,-0.251883 0.170657,-0.470958 0,-0.283104 -0.08255,-0.638704 -0.247915,-1.067594 -0.06218,-0.167481 -0.160602,-0.418571 -0.294481,-0.753269 0.846137,1.078177 1.27,2.100263 1.27,3.064934 0,0.508264 -0.119327,0.969433 -0.356658,1.384035 -0.154253,0.279665 -0.443971,0.637117 -0.866775,1.073679 -0.423334,0.435504 -0.711994,0.772584 -0.86704,1.010709 0.567796,-0.154252 0.939535,-0.27358 1.114954,-0.356394 0.391848,-0.175154 0.748242,-0.438679 1.068123,-0.788988 0,0.133615 -0.05688,0.335492 -0.170127,0.602986 z m -6.750579,-6.084359 c 0,0.185473 -0.103452,0.303742 -0.309563,0.35613 l -0.402431,0.06138 c -0.144727,0.07197 -0.356394,0.356658 -0.634471,0.851958 -0.03148,-0.154781 -0.07752,-0.370946 -0.1397,-0.650346 -0.09287,0.01032 -0.247385,0.09287 -0.464344,0.24818 -0.09287,0.0717 -0.242622,0.180975 -0.449527,0.325173 0.06218,-0.371475 0.269082,-0.747713 0.619655,-1.130036 0.371475,-0.423598 0.732895,-0.634471 1.083733,-0.634471 0.464344,-0.0011 0.696648,0.190236 0.696648,0.572029 z m 2.693987,1.424517 c 0,0.175419 -0.09551,0.322527 -0.286543,0.441061 -0.19103,0.118797 -0.379413,0.178329 -0.564886,0.178329 -0.248179,0 -0.470164,-0.139436 -0.665956,-0.418042 -0.237596,-0.340519 -0.479954,-0.56224 -0.727604,-0.666221 0.05133,-0.05106 0.113506,-0.07752 0.186266,-0.07752 0.09234,0 0.249767,0.07223 0.471752,0.216429 0.221457,0.145257 0.363803,0.216694 0.42598,0.216694 0.05159,0 0.136525,-0.0717 0.255058,-0.216694 0.118533,-0.144197 0.250296,-0.216429 0.395023,-0.216429 0.340783,0 0.51091,0.181504 0.51091,0.542396 z"
       id="path2404"
       style="stroke-width:0.264583" />
    <path
       fill="#0d0f0f"
       d="m 11.680294,11.136843 -0.758296,2.559843 H 4.6193586 v -0.547158 c 0.306123,-0.341048 0.976841,-1.028965 2.012685,-2.065073 0.623623,-0.623623 1.241425,-1.2834932 1.853406,-1.9780252 0.306123,-0.340518 0.541867,-0.635264 0.705644,-0.882385 0.36486,-0.529167 0.547688,-1.07024 0.547688,-1.624277 0,-0.541073 -0.167482,-1.017588 -0.502973,-1.429279 -0.335227,-0.412486 -0.768086,-0.618596 -1.297782,-0.618596 -1.141148,0 -2.035704,0.77126 -2.682875,2.312987 l -0.565414,-0.211931 c 0.76491,-2.165615 1.970616,-3.248025 3.618971,-3.248025 0.812006,0 1.503362,0.276225 2.0740684,0.829469 0.571236,0.553244 0.856192,1.235604 0.856192,2.047875 0,1.035844 -0.59399,2.04761 -1.7827624,3.036887 l -1.235075,1.0228792 c -0.788723,0.659342 -1.442773,1.277144 -1.959505,1.853936 -0.03598,0.03572 -0.106362,0.118004 -0.212195,0.24765 h 3.283479 c 0.505883,0 0.8887354,-0.09975 1.1469684,-0.300302 0.223573,-0.176742 0.441854,-0.512498 0.653521,-1.006211 z"
       id="path2406"
       style="stroke-width:0.264583" />
  </g>
</svg>
