<?xml version="1.0" encoding="UTF-8" standalone="no"?>
<svg
   xmlns:dc="http://purl.org/dc/elements/1.1/"
   xmlns:cc="http://creativecommons.org/ns#"
   xmlns:rdf="http://www.w3.org/1999/02/22-rdf-syntax-ns#"
   xmlns:svg="http://www.w3.org/2000/svg"
   xmlns="http://www.w3.org/2000/svg"
   xmlns:sodipodi="http://sodipodi.sourceforge.net/DTD/sodipodi-0.dtd"
   xmlns:inkscape="http://www.inkscape.org/namespaces/inkscape"
   width="101"
   height="101"
   viewBox="0 0 26.722918 26.722918"
   version="1.1"
   id="svg1373"
   inkscape:version="1.0.1 (3bc2e813f5, 2020-09-07)"
   sodipodi:docname="mana_white.svg">
  <defs
     id="defs1367" />
  <sodipodi:namedview
     id="base"
     pagecolor="#ffffff"
     bordercolor="#666666"
     borderopacity="1.0"
     inkscape:pageopacity="0.0"
     inkscape:pageshadow="2"
     inkscape:zoom="1.979899"
     inkscape:cx="117.43847"
     inkscape:cy="151.29002"
     inkscape:document-units="mm"
     inkscape:current-layer="layer1"
     inkscape:document-rotation="0"
     showgrid="false"
     units="px"
     inkscape:window-width="2560"
     inkscape:window-height="1377"
     inkscape:window-x="1912"
     inkscape:window-y="-8"
     inkscape:window-maximized="1" />
  <metadata
     id="metadata1370">
    <rdf:RDF>
      <cc:Work
         rdf:about="">
        <dc:format>image/svg+xml</dc:format>
        <dc:type
           rdf:resource="http://purl.org/dc/dcmitype/StillImage" />
        <dc:title></dc:title>
      </cc:Work>
    </rdf:RDF>
  </metadata>
  <g
     inkscape:label="Layer 1"
     inkscape:groupmode="layer"
     id="layer1">
    <g
       id="g2256"
       style="fill:none;stroke:#000000;stroke-opacity:1"
       transform="matrix(0.26458333,0,0,0.26458333,139.03854,0.13229167)">
      <circle
         fill="#f8f6d8"
         cx="-475"
         cy="50"
         r="50"
         id="circle2254"
         style="fill:none;stroke:#000000;stroke-opacity:1" />
    </g>
    <path
       fill="#0d0f0f"
       d="m 25.9797,15.230475 c -1.735931,-0.978694 -2.849033,-1.468702 -3.338248,-1.468702 -0.3556,0 -0.633677,0.27305 -0.834496,0.818091 -0.200554,0.545836 -0.600604,0.817563 -1.201473,0.817563 -0.245004,0 -0.745595,-0.0889 -1.502304,-0.2667 -0.422804,0.645583 -0.634471,1.057275 -0.634471,1.235075 0,0.245004 0.182298,0.5334 0.5461,0.868098 0.363803,0.333904 0.670719,0.500327 0.92128,0.500327 0.159279,0 0.37465,-0.03307 0.647964,-0.100277 0.272786,-0.06615 0.455348,-0.09975 0.5461,-0.09975 0.273315,0 0.409311,0.500856 0.409311,1.502304 0,0.956998 -0.22225,2.4257 -0.667544,4.406371 -0.578908,-2.270125 -1.190625,-3.405452 -1.835679,-3.405452 -0.08943,0 -0.272786,0.06668 -0.550863,0.201083 -0.278606,0.132821 -0.484187,0.199496 -0.617537,0.199496 -0.645054,0 -1.223698,-0.589227 -1.735932,-1.769533 -1.023672,0.156104 -1.535906,0.679185 -1.535906,1.570037 0,0.445558 0.205581,0.800894 0.618067,1.067594 0.410898,0.2667 0.617537,0.456935 0.617537,0.567531 0,0.601398 -0.879475,1.525058 -2.637631,2.770981 -0.934244,0.667545 -1.580356,1.134799 -1.935692,1.401499 0.310621,-0.40005 0.6223,-0.922602 0.934773,-1.568451 0.3556,-0.734219 0.53393,-1.30175 0.53393,-1.702858 0,-0.22225 -0.255853,-0.534458 -0.767821,-0.934773 -0.512234,-0.40005 -0.767292,-0.823119 -0.767292,-1.268148 0,-0.377825 0.132821,-0.844815 0.40005,-1.402027 -0.289454,-0.333904 -0.633677,-0.501385 -1.034521,-0.501385 -0.8903231,0 -1.3348231,0.289983 -1.3348231,0.867833 0,-0.400579 0,-0.100277 0,0.901171 0.0217,0.734483 -0.534458,1.101725 -1.669785,1.101725 -0.867569,0 -2.325952,-0.200819 -4.3727692,-0.600869 2.3145752,-0.578908 3.4715982,-1.246452 3.4715982,-2.002896 0,0.0889 -0.04445,-0.1778 -0.13335,-0.801158 -0.08943,-0.688975 0.400579,-1.312598 1.468702,-1.868752 -0.200554,-1.023144 -0.73369,-1.536171 -1.602581,-1.536171 -0.13335,0 -0.378884,0.233892 -0.734219,0.700352 -0.356129,0.468577 -0.689769,0.701675 -1.000919,0.701675 -0.5344583,0 -1.2247562,-0.578379 -2.0695708,-1.73646 -0.4011083,-0.57785 -1.0133542,-1.4351 -1.83647288,-2.570428 0.51170418,0.267759 1.02367288,0.534459 1.53590618,0.801953 0.6675438,0.31115 1.201473,0.467254 1.6025813,0.467254 0.3116792,0 0.6175372,-0.272786 0.9178392,-0.818092 0.300303,-0.545306 0.69559,-0.818092 1.185069,-0.818092 0.0672,0 0.512234,0.13335 1.335352,0.401109 0.422275,-0.645319 0.634471,-1.12395 0.634471,-1.435629 0,-0.26723 -0.16166,-0.5730875 -0.484187,-0.9183688 -0.323057,-0.3447501 -0.617538,-0.5172584 -0.884767,-0.5172584 -0.111654,0 -0.283633,0.033073 -0.51779,0.1002771 -0.233098,0.066675 -0.405606,0.1002771 -0.516731,0.1002771 -0.401108,0 -0.601398,-0.5008563 -0.601398,-1.5023042 0,-0.2672292 0.256381,-1.7912292 0.76835,-4.5733231 -0.02275,0.333375 0.121973,0.956998 0.433652,1.8690169 0.378354,1.113102 0.823119,1.6692562 1.335882,1.6692562 0.08837,0 0.2667,-0.066675 0.533929,-0.2005542 0.2667,-0.13335 0.478102,-0.1994958 0.633941,-0.1994958 0.511705,0 0.934244,0.2894542 1.268677,0.8670396 l 0.5008571,0.9011708 c 0.467254,0 0.856721,-0.1664229 1.167871,-0.5003271 0.311679,-0.3339041 0.467783,-0.7347479 0.467783,-1.202002 0,-0.4894792 -0.205581,-0.8625417 -0.617537,-1.1183938 -0.412486,-0.2558526 -0.618067,-0.4505856 -0.618067,-0.5839356 0,-0.467783 0.734748,-1.2573 2.20345,-2.370137 1.179248,-0.889794 1.947069,-1.41287503 2.303727,-1.56898003 -0.956998,1.29090303 -1.435629,2.23599403 -1.435629,2.83739203 0,0.311679 0.188648,0.645848 0.567531,1.001448 0.467254,0.422804 0.734219,0.7233709 0.800894,0.9011709 0.22225,0.5127625 0.200025,1.2133792 -0.06668,2.103173 0.600869,0.4233333 1.056746,0.6339416 1.368954,0.6339416 0.644525,0 0.967846,-0.3344333 0.967846,-1.0014479 0,-0.066675 -0.02778,-0.2780771 -0.08308,-0.6339417 -0.05636,-0.3556 -0.07223,-0.5561541 -0.05054,-0.6008687 0.0889,-0.3116792 0.701146,-0.4677833 1.835944,-0.4677833 0.711994,0 2.191544,0.2005541 4.439973,0.6013979 -0.490008,0.13335 -1.224227,0.333375 -2.202921,0.6006041 -0.890323,0.2672292 -1.335881,0.5675313 -1.335881,0.9011709 0,0.1561041 0.0553,0.4228041 0.166952,0.8008937 0.111125,0.3788834 0.167481,0.6561667 0.167481,0.835025 0,0.31115 -0.200554,0.6006042 -0.600869,0.8670388 l -1.135327,0.801952 c 0.26723,0.490009 0.44503,0.779198 0.534459,0.867569 0.22225,0.2667 0.522552,0.400579 0.901171,0.400579 0.267229,0 0.511704,-0.233627 0.734218,-0.700616 0.22225,-0.467784 0.578909,-0.701146 1.068123,-0.701146 0.600604,0 1.280054,0.556683 2.036498,1.669785 0.421481,0.624417 1.078177,1.569773 1.9685,2.838186 z m -7.410185,-1.935692 c 0,-1.423723 -0.523611,-2.659327 -1.569509,-3.7057537 -1.045898,-1.0458979 -2.280973,-1.5689792 -3.705225,-1.5689792 -1.447006,0 -2.693458,0.5177896 -3.7388271,1.5528396 -1.045898,1.0345203 -1.580356,2.2754163 -1.602052,3.7216283 -0.02275,1.424253 0.505883,2.653771 1.585383,3.687763 1.0795001,1.03505 2.3312441,1.55284 3.7552321,1.55284 1.513152,0 2.776008,-0.495565 3.788304,-1.485636 1.013354,-0.989542 1.508389,-2.241021 1.486694,-3.754702 z m -0.500857,0 c 0,1.357577 -0.456406,2.482056 -1.368954,3.370792 -0.913077,0.890852 -2.047875,1.335881 -3.404923,1.335881 -1.313127,0 -2.437077,-0.455877 -3.3713211,-1.368954 -0.934244,-0.91149 -1.402027,-2.024592 -1.402027,-3.337719 0,-1.290373 0.472281,-2.398183 1.417902,-3.3213141 0.9466801,-0.9233958 2.0645441,-1.3858875 3.3554461,-1.3858875 1.290373,0 2.408767,0.4672542 3.354917,1.4025562 0.945621,0.9347724 1.41896,2.0359684 1.41896,3.3046454 z"
       id="path2258"
       style="stroke-width:0.264583" />
  </g>
</svg>
