<?xml version="1.0" encoding="UTF-8" standalone="no"?>
<svg
   xmlns:dc="http://purl.org/dc/elements/1.1/"
   xmlns:cc="http://creativecommons.org/ns#"
   xmlns:rdf="http://www.w3.org/1999/02/22-rdf-syntax-ns#"
   xmlns:svg="http://www.w3.org/2000/svg"
   xmlns="http://www.w3.org/2000/svg"
   xmlns:sodipodi="http://sodipodi.sourceforge.net/DTD/sodipodi-0.dtd"
   xmlns:inkscape="http://www.inkscape.org/namespaces/inkscape"
   width="51"
   height="101"
   viewBox="0 0 13.49375 26.722918"
   version="1.1"
   id="svg1373"
   inkscape:version="1.0.1 (3bc2e813f5, 2020-09-07)"
   sodipodi:docname="mana_half_white.svg">
  <defs
     id="defs1367" />
  <sodipodi:namedview
     id="base"
     pagecolor="#ffffff"
     bordercolor="#666666"
     borderopacity="1.0"
     inkscape:pageopacity="0.0"
     inkscape:pageshadow="2"
     inkscape:zoom="1.979899"
     inkscape:cx="117.43847"
     inkscape:cy="151.29002"
     inkscape:document-units="mm"
     inkscape:current-layer="layer1"
     inkscape:document-rotation="0"
     showgrid="false"
     units="px"
     inkscape:window-width="2560"
     inkscape:window-height="1377"
     inkscape:window-x="1912"
     inkscape:window-y="-8"
     inkscape:window-maximized="1" />
  <metadata
     id="metadata1370">
    <rdf:RDF>
      <cc:Work
         rdf:about="">
        <dc:format>image/svg+xml</dc:format>
        <dc:type
           rdf:resource="http://purl.org/dc/dcmitype/StillImage" />
        <dc:title></dc:title>
      </cc:Work>
    </rdf:RDF>
  </metadata>
  <g
     inkscape:label="Layer 1"
     inkscape:groupmode="layer"
     id="layer1">
    <g
       id="g2472"
       style="fill:none;fill-opacity:1;stroke:#000000;stroke-opacity:1"
       transform="matrix(0.26458333,0,0,0.26458333,30.294791,-110.99271)">
      <path
         fill="#f8f6d8"
         d="m -114,420 c 0,33.023 0,67.188 0,100 27.613,0 50,-22.387 50,-50.002 C -64,442.385 -86.387,420 -114,420 Z"
         id="path2470"
         style="fill:none;fill-opacity:1;stroke:#000000;stroke-opacity:1" />
    </g>
    <path
       fill="#0d0f0f"
       d="M 10.836009,12.393615 C 10.079566,11.280513 9.3998513,10.72383 8.7995123,10.72383 c -0.489479,0 -0.845873,0.233627 -1.068123,0.701675 -0.222779,0.467254 -0.467254,0.700088 -0.734219,0.700088 -0.378883,0 -0.678921,-0.134409 -0.901171,-0.401109 -0.08943,-0.08837 -0.267229,-0.377825 -0.534458,-0.867568 l 1.135327,-0.800894 c 0.400579,-0.2677589 0.600869,-0.5566839 0.600869,-0.8670399 0,-0.178858 -0.05636,-0.456935 -0.167481,-0.835025 -0.111655,-0.378354 -0.166952,-0.645054 -0.166952,-0.800894 0,-0.333904 0.445558,-0.63447 1.335881,-0.90117 0.978694,-0.267759 1.7131757,-0.467255 2.2029197,-0.600869 -2.2484287,-0.400579 -3.7279787,-0.600604 -4.4399717,-0.600604 -1.134798,0 -1.747309,0.156104 -1.835944,0.467254 -0.0217,0.04551 -0.0056,0.246062 0.05054,0.601398 0.0553,0.3556 0.08308,0.567002 0.08308,0.633677 0,0.667544 -0.323586,1.001448 -0.967846,1.001448 -0.312208,0 -0.767821,-0.210873 -1.368954,-0.633942 0.2667,-0.889265 0.288925,-1.590675 0.06667,-2.102644 -0.06667,-0.1778 -0.333904,-0.478631 -0.800893,-0.901171 -0.37888401,-0.356129 -0.56753201,-0.689768 -0.56753201,-1.001447 0,-0.600869 0.47863201,-1.546755 1.43563001,-2.83765704 -0.321469,0.140494 -0.980282,0.58234804 -1.96982301,1.31921304 0,1.998927 0,4.008966 0,6.027473 1.39567701,0.01667 2.60905601,0.53631 3.63855001,1.565804 1.045898,1.0458979 1.569508,2.2815019 1.569508,3.7052249 0.0217,1.513681 -0.473339,2.765689 -1.486164,3.755231 -0.99748,0.976048 -2.23864,1.468702 -3.72163001,1.48299 0,2.007658 0,4.006585 0,5.989902 1.64121101,-1.183481 2.47068001,-2.067984 2.47068001,-2.649009 0,-0.111125 -0.20664,-0.30136 -0.617538,-0.567795 -0.412485,-0.26723 -0.618067,-0.62283 -0.618067,-1.068123 0,-0.889794 0.512234,-1.413404 1.535907,-1.569509 0.512233,1.180307 1.090348,1.769534 1.735931,1.769534 0.13335,0 0.338931,-0.0672 0.617537,-0.200025 0.278077,-0.133879 0.461434,-0.201084 0.550863,-0.201084 0.645054,0 1.256771,1.135857 1.835679,3.405452 0.445558,-1.980141 0.667544,-3.449372 0.667544,-4.405841 0,-1.001448 -0.135996,-1.502834 -0.409311,-1.502834 -0.09102,0 -0.273314,0.03413 -0.5461,0.100278 -0.273314,0.06668 -0.48895,0.100277 -0.647964,0.100277 -0.250561,0 -0.557477,-0.166423 -0.921279,-0.500857 -0.363802,-0.334433 -0.5461,-0.623093 -0.5461,-0.868098 0,-0.1778 0.211931,-0.588697 0.63447,-1.235075 0.756444,0.17833 1.2573,0.26723 1.502305,0.26723 0.600868,0 1.000918,-0.271198 1.201473,-0.818092 0.201083,-0.544777 0.47916,-0.818092 0.834495,-0.818092 0.48948,0 1.6025807,0.490009 3.3382477,1.468702 -0.891117,-1.268148 -1.547813,-2.214033 -1.970089,-2.836598 z"
       id="path2476"
       style="stroke-width:0.264583" />
  </g>
</svg>
