<?xml version="1.0" encoding="UTF-8" standalone="no"?>
<svg
   xmlns:dc="http://purl.org/dc/elements/1.1/"
   xmlns:cc="http://creativecommons.org/ns#"
   xmlns:rdf="http://www.w3.org/1999/02/22-rdf-syntax-ns#"
   xmlns:svg="http://www.w3.org/2000/svg"
   xmlns="http://www.w3.org/2000/svg"
   xmlns:sodipodi="http://sodipodi.sourceforge.net/DTD/sodipodi-0.dtd"
   xmlns:inkscape="http://www.inkscape.org/namespaces/inkscape"
   width="101"
   height="101"
   viewBox="0 0 26.722918 26.722918"
   version="1.1"
   id="svg1373"
   inkscape:version="1.0.1 (3bc2e813f5, 2020-09-07)"
   sodipodi:docname="mana_hybrid_ub.svg">
  <defs
     id="defs1367" />
  <sodipodi:namedview
     id="base"
     pagecolor="#ffffff"
     bordercolor="#666666"
     borderopacity="1.0"
     inkscape:pageopacity="0.0"
     inkscape:pageshadow="2"
     inkscape:zoom="1.979899"
     inkscape:cx="117.43847"
     inkscape:cy="151.29002"
     inkscape:document-units="mm"
     inkscape:current-layer="layer1"
     inkscape:document-rotation="0"
     showgrid="false"
     units="px"
     inkscape:window-width="2560"
     inkscape:window-height="1377"
     inkscape:window-x="1912"
     inkscape:window-y="-8"
     inkscape:window-maximized="1" />
  <metadata
     id="metadata1370">
    <rdf:RDF>
      <cc:Work
         rdf:about="">
        <dc:format>image/svg+xml</dc:format>
        <dc:type
           rdf:resource="http://purl.org/dc/dcmitype/StillImage" />
        <dc:title></dc:title>
      </cc:Work>
    </rdf:RDF>
  </metadata>
  <g
     inkscape:label="Layer 1"
     inkscape:groupmode="layer"
     id="layer1">
    <g
       id="g2292"
       style="fill:none;stroke:#000000;stroke-opacity:1"
       transform="matrix(0.26458333,0,0,0.26458333,194.60104,-27.649223)">
      <path
         fill="#bab1ab"
         d="m -649.651,119.637 c 9.052,9.051 14.651,21.551 14.651,35.36 0,27.616 -22.387,50.003 -50,50.003 -13.807,0 -26.305,-5.596 -35.354,-14.646"
         id="path2288"
         style="fill:none;stroke:#000000;stroke-opacity:1" />
      <path
         fill="#c1d7e9"
         d="m -649.651,119.638 c -9.048,-9.043 -21.547,-14.637 -35.349,-14.637 -27.613,0 -50,22.384 -50,49.997 0,13.807 5.597,26.309 14.646,35.356 z"
         id="path2290"
         style="fill:none;stroke:#000000;stroke-opacity:1" />
    </g>
    <path
       fill="#0d0f0f"
       d="m 11.010899,12.873303 c -0.712258,0.7239 -1.5893518,1.086644 -2.6315448,1.086644 -1.169988,0 -2.097882,-0.400315 -2.784475,-1.201473 -0.648759,-0.763323 -0.972873,-1.735667 -0.972873,-2.9175612 0,-1.271323 0.552979,-2.720975 1.659202,-4.348692 0.902494,-1.334558 1.964002,-2.504281 3.184789,-3.508904 -0.178064,0.814123 -0.266964,1.392238 -0.266964,1.735402 0,0.788459 0.247385,1.558132 0.743744,2.307961 0.6101278,0.889793 1.0744718,1.551252 1.3922368,1.983316 0.495829,0.750359 0.744008,1.481667 0.744008,2.1926032 0,1.056481 -0.356394,1.945746 -1.068123,2.670704 z m -0.01905,-4.0708802 c -0.190765,-0.426243 -0.413015,-0.709347 -0.667544,-0.849577 0.03837,0.07647 0.05715,0.184415 0.05715,0.324909 0,0.267229 -0.07593,0.648229 -0.2286,1.143793 L 9.9046772,10.184872 c 0,0.444764 0.2225138,0.667014 0.6675428,0.667014 0.470164,0 0.705908,-0.311679 0.705908,-0.9342442 -2.64e-4,-0.318029 -0.09578,-0.689769 -0.286279,-1.115219 z"
       id="path2294"
       style="stroke-width:0.264583" />
    <path
       fill="#0d0f0f"
       d="m 23.844249,17.591882 c 0,0.71464 -0.259821,1.202267 -0.779727,1.461823 -0.151871,0.07594 -0.628121,0.179388 -1.429808,0.308504 -0.519378,0.08731 -0.779463,0.287338 -0.779463,0.600869 v 1.315773 c 0,0.0553 0.01667,0.222779 0.04868,0.504031 l 0.04895,0.520171 c 0,0.16219 -0.0381,0.427831 -0.114035,0.795867 -0.205581,0.04313 -0.443971,0.09208 -0.71464,0.146843 -0.08678,-0.325437 -0.12991,-0.547422 -0.12991,-0.66675 0,-0.05371 0.01323,-0.135466 0.04048,-0.243681 0.02699,-0.107685 0.04075,-0.189441 0.04075,-0.243946 0,-0.07514 -0.06694,-0.286543 -0.201613,-0.633412 h -0.252147 c -0.03334,0.05424 -0.04419,0.124883 -0.0336,0.210873 0.04339,0.184414 0.05953,0.341048 0.04895,0.471223 -0.184414,0.12991 -0.438414,0.303212 -0.763322,0.519906 -0.07647,-0.0217 -0.102923,-0.03254 -0.08149,-0.03254 v -1.153319 c -0.02143,-0.05371 -0.07541,-0.07541 -0.162454,-0.06509 h -0.194998 l -0.194998,1.52691 c -0.151606,0.01085 -0.335492,0.01085 -0.551921,0 -0.07594,-0.357452 -0.211402,-0.887412 -0.406135,-1.591998 h -0.13044 c -0.119062,0.379148 -0.183885,0.584994 -0.194998,0.617538 0,0.04313 0.01376,0.126735 0.04101,0.251619 0.02672,0.124883 0.04048,0.208227 0.04048,0.251618 0,0.03228 -0.01111,0.113771 -0.03307,0.243682 l -0.04868,0.39026 c -0.02196,0.0209 -0.04842,0.03175 -0.08096,0.03175 -0.324908,0 -0.541867,-0.08123 -0.649552,-0.243152 -0.109008,-0.162719 -0.1524,-0.39026 -0.13044,-0.682625 l 0.13044,-1.948656 c 0,-0.03254 0.01032,-0.07594 0.03201,-0.130175 0.0217,-0.05371 0.03254,-0.09208 0.03254,-0.113242 0,-0.08678 -0.09207,-0.26035 -0.27596,-0.5207 -0.03254,-0.01058 -0.20029,-0.04895 -0.503767,-0.114035 -0.183885,-0.04286 -0.546894,-0.118798 -1.087966,-0.226748 -0.747448,-0.140494 -1.121305,-0.741627 -1.121305,-1.802871 0,-1.581679 0.650082,-2.896923 1.949186,-3.947583 0.05398,0.292629 0.146579,0.682096 0.276489,1.169458 0.09737,0.02223 0.308769,0.07117 0.633413,0.146579 0.06535,0.02143 0.395287,0.140759 0.990864,0.357452 -0.302947,-0.183885 -0.6985,-0.481012 -1.185333,-0.892968 -0.184414,-0.21643 -0.276754,-0.579438 -0.276754,-1.088232 0,-0.119591 0.205846,-0.259821 0.617802,-0.423333 0.368035,-0.151342 0.643996,-0.237067 0.82841,-0.259027 0.584465,-0.07567 1.033992,-0.114036 1.348317,-0.114036 1.353344,0 2.447396,0.346869 3.281098,1.040342 -0.270404,0.314325 -0.736335,0.649023 -1.396735,1.007004 0.25982,0.01085 0.638968,-0.09181 1.137179,-0.309033 0.497946,-0.215635 0.709083,-0.324908 0.633412,-0.324908 0.08652,0 0.260086,0.173566 0.519907,0.519906 0.194468,0.259821 0.351631,0.492919 0.470958,0.6985 0.346604,0.617273 0.579437,1.284023 0.698764,1.998133 0,0.249238 0.0053,0.427831 0.01614,0.535781 z m -6.221942,0.293159 c 0,-0.465932 -0.202935,-0.907257 -0.608806,-1.324505 -0.4064,-0.416983 -0.842698,-0.62521 -1.3081,-0.62521 -0.411427,0 -0.773906,0.174625 -1.088231,0.523346 -0.314061,0.348985 -0.470959,0.736071 -0.470959,1.161521 0,0.370416 0.178594,0.610923 0.536046,0.719402 0.227542,0.06562 0.546629,0.103716 0.958057,0.114829 h 0.893497 c 0.725753,0.0093 1.088496,-0.180446 1.088496,-0.569383 z m 1.770857,2.014008 v -0.502973 c -0.07567,-0.141023 -0.151607,-0.287867 -0.227013,-0.439208 -0.06509,-0.216165 -0.184415,-0.519377 -0.357452,-0.909902 l -0.178858,1.900766 c 0,0.1524 -0.03228,0.227806 -0.09763,0.227806 -0.04313,0 -0.07593,-0.01058 -0.09737,-0.03254 -0.07594,-1.147763 -0.113507,-1.646238 -0.113507,-1.493838 v -0.568325 c -0.02196,-0.03334 -0.04895,-0.04974 -0.08149,-0.04974 -0.368036,0.380206 -0.551921,0.991658 -0.551921,1.835679 0,0.465931 0.04313,0.752739 0.129646,0.861748 0.08705,-0.0217 0.183885,-0.0598 0.292894,-0.114036 0.04313,-0.02196 0.167481,-0.03254 0.373327,-0.03254 0.205052,0 0.455083,0.06482 0.746918,0.194469 0.10848,-7.94e-4 0.162455,-0.292364 0.162455,-0.877358 z m 3.671358,-2.263775 c 0,-0.435504 -0.162454,-0.825236 -0.487363,-1.168929 -0.324908,-0.343165 -0.6985,-0.514615 -1.120245,-0.514615 -0.455084,0 -0.880534,0.208227 -1.275557,0.624681 -0.395552,0.416984 -0.593195,0.853017 -0.593195,1.308365 0,0.378883 0.184414,0.56806 0.552449,0.56806 h 1.867694 c 0.704321,-0.01058 1.056217,-0.282575 1.056217,-0.817562 z"
       id="path2296"
       style="stroke-width:0.264583" />
  </g>
</svg>
