<?xml version="1.0" encoding="UTF-8" standalone="no"?>
<svg
   xmlns:dc="http://purl.org/dc/elements/1.1/"
   xmlns:cc="http://creativecommons.org/ns#"
   xmlns:rdf="http://www.w3.org/1999/02/22-rdf-syntax-ns#"
   xmlns:svg="http://www.w3.org/2000/svg"
   xmlns="http://www.w3.org/2000/svg"
   xmlns:sodipodi="http://sodipodi.sourceforge.net/DTD/sodipodi-0.dtd"
   xmlns:inkscape="http://www.inkscape.org/namespaces/inkscape"
   width="101"
   height="101"
   viewBox="0 0 26.722918 26.722918"
   version="1.1"
   id="svg1373"
   inkscape:version="1.0.1 (3bc2e813f5, 2020-09-07)"
   sodipodi:docname="mana_hybrid_2w.svg">
  <defs
     id="defs1367" />
  <sodipodi:namedview
     id="base"
     pagecolor="#ffffff"
     bordercolor="#666666"
     borderopacity="1.0"
     inkscape:pageopacity="0.0"
     inkscape:pageshadow="2"
     inkscape:zoom="1.979899"
     inkscape:cx="117.43847"
     inkscape:cy="151.29002"
     inkscape:document-units="mm"
     inkscape:current-layer="layer1"
     inkscape:document-rotation="0"
     showgrid="false"
     units="px"
     inkscape:window-width="2560"
     inkscape:window-height="1377"
     inkscape:window-x="1912"
     inkscape:window-y="-8"
     inkscape:window-maximized="1" />
  <metadata
     id="metadata1370">
    <rdf:RDF>
      <cc:Work
         rdf:about="">
        <dc:format>image/svg+xml</dc:format>
        <dc:type
           rdf:resource="http://purl.org/dc/dcmitype/StillImage" />
        <dc:title></dc:title>
      </cc:Work>
    </rdf:RDF>
  </metadata>
  <g
     inkscape:label="Layer 1"
     inkscape:groupmode="layer"
     id="layer1">
    <g
       id="g2372"
       style="fill:none;stroke:#000000;stroke-opacity:1"
       transform="matrix(0.26458333,0,0,0.26458333,250.16354,-55.430472)">
      <path
         fill="#f8f6d8"
         d="m -859.651,224.637 c 9.052,9.051 14.651,21.551 14.651,35.36 0,27.616 -22.386,50.003 -50.001,50.003 -13.806,0 -26.305,-5.596 -35.354,-14.646"
         id="path2368"
         style="fill:none;stroke:#000000;stroke-opacity:1" />
      <path
         fill="#cac5c0"
         d="m -859.651,224.638 c -9.048,-9.044 -21.546,-14.637 -35.35,-14.637 -27.613,0 -49.999,22.384 -49.999,49.997 0,13.807 5.597,26.309 14.646,35.356 z"
         id="path2370"
         style="fill:none;stroke:#000000;stroke-opacity:1" />
    </g>
    <path
       fill="#0d0f0f"
       d="m 11.68029,11.136313 -0.758296,2.560373 H 4.6193542 v -0.547158 c 0.3061229,-0.341312 0.9768417,-1.029494 2.0126853,-2.065073 0.6236229,-0.624152 1.241425,-1.2834932 1.8534063,-1.9780252 0.3061229,-0.340783 0.5418666,-0.635264 0.7056437,-0.88265 0.3648604,-0.528902 0.5476875,-1.070504 0.5476875,-1.624012 0,-0.541073 -0.1674812,-1.018117 -0.5029729,-1.429279 -0.3352271,-0.413015 -0.7680854,-0.618861 -1.2977812,-0.618861 -1.141148,0 -2.0357042,0.771525 -2.6828749,2.313252 l -0.5654146,-0.21246 c 0.7649104,-2.165086 1.9706165,-3.247496 3.6189707,-3.247496 0.8120063,0 1.5033625,0.276225 2.0740689,0.829204 0.571236,0.553509 0.856192,1.235604 0.856192,2.04814 0,1.035844 -0.59399,2.047081 -1.782763,3.036358 L 8.221127,10.342034 c -0.7887229,0.659342 -1.4427729,1.277144 -1.9595041,1.853407 -0.035983,0.03625 -0.1063625,0.118004 -0.2121959,0.24765 h 3.2834792 c 0.5058833,0 0.8887358,-0.09975 1.1469688,-0.299773 0.223573,-0.177271 0.441854,-0.512498 0.653521,-1.007004 z"
       id="path2374"
       style="stroke-width:0.264583" />
    <path
       fill="#0d0f0f"
       d="m 23.415619,19.47598 c -0.644525,-0.599017 -1.072621,-0.92366 -1.282435,-0.974196 -0.152665,-0.03651 -0.300303,0.05239 -0.442384,0.266171 -0.142081,0.213783 -0.341841,0.288925 -0.600339,0.227013 -0.104775,-0.02514 -0.310886,-0.115094 -0.617273,-0.269082 -0.248179,0.234157 -0.381265,0.389202 -0.399521,0.465138 -0.02514,0.105304 0.02328,0.248179 0.145521,0.429154 0.121708,0.180975 0.236537,0.283369 0.343958,0.309563 0.06826,0.0164 0.164571,0.02408 0.28866,0.02355 0.123561,-2.64e-4 0.205582,0.0042 0.245005,0.01349 0.117475,0.02752 0.124089,0.256911 0.02064,0.687388 -0.0979,0.410633 -0.344487,1.019175 -0.738981,1.823508 -0.01535,-1.034256 -0.161131,-1.58459 -0.43815,-1.650735 -0.03836,-0.0093 -0.12409,0.0011 -0.257175,0.02937 -0.13335,0.02831 -0.2286,0.03625 -0.28575,0.02249 -0.277019,-0.06641 -0.465138,-0.379148 -0.563563,-0.938213 -0.455877,-0.03836 -0.729456,0.13388 -0.821002,0.515673 -0.04577,0.192088 0.0064,0.365919 0.15584,0.522817 0.149225,0.156633 0.218017,0.259027 0.207169,0.306917 -0.06165,0.258762 -0.534723,0.564356 -1.416844,0.918898 -0.470165,0.191029 -0.795338,0.324908 -0.975783,0.402695 0.174095,-0.1397 0.362214,-0.332316 0.562504,-0.57732 0.228335,-0.279665 0.363008,-0.504296 0.404548,-0.677069 0.02275,-0.09499 -0.0553,-0.255852 -0.233627,-0.479954 -0.178859,-0.224632 -0.245005,-0.432329 -0.199232,-0.623094 0.03863,-0.162454 0.143669,-0.348985 0.315648,-0.560917 -0.08996,-0.172773 -0.220662,-0.280458 -0.393171,-0.321468 -0.382058,-0.09181 -0.60272,-0.01323 -0.662252,0.235743 0.04101,-0.172243 0.01032,-0.04313 -0.09234,0.386821 -0.06615,0.3175 -0.3429,0.418042 -0.830263,0.30189 -0.372798,-0.08943 -0.9779,-0.325173 -1.8161,-0.707496 1.053571,-0.01032 1.618721,-0.178329 1.696244,-0.502973 -0.0085,0.03863 -7.94e-4,-0.08149 0.0254,-0.357981 0.03254,-0.305329 0.306917,-0.523082 0.82259,-0.652198 0.01905,-0.459846 -0.156898,-0.734748 -0.529961,-0.823648 -0.05715,-0.01402 -0.186796,0.06112 -0.387085,0.225689 -0.201348,0.163778 -0.368829,0.230188 -0.502179,0.197909 -0.229394,-0.05424 -0.466196,-0.373856 -0.710142,-0.957792 -0.112713,-0.289983 -0.287602,-0.72046 -0.524669,-1.292489 0.192352,0.167216 0.38444,0.334962 0.577056,0.50165 0.254794,0.20267 0.468313,0.324114 0.640027,0.365918 0.13388,0.03149 0.293159,-0.05424 0.478367,-0.257704 0.184679,-0.203464 0.382323,-0.279929 0.592667,-0.229129 0.02937,0.0069 0.206375,0.109537 0.532341,0.309033 0.247915,-0.233627 0.38788,-0.416983 0.419894,-0.550862 0.02699,-0.115094 -0.01058,-0.262996 -0.113771,-0.444236 -0.102923,-0.181768 -0.212195,-0.285485 -0.327025,-0.313531 -0.04763,-0.01138 -0.124883,-0.01508 -0.232039,-0.01032 -0.107156,0.0053 -0.184679,0.0016 -0.232569,-0.0098 -0.171715,-0.04101 -0.20664,-0.27649 -0.103717,-0.706967 0.02699,-0.114829 0.293952,-0.743214 0.799836,-1.884362 -0.04392,0.140229 -0.04577,0.423333 -0.0056,0.847195 0.04763,0.516732 0.181768,0.800894 0.401637,0.854075 0.0381,0.0087 0.121179,-0.0013 0.250031,-0.03122 0.128059,-0.0299 0.22569,-0.03704 0.2921,-0.02064 0.219604,0.05212 0.371475,0.220133 0.455613,0.502708 l 0.122502,0.437621 c 0.200289,0.04868 0.384704,0.01693 0.552714,-0.09419 0.168275,-0.11139 0.276755,-0.267494 0.324644,-0.468048 0.05001,-0.210344 0,-0.391319 -0.150283,-0.543719 -0.150813,-0.1524 -0.21934,-0.257175 -0.205052,-0.314325 0.04789,-0.200819 0.444235,-0.464344 1.189302,-0.791104 0.597694,-0.260615 0.981339,-0.4064 1.150673,-0.436827 -0.543454,0.456406 -0.846402,0.812271 -0.907786,1.070768 -0.03228,0.134144 0.01455,0.296598 0.140494,0.48895 0.157427,0.229394 0.241036,0.386028 0.251354,0.468578 0.0426,0.243416 -0.03863,0.541602 -0.244739,0.896937 0.214577,0.243417 0.388673,0.380471 0.523081,0.413279 0.276225,0.06615 0.449262,-0.04445 0.518054,-0.330729 0.0069,-0.02884 0.01667,-0.122502 0.02963,-0.281252 0.01217,-0.15875 0.02619,-0.246592 0.03995,-0.26326 0.07064,-0.124884 0.34925,-0.128853 0.836612,-0.01191 0.305858,0.07302 0.920485,0.310886 1.844675,0.713846 -0.224102,0.0071 -0.559858,0.0172 -1.007798,0.03201 -0.409839,0.02275 -0.631825,0.106098 -0.66675,0.249237 -0.01561,0.06694 -0.01958,0.187325 -0.01058,0.360892 0.009,0.173567 0.0048,0.299508 -0.01402,0.375973 -0.03175,0.133879 -0.147638,0.237066 -0.346869,0.310885 l -0.570442,0.227277 c 0.06509,0.237596 0.111125,0.380471 0.140494,0.427302 0.06853,0.137848 0.183092,0.225955 0.345811,0.265113 0.114829,0.02752 0.243945,-0.04763 0.387614,-0.225954 0.143404,-0.1778 0.320675,-0.241565 0.530754,-0.191029 0.258234,0.06138 0.49239,0.369887 0.702998,0.925512 0.11774,0.311415 0.302419,0.785283 0.554567,1.421077 z m -2.983177,-1.592527 c 0.14605,-0.611981 0.04868,-1.195917 -0.293158,-1.752335 -0.341842,-0.556419 -0.818621,-0.908315 -1.429809,-1.05463 -0.621241,-0.148431 -1.210204,-0.05424 -1.7653,0.283105 -0.555096,0.336285 -0.912019,0.814123 -1.070239,1.432983 -0.156105,0.609335 -0.05556,1.191683 0.301889,1.747308 0.356923,0.555096 0.841375,0.906198 1.453092,1.052513 0.649552,0.15531 1.243012,0.0725 1.779323,-0.248709 0.536575,-0.321468 0.877887,-0.808566 1.024202,-1.460235 z m -0.215106,-0.05186 c -0.139436,0.582877 -0.450586,1.01891 -0.934244,1.306777 -0.483129,0.288396 -1.016529,0.363273 -1.599142,0.223837 -0.563827,-0.134937 -0.999596,-0.446352 -1.307306,-0.934243 -0.30771,-0.487892 -0.3937,-1.013355 -0.259027,-1.577182 0.133085,-0.554566 0.449527,-0.981339 0.950648,-1.281112 0.50165,-0.298979 1.028964,-0.382323 1.582737,-0.249502 0.554038,0.132291 0.986632,0.447939 1.296194,0.94615 0.310356,0.499268 0.400315,1.020762 0.27014,1.565275 z"
       id="path2376"
       style="stroke-width:0.264583" />
  </g>
</svg>
