<?xml version="1.0" encoding="UTF-8" standalone="no"?>
<svg
   xmlns:dc="http://purl.org/dc/elements/1.1/"
   xmlns:cc="http://creativecommons.org/ns#"
   xmlns:rdf="http://www.w3.org/1999/02/22-rdf-syntax-ns#"
   xmlns:svg="http://www.w3.org/2000/svg"
   xmlns="http://www.w3.org/2000/svg"
   xmlns:sodipodi="http://sodipodi.sourceforge.net/DTD/sodipodi-0.dtd"
   xmlns:inkscape="http://www.inkscape.org/namespaces/inkscape"
   width="101"
   height="101"
   viewBox="0 0 26.722918 26.722918"
   version="1.1"
   id="svg1373"
   inkscape:version="1.0.1 (3bc2e813f5, 2020-09-07)"
   sodipodi:docname="mana_green.svg">
  <defs
     id="defs1367" />
  <sodipodi:namedview
     id="base"
     pagecolor="#ffffff"
     bordercolor="#666666"
     borderopacity="1.0"
     inkscape:pageopacity="0.0"
     inkscape:pageshadow="2"
     inkscape:zoom="1.979899"
     inkscape:cx="117.43847"
     inkscape:cy="151.29002"
     inkscape:document-units="mm"
     inkscape:current-layer="layer1"
     inkscape:document-rotation="0"
     showgrid="false"
     units="px"
     inkscape:window-width="2560"
     inkscape:window-height="1377"
     inkscape:window-x="1912"
     inkscape:window-y="-8"
     inkscape:window-maximized="1" />
  <metadata
     id="metadata1370">
    <rdf:RDF>
      <cc:Work
         rdf:about="">
        <dc:format>image/svg+xml</dc:format>
        <dc:type
           rdf:resource="http://purl.org/dc/dcmitype/StillImage" />
        <dc:title></dc:title>
      </cc:Work>
    </rdf:RDF>
  </metadata>
  <g
     inkscape:label="Layer 1"
     inkscape:groupmode="layer"
     id="layer1">
    <g
       id="g2232"
       style="fill:none;stroke:#000000;stroke-opacity:1"
       transform="matrix(0.26458333,0,0,0.26458333,27.913541,0.13229167)">
      <path
         fill="#a3c095"
         d="M -5,49.998 C -5,77.613 -27.385,100 -55.002,100 -82.615,100 -105,77.613 -105,49.998 -105,22.385 -82.615,0 -55.002,0 -27.385,0 -5,22.385 -5,49.998 Z"
         id="path2230"
         style="fill:none;stroke:#000000;stroke-opacity:1" />
    </g>
    <path
       fill="#0d0f0f"
       d="m 24.940153,15.008489 c 0,0.441325 -0.170656,0.837142 -0.512233,1.190096 -0.341048,0.352425 -0.732896,0.528638 -1.173692,0.528638 -0.704321,0 -1.223169,-0.33073 -1.552839,-0.991659 l -1.553369,-0.06615 c -0.331259,0 -0.98134,0.143669 -1.950244,0.429948 -1.035579,0.28628 -1.630892,0.51779 -1.784879,0.694002 -0.242358,0.264055 -0.440267,0.881592 -0.594783,1.851025 -0.132821,0.793221 -0.197909,1.377157 -0.197909,1.751807 0,0.594254 0.09313,1.030023 0.280723,1.305454 0.18759,0.275431 0.573088,0.506942 1.156494,0.694002 0.583406,0.18706 0.942181,0.2921 1.074473,0.31406 0.08784,0 0.230981,-0.01085 0.429948,-0.03307 h 0.396346 c 0.28575,0 0.583406,0.04498 0.892439,0.132292 0.440796,0.132292 0.628386,0.308504 0.56224,0.529167 -0.309034,-0.04392 -0.848519,0.02223 -1.619515,0.198437 l 0.924983,0.462492 c 0,0.264583 -0.374649,0.396346 -1.12342,0.396346 -0.198967,0 -0.468577,-0.04392 -0.810419,-0.131763 -0.341577,-0.0889 -0.567531,-0.132291 -0.677069,-0.132291 H 16.67748 c -0.0217,0.220133 -0.08837,0.550333 -0.198437,0.991129 -0.375179,-0.02222 -0.814917,-0.242888 -1.321859,-0.660929 -0.50747,-0.418042 -0.826293,-0.627857 -0.958056,-0.627857 -0.132821,0 -0.32041,0.209815 -0.562239,0.627857 -0.242888,0.418041 -0.363802,0.70485 -0.363802,0.859366 -0.28628,-0.154516 -0.528109,-0.441325 -0.727605,-0.859366 -0.08784,-0.286809 -0.18706,-0.573088 -0.296598,-0.859367 -0.220133,0.02222 -0.628385,0.485246 -1.222639,1.388533 h -0.165894 c -0.04392,-0.06668 -0.210344,-0.529166 -0.495564,-1.388533 -0.6831547,-0.220133 -1.3218587,-0.3302 -1.9171717,-0.3302 -0.286279,0 -0.727075,0.06615 -1.321858,0.197908 l -0.924983,-0.06562 c 0.131762,-0.132292 0.51726,-0.385498 1.156493,-0.760148 0.748771,-0.440796 1.321859,-0.661459 1.718734,-0.661459 0.06509,0 0.152929,0.01138 0.264583,0.03307 0.109538,0.02275 0.198438,0.03307 0.264583,0.03307 0.15293,0 0.4016377,-0.08255 0.7432147,-0.248179 0.341577,-0.164835 0.539486,-0.313796 0.594254,-0.445558 0.05583,-0.13335 0.08361,-0.474398 0.08361,-1.025261 0,-1.255712 -0.330729,-2.192073 -0.992188,-2.809081 -0.5736177,-0.550856 -1.5202967,-0.947202 -2.8426837,-1.19009 -0.352425,1.255713 -1.344084,1.884627 -2.973917,1.884627 -0.529167,0 -1.057804,-0.319352 -1.586442,-0.958585 -0.528108,-0.639233 -0.792691,-1.223169 -0.792691,-1.751806 0,-0.815446 0.340518,-1.487223 1.023673,-2.016919 -0.550334,-0.572029 -0.825765,-1.155965 -0.825765,-1.750748 0,-0.551392 0.170127,-1.035579 0.512233,-1.455208 0.341577,-0.4175132 0.787665,-0.6604002 1.338527,-0.7270752 -0.04392,-0.704321 0.187061,-1.189567 0.694002,-1.45415 -0.242358,-0.241829 -0.363272,-0.671248 -0.363272,-1.288256 0,-0.727075 0.242358,-1.333236 0.727075,-1.817952 0.484187,-0.484717 1.090347,-0.727605 1.817422,-0.727605 0.79375,0 1.443832,0.27649 1.950244,0.826823 0.639234,-2.181225 2.0163897,-3.272102 4.1309397,-3.272102 1.101725,0 2.071159,0.440796 2.908829,1.322388 0.308504,0.3302 0.462492,0.506941 0.462492,0.528108 -0.264583,0 -0.131763,-0.04974 0.396875,-0.148431 0.528108,-0.09922 0.913606,-0.148961 1.157023,-0.148961 0.858837,0 1.618985,0.319352 2.280444,0.958586 0.572558,0.573087 0.969433,1.299633 1.190095,2.181225 0.153459,0.02222 0.396346,0.08784 0.727076,0.197908 0.484187,0.243417 0.727074,0.660929 0.727074,1.256242 0,0.110596 -0.0889,0.319881 -0.264583,0.627856 1.4097,0.793221 2.115079,1.8949462 2.115079,3.3051752 0,0.396346 -0.153987,0.948266 -0.462491,1.652852 0.573087,0.329935 0.858837,0.815181 0.858837,1.453885 z m -13.61731,1.45415 v -0.429418 c 0,-0.506413 -0.24765,-0.969434 -0.743215,-1.388005 -0.496094,-0.41857 -0.9974787,-0.627856 -1.5038917,-0.627856 -0.617537,0 -1.189567,0.14314 -1.718733,0.42889 1.167606,-0.06562 2.489994,0.606689 3.9658397,2.016389 z m -0.594254,-4.098131 c -0.33073,-0.375179 -0.617009,-0.760677 -0.8598967,-1.157023 -0.925512,0.242358 -1.388004,0.51779 -1.388004,0.825765 0.264584,-0.02117 0.650081,0.02778 1.156494,0.149225 0.5064127,0.121443 0.8707437,0.182033 1.0914067,0.182033 z m 2.016389,-1.024731 V 9.8856268 c -0.529167,-0.08784 -0.849577,-0.132292 -0.958585,-0.132292 V 10.2489 Z m 4.296304,-0.925513 C 16.776699,10.304198 16.280605,10.083535 15.554059,9.7533348 v 2.8421542 c 1.03505,-0.595312 1.530615,-1.322387 1.487223,-2.181225 z m 1.816894,3.900223 -0.726546,-0.892439 c -0.440266,0.308768 -0.886883,0.622829 -1.339056,0.942181 -0.452173,0.319352 -0.842963,0.678127 -1.172633,1.074208 0.991393,-0.529696 2.071423,-0.903287 3.238235,-1.12395 z"
       id="path2234"
       style="stroke-width:0.264583" />
  </g>
</svg>
