<?xml version="1.0" encoding="UTF-8" standalone="no"?>
<svg
   xmlns:dc="http://purl.org/dc/elements/1.1/"
   xmlns:cc="http://creativecommons.org/ns#"
   xmlns:rdf="http://www.w3.org/1999/02/22-rdf-syntax-ns#"
   xmlns:svg="http://www.w3.org/2000/svg"
   xmlns="http://www.w3.org/2000/svg"
   xmlns:sodipodi="http://sodipodi.sourceforge.net/DTD/sodipodi-0.dtd"
   xmlns:inkscape="http://www.inkscape.org/namespaces/inkscape"
   width="101"
   height="101"
   viewBox="0 0 26.722918 26.722918"
   version="1.1"
   id="svg1373"
   inkscape:version="1.0.1 (3bc2e813f5, 2020-09-07)"
   sodipodi:docname="mana_hybrid_2g.svg">
  <defs
     id="defs1367" />
  <sodipodi:namedview
     id="base"
     pagecolor="#ffffff"
     bordercolor="#666666"
     borderopacity="1.0"
     inkscape:pageopacity="0.0"
     inkscape:pageshadow="2"
     inkscape:zoom="1.979899"
     inkscape:cx="117.43847"
     inkscape:cy="151.29002"
     inkscape:document-units="mm"
     inkscape:current-layer="layer1"
     inkscape:document-rotation="0"
     showgrid="false"
     units="px"
     inkscape:window-width="2560"
     inkscape:window-height="1377"
     inkscape:window-x="1912"
     inkscape:window-y="-8"
     inkscape:window-maximized="1" />
  <metadata
     id="metadata1370">
    <rdf:RDF>
      <cc:Work
         rdf:about="">
        <dc:format>image/svg+xml</dc:format>
        <dc:type
           rdf:resource="http://purl.org/dc/dcmitype/StillImage" />
        <dc:title></dc:title>
      </cc:Work>
    </rdf:RDF>
  </metadata>
  <g
     inkscape:label="Layer 1"
     inkscape:groupmode="layer"
     id="layer1">
    <g
       id="g2412"
       style="fill:none;stroke:#000000;stroke-opacity:1;stroke-width:4"
       transform="matrix(0.26458333,0,0,0.26458333,139.03854,-55.430472)">
      <path
         fill="#a3c095"
         d="m -439.651,224.637 c 9.052,9.051 14.651,21.551 14.651,35.36 0,27.616 -22.387,50.003 -50,50.003 -13.807,0 -26.305,-5.596 -35.354,-14.646"
         id="path2408"
         style="fill:none;stroke:#000000;stroke-opacity:1;stroke-width:4" />
      <path
         
         d="m -439.651,224.638 c -9.048,-9.044 -21.545,-14.637 -35.349,-14.637 -27.613,0 -50,22.384 -50,49.997 0,13.807 5.597,26.309 14.646,35.356 z"
         id="path2410"
         style="fill:none;stroke:#000000;stroke-opacity:1;stroke-width:4" />
    </g>
    <path
       fill="#0d0f0f"
       d="M 11.680296,11.136313 10.922,13.696686 H 4.6193609 v -0.547158 c 0.306123,-0.341312 0.976841,-1.029494 2.012685,-2.065073 0.623623,-0.624152 1.241425,-1.2834932 1.853406,-1.9780252 0.306123,-0.340783 0.541867,-0.635264 0.705644,-0.88265 0.36486,-0.528902 0.547688,-1.070504 0.547688,-1.624012 0,-0.541073 -0.167482,-1.0181168 -0.502973,-1.4292793 -0.335227,-0.4130146 -0.768086,-0.6188604 -1.297782,-0.6188604 -1.141148,0 -2.035704,0.771525 -2.682875,2.3132517 l -0.565414,-0.21246 c 0.76491,-2.1650855 1.970616,-3.2474959 3.618971,-3.2474959 0.812006,0 1.503362,0.276225 2.0740681,0.8292042 0.571236,0.5535083 0.856192,1.2356042 0.856192,2.0481396 0,1.0358441 -0.59399,2.0470811 -1.7827621,3.0363581 l -1.235075,1.0234082 c -0.788723,0.659342 -1.442773,1.277144 -1.959505,1.853407 -0.03598,0.03625 -0.106362,0.118004 -0.212195,0.24765 h 3.283479 c 0.505883,0 0.8887351,-0.09975 1.1469681,-0.299773 0.223573,-0.177271 0.441854,-0.512498 0.653521,-1.007004 z"
       id="path2414"
       style="stroke-width:0.264583" />
    <path
       fill="#0d0f0f"
       d="m 23.817262,18.022624 c 0,0.200554 -0.07752,0.380206 -0.232568,0.540544 -0.155046,0.159808 -0.332582,0.239448 -0.533136,0.239448 -0.319616,0 -0.555096,-0.149755 -0.704585,-0.450057 l -0.705644,-0.02963 c -0.150283,0 -0.445558,0.06509 -0.885296,0.194998 -0.470164,0.129646 -0.740304,0.23495 -0.810418,0.31459 -0.109803,0.120385 -0.199761,0.400579 -0.27014,0.840845 -0.06032,0.360098 -0.08969,0.625211 -0.08969,0.795338 0,0.269875 0.04233,0.467783 0.127265,0.592667 0.08493,0.125147 0.26035,0.229922 0.524933,0.314589 0.264583,0.08414 0.427567,0.132821 0.487892,0.142611 0.03995,0 0.104775,-0.0048 0.194998,-0.01508 h 0.180181 c 0.12991,0 0.265112,0.02011 0.405606,0.06006 0.199761,0.06006 0.285221,0.139435 0.255323,0.239977 -0.140494,-0.01958 -0.385233,0.01005 -0.735277,0.08996 l 0.419629,0.210344 c 0,0.120121 -0.169862,0.179652 -0.510116,0.179652 -0.09049,0 -0.21299,-0.01905 -0.367507,-0.05953 -0.15531,-0.04075 -0.257968,-0.06059 -0.30771,-0.06059 H 20.066 c -0.01032,0.100277 -0.03995,0.249502 -0.08996,0.450056 -0.170657,-0.0098 -0.370417,-0.110066 -0.600605,-0.299773 -0.230187,-0.1905 -0.375179,-0.285485 -0.43471,-0.285485 -0.06032,0 -0.145521,0.09499 -0.255323,0.285485 -0.110331,0.189707 -0.165364,0.319353 -0.165364,0.390261 -0.129911,-0.07091 -0.239448,-0.200554 -0.330465,-0.390261 -0.03995,-0.130968 -0.08493,-0.260879 -0.134673,-0.391318 -0.100012,0.01032 -0.284956,0.221191 -0.555096,0.631031 h -0.07514 c -0.02037,-0.0299 -0.09552,-0.239713 -0.22569,-0.631031 -0.310092,-0.09922 -0.59981,-0.148961 -0.86995,-0.148961 -0.12991,0 -0.330465,0.02963 -0.600869,0.09022 l -0.419629,-0.0299 c 0.05953,-0.06032 0.23495,-0.175154 0.524933,-0.345281 0.33999,-0.200554 0.60034,-0.300831 0.780257,-0.300831 0.02963,0 0.06959,0.0056 0.12012,0.01561 0.04974,0.01032 0.08996,0.01535 0.120121,0.01535 0.06932,0 0.182563,-0.03757 0.337609,-0.112977 0.155045,-0.07488 0.245004,-0.14261 0.269345,-0.202671 0.02593,-0.06059 0.03836,-0.215106 0.03836,-0.465402 0,-0.569648 -0.150283,-0.995627 -0.450585,-1.275027 -0.26035,-0.250031 -0.690034,-0.429948 -1.290109,-0.540544 -0.160073,0.569913 -0.610393,0.855663 -1.350433,0.855663 -0.240506,0 -0.480219,-0.145257 -0.72046,-0.435505 -0.239448,-0.290512 -0.360098,-0.55536 -0.360098,-0.795337 0,-0.370417 0.155046,-0.675217 0.465137,-0.915458 -0.249766,-0.259557 -0.374914,-0.524669 -0.374914,-0.795338 0,-0.249767 0.07726,-0.4699 0.232568,-0.6604 0.155046,-0.189442 0.357982,-0.299773 0.607484,-0.3302 -0.01958,-0.319617 0.08493,-0.540279 0.315118,-0.660135 -0.110066,-0.109538 -0.164835,-0.304271 -0.164835,-0.584994 0,-0.329671 0.109802,-0.605102 0.3302,-0.825235 0.219604,-0.219605 0.4953,-0.3302 0.824706,-0.3302 0.360627,0 0.655902,0.125677 0.885561,0.375179 0.290512,-0.990071 0.915193,-1.485106 1.875631,-1.485106 0.500062,0 0.940329,0.200025 1.320535,0.600604 0.140229,0.149489 0.209815,0.229658 0.209815,0.239448 -0.119856,0 -0.05953,-0.02276 0.180181,-0.06721 0.240242,-0.04524 0.414867,-0.068 0.525198,-0.068 0.389996,0 0.735277,0.14552 1.035844,0.435504 0.260085,0.26035 0.440267,0.589756 0.540279,0.990071 0.06985,0.01032 0.179652,0.03995 0.329671,0.09022 0.220133,0.110332 0.330464,0.300303 0.330464,0.570178 0,0.04974 -0.04022,0.145256 -0.12012,0.285485 0.640027,0.360098 0.960173,0.86016 0.960173,1.500187 0,0.180446 -0.07012,0.430478 -0.209815,0.750359 0.260879,0.150548 0.39079,0.370681 0.390789,0.660929 z m -6.182254,0.660135 v -0.194733 c 0,-0.229923 -0.112448,-0.440267 -0.337343,-0.630238 -0.225161,-0.1905 -0.452438,-0.284956 -0.68289,-0.284956 -0.280458,0 -0.540279,0.06509 -0.780256,0.194204 0.52996,-0.0291 1.1303,0.275432 1.800489,0.915723 z m -0.270139,-1.860021 c -0.150019,-0.17092 -0.279929,-0.345545 -0.389996,-0.525197 -0.420423,0.109537 -0.630238,0.235214 -0.630238,0.37465 0.119857,-0.0098 0.295275,0.01243 0.524934,0.06773 0.229658,0.0553 0.395287,0.08281 0.4953,0.08281 z m 0.915987,-0.465931 v -0.660135 c -0.240771,-0.03942 -0.386027,-0.0598 -0.435504,-0.0598 v 0.22516 z m 1.950509,-0.419629 c -0.120386,-0.05001 -0.345282,-0.150283 -0.675746,-0.300302 v 1.290373 c 0.470429,-0.270404 0.695325,-0.600075 0.675746,-0.990071 z m 0.824441,1.770592 -0.329671,-0.404548 c -0.199495,0.139964 -0.402431,0.282046 -0.608012,0.427302 -0.205052,0.144727 -0.382588,0.307446 -0.532077,0.487892 0.449527,-0.241036 0.940594,-0.410369 1.46976,-0.510646 z"
       id="path2416"
       style="stroke-width:0.264583" />
  </g>
</svg>
