<?xml version="1.0" encoding="UTF-8" standalone="no"?>
<svg
   xmlns:dc="http://purl.org/dc/elements/1.1/"
   xmlns:cc="http://creativecommons.org/ns#"
   xmlns:rdf="http://www.w3.org/1999/02/22-rdf-syntax-ns#"
   xmlns:svg="http://www.w3.org/2000/svg"
   xmlns="http://www.w3.org/2000/svg"
   xmlns:sodipodi="http://sodipodi.sourceforge.net/DTD/sodipodi-0.dtd"
   xmlns:inkscape="http://www.inkscape.org/namespaces/inkscape"
   width="101"
   height="101"
   viewBox="0 0 26.722918 26.722918"
   version="1.1"
   id="svg1373"
   inkscape:version="1.0.1 (3bc2e813f5, 2020-09-07)"
   sodipodi:docname="mana_hybrid_bg.svg">
  <defs
     id="defs1367" />
  <sodipodi:namedview
     id="base"
     pagecolor="#ffffff"
     bordercolor="#666666"
     borderopacity="1.0"
     inkscape:pageopacity="0.0"
     inkscape:pageshadow="2"
     inkscape:zoom="1.979899"
     inkscape:cx="117.43847"
     inkscape:cy="151.29002"
     inkscape:document-units="mm"
     inkscape:current-layer="layer1"
     inkscape:document-rotation="0"
     showgrid="false"
     units="px"
     inkscape:window-width="2560"
     inkscape:window-height="1377"
     inkscape:window-x="1912"
     inkscape:window-y="-8"
     inkscape:window-maximized="1" />
  <metadata
     id="metadata1370">
    <rdf:RDF>
      <cc:Work
         rdf:about="">
        <dc:format>image/svg+xml</dc:format>
        <dc:type
           rdf:resource="http://purl.org/dc/dcmitype/StillImage" />
        <dc:title></dc:title>
      </cc:Work>
    </rdf:RDF>
  </metadata>
  <g
     inkscape:label="Layer 1"
     inkscape:groupmode="layer"
     id="layer1">
    <g
       id="g2322"
       style="fill:none;stroke:#000000;stroke-opacity:1;stroke-width:4"
       transform="matrix(0.26458333,0,0,0.26458333,111.25729,-27.649223)">
      <path
         fill="#a3c095"
         d="m -334.651,119.637 c 9.053,9.051 14.651,21.551 14.651,35.36 0,27.616 -22.387,50.003 -50,50.003 -13.807,0 -26.305,-5.596 -35.354,-14.646"
         id="path2318"
         style="fill:none;stroke:#000000;stroke-opacity:1;stroke-width:4" />
      <path
         fill="#bab1ab"
         d="m -334.651,119.638 c -9.048,-9.043 -21.547,-14.637 -35.349,-14.637 -27.613,0 -50,22.384 -50,49.997 0,13.807 5.596,26.309 14.646,35.356 z"
         id="path2320"
         style="fill:none;stroke:#000000;stroke-opacity:1;stroke-width:4" />
    </g>
    <path
       fill="#0d0f0f"
       d="m 14.223202,7.5697294 c 0,0.714639 -0.259821,1.202002 -0.779727,1.461823 -0.151871,0.07594 -0.628121,0.179387 -1.429808,0.308504 -0.519377,0.08705 -0.779198,0.287867 -0.779198,0.600869 v 1.3157726 c 0,0.0553 0.0164,0.222779 0.04868,0.504296 l 0.04895,0.519906 c 0,0.16219 -0.0381,0.427831 -0.114035,0.795867 -0.205317,0.04313 -0.443971,0.09207 -0.714375,0.146843 -0.08678,-0.325173 -0.129911,-0.547423 -0.129911,-0.66675 0,-0.05371 0.01323,-0.135466 0.04022,-0.243681 0.02699,-0.10795 0.04048,-0.189442 0.04048,-0.243681 0,-0.07514 -0.06694,-0.286808 -0.201612,-0.633148 h -0.252148 c -0.03307,0.05371 -0.04419,0.12409 -0.0336,0.210344 0.04339,0.18415 0.05953,0.341048 0.04921,0.471223 -0.1844147,0.12991 -0.4384147,0.303212 -0.7635877,0.519906 -0.0762,-0.0217 -0.103187,-0.03254 -0.08149,-0.03254 V 11.45196 c -0.0217,-0.05344 -0.07567,-0.07541 -0.162454,-0.06482 h -0.195 l -0.194734,1.526911 c -0.151341,0.01085 -0.335756,0.01085 -0.55192,0 -0.07594,-0.357191 -0.211667,-0.887416 -0.406136,-1.591472 h -0.130175 c -0.119062,0.379148 -0.183885,0.584729 -0.194998,0.617273 0,0.04313 0.01376,0.127 0.04101,0.251619 0.02672,0.124619 0.04022,0.208227 0.04022,0.251619 0,0.03201 -0.01085,0.11377 -0.03281,0.243681 l -0.04868,0.389996 c -0.02196,0.02117 -0.04868,0.03201 -0.08096,0.03201 -0.325173,0 -0.541866,-0.08096 -0.649552,-0.243152 -0.108744,-0.16245 -0.152135,-0.390521 -0.13044,-0.682621 l 0.13044,-1.948921 c 0,-0.03201 0.01005,-0.07541 0.03201,-0.130175 0.0217,-0.05371 0.03254,-0.09208 0.03254,-0.1132416 0,-0.08678 -0.09208,-0.26035 -0.27596,-0.520435 -0.03254,-0.01032 -0.200555,-0.04868 -0.503768,-0.113771 -0.183885,-0.04313 -0.546893,-0.119062 -1.087966,-0.227012 -0.747184,-0.140229 -1.12104,-0.741627 -1.12104,-1.803136 0,-1.581414 0.649817,-2.896658 1.949185,-3.947054 0.05398,0.292365 0.146315,0.681567 0.276225,1.168929 0.09763,0.02275 0.309034,0.07144 0.633942,0.146844 0.06535,0.02143 0.395288,0.141023 0.990865,0.357717 -0.303213,-0.183886 -0.6985,-0.481542 -1.185334,-0.893498 -0.184414,-0.216429 -0.276754,-0.579173 -0.276754,-1.088231 0,-0.119063 0.205846,-0.259557 0.617802,-0.423069 0.368036,-0.151077 0.643996,-0.237331 0.828411,-0.259027 0.584464,-0.07567 1.033727,-0.1143 1.348316,-0.1143 1.3533437,0 2.4471317,0.347133 3.2808337,1.040341 -0.270404,0.314325 -0.736335,0.649023 -1.396735,1.007269 0.25982,0.01085 0.638968,-0.09207 1.137443,-0.309033 0.497946,-0.2159 0.709084,-0.324644 0.633413,-0.324644 0.08652,0 0.259821,0.173038 0.519906,0.519377 0.194469,0.259821 0.351631,0.493448 0.470958,0.698765 0.346605,0.617273 0.579438,1.283758 0.69903,1.998398 0,0.248973 0.005,0.427566 0.01614,0.535516 v 0.129382 h -0.0013 z m -6.2219417,0.293158 c 0,-0.465931 -0.202935,-0.907256 -0.609071,-1.324504 -0.406135,-0.416983 -0.842433,-0.62521 -1.307835,-0.62521 -0.411427,0 -0.773906,0.174625 -1.088231,0.523345 -0.314061,0.348986 -0.470694,0.736071 -0.470694,1.161257 0,0.370681 0.178329,0.611187 0.536046,0.719666 0.227542,0.06562 0.546364,0.103717 0.958056,0.11483 h 0.893233 c 0.725488,0.0095 1.088496,-0.180446 1.088496,-0.569384 z m 1.770857,2.014009 v -0.502973 c -0.07567,-0.141023 -0.151607,-0.287602 -0.227013,-0.439209 -0.06509,-0.216164 -0.184415,-0.519377 -0.357717,-0.909902 l -0.178858,1.901296 c 0,0.1518706 -0.03202,0.2272766 -0.09737,0.2272766 -0.04313,0 -0.07593,-0.01058 -0.09763,-0.03228 -0.07567,-1.1480256 -0.113506,-1.6467656 -0.113506,-1.4941006 v -0.568325 c -0.02196,-0.03334 -0.04895,-0.04974 -0.08149,-0.04974 -0.368035,0.380206 -0.551921,0.991658 -0.551921,1.835679 0,0.4659316 0.04286,0.7527396 0.129381,0.8617486 0.08678,-0.02196 0.183886,-0.0598 0.29263,-0.114036 0.04313,-0.02196 0.167745,-0.03254 0.373591,-0.03254 0.205052,0 0.454819,0.06509 0.746919,0.194469 0.108744,-2.64e-4 0.162983,-0.292364 0.162983,-0.8773586 z m 3.6713577,-2.263775 c 0,-0.435505 -0.162454,-0.824971 -0.487627,-1.16893 -0.325173,-0.343164 -0.6985,-0.514614 -1.120246,-0.514614 -0.455083,0 -0.880533,0.208227 -1.275291,0.62521 -0.395553,0.416454 -0.5931967,0.852752 -0.5931967,1.307571 0,0.379148 0.1844147,0.568325 0.5524507,0.568325 h 1.867958 c 0.703792,-0.01058 1.055952,-0.282575 1.055952,-0.817562 z"
       id="path2324"
       style="stroke-width:0.264583" />
    <path
       fill="#0d0f0f"
       d="m 23.817523,18.022623 c 0,0.200554 -0.07752,0.380206 -0.232569,0.540544 -0.155046,0.159808 -0.332846,0.239448 -0.5334,0.239448 -0.319352,0 -0.555096,-0.149755 -0.704585,-0.450057 l -0.705644,-0.02963 c -0.150019,0 -0.445558,0.06509 -0.885031,0.194998 -0.470165,0.129646 -0.740304,0.23495 -0.810683,0.31459 -0.109538,0.12012 -0.199761,0.400579 -0.269875,0.840845 -0.06033,0.359834 -0.08969,0.625211 -0.08969,0.795338 0,0.269875 0.04233,0.467783 0.127,0.592667 0.08493,0.125147 0.26035,0.229922 0.524933,0.314589 0.264583,0.08414 0.427567,0.132821 0.487892,0.142611 0.03995,0 0.104775,-0.0048 0.194998,-0.01508 h 0.180181 c 0.12991,0 0.264848,0.02011 0.405342,0.06006 0.19976,0.06006 0.284956,0.139435 0.255323,0.239977 -0.140494,-0.01958 -0.385234,0.01005 -0.735013,0.08996 l 0.419629,0.210344 c 0,0.120121 -0.170127,0.179652 -0.510116,0.179652 -0.09049,0 -0.213255,-0.01905 -0.367771,-0.05953 -0.155575,-0.04075 -0.258234,-0.06059 -0.307711,-0.06059 h -0.194998 c -0.01005,0.100277 -0.03969,0.249502 -0.08996,0.450056 -0.170921,-0.0098 -0.370152,-0.110066 -0.600604,-0.299773 -0.230188,-0.1905 -0.375179,-0.285485 -0.434711,-0.285485 -0.06032,0 -0.145785,0.09499 -0.255322,0.285485 -0.110332,0.189707 -0.1651,0.319353 -0.1651,0.390261 -0.129911,-0.07091 -0.239713,-0.200554 -0.330465,-0.390261 -0.03995,-0.130704 -0.08493,-0.260879 -0.134673,-0.391318 -0.100277,0.01032 -0.284956,0.221191 -0.55536,0.631031 H 17.4244 c -0.02037,-0.0299 -0.09525,-0.239713 -0.225425,-0.631031 -0.310092,-0.09922 -0.600075,-0.148961 -0.86995,-0.148961 -0.12991,0 -0.330465,0.02963 -0.600604,0.09022 l -0.419894,-0.0299 c 0.0598,-0.06032 0.23495,-0.175154 0.524933,-0.345281 0.339725,-0.200554 0.60034,-0.300831 0.780257,-0.300831 0.02963,0 0.06985,0.0056 0.12012,0.01561 0.04974,0.01032 0.09022,0.01535 0.120121,0.01535 0.06932,0 0.182298,-0.03757 0.337344,-0.112977 0.155046,-0.07488 0.245269,-0.14261 0.26961,-0.202671 0.02593,-0.06059 0.03836,-0.215106 0.03836,-0.465402 0,-0.569648 -0.150283,-0.995627 -0.450585,-1.275027 -0.260086,-0.250031 -0.690034,-0.429948 -1.290373,-0.540544 -0.159809,0.569913 -0.610394,0.855663 -1.350169,0.855663 -0.240506,0 -0.480483,-0.145257 -0.72046,-0.435505 -0.239978,-0.290512 -0.360098,-0.55536 -0.360098,-0.795602 0,-0.370152 0.155045,-0.674952 0.465137,-0.915193 -0.249767,-0.259557 -0.375179,-0.524669 -0.375179,-0.795338 0,-0.249767 0.07726,-0.4699 0.232569,-0.6604 0.155046,-0.189442 0.357981,-0.299773 0.607748,-0.3302 -0.01958,-0.319617 0.08493,-0.540279 0.314854,-0.660135 -0.109802,-0.109538 -0.164571,-0.304271 -0.164571,-0.584994 0,-0.329671 0.109537,-0.605102 0.329935,-0.825235 0.219605,-0.219605 0.495036,-0.3302 0.824707,-0.3302 0.360627,0 0.655902,0.125677 0.885825,0.375179 0.290512,-0.990071 0.915193,-1.485107 1.875631,-1.485107 0.499798,0 0.940329,0.200025 1.320271,0.600605 0.140229,0.149489 0.209814,0.229658 0.209814,0.239448 -0.119591,0 -0.05953,-0.02276 0.180182,-0.06721 0.240506,-0.04524 0.414866,-0.068 0.525462,-0.068 0.389996,0 0.735013,0.145521 1.035844,0.435505 0.259821,0.26035 0.440002,0.589756 0.540279,0.99007 0.06959,0.01032 0.179652,0.03995 0.329406,0.09022 0.220134,0.110332 0.330465,0.300302 0.330465,0.570177 0,0.04974 -0.04022,0.145257 -0.120121,0.285486 0.640027,0.360098 0.960437,0.86016 0.960437,1.500187 0,0.180182 -0.07038,0.430477 -0.209814,0.750359 0.260879,0.150548 0.391054,0.370681 0.391054,0.660929 z m -6.182783,0.660135 v -0.194733 c 0,-0.229923 -0.112184,-0.440267 -0.337344,-0.630238 -0.22516,-0.1905 -0.452438,-0.284956 -0.682625,-0.284956 -0.280458,0 -0.540279,0.06509 -0.780256,0.194204 0.530225,-0.0291 1.130035,0.275432 1.800225,0.915723 z m -0.269875,-1.860021 c -0.149754,-0.17092 -0.279929,-0.345545 -0.389996,-0.525197 -0.420423,0.109537 -0.630502,0.235214 -0.630502,0.37465 0.119856,-0.0098 0.295275,0.01243 0.524933,0.06773 0.230188,0.0553 0.395817,0.08281 0.495565,0.08281 z m 0.915987,-0.465931 v -0.660135 c -0.240506,-0.03942 -0.386027,-0.0598 -0.435504,-0.0598 v 0.22516 z m 1.950509,-0.419629 c -0.120121,-0.05001 -0.345282,-0.150283 -0.675746,-0.300302 v 1.290373 c 0.470429,-0.270404 0.695325,-0.600075 0.675746,-0.990071 z m 0.824441,1.770592 -0.329671,-0.404548 c -0.19976,0.139964 -0.402431,0.282046 -0.608012,0.427302 -0.205052,0.144727 -0.382323,0.307446 -0.532077,0.487892 0.449527,-0.241036 0.940329,-0.410369 1.46976,-0.510646 z"
       id="path2326"
       style="stroke-width:0.264583" />
  </g>
</svg>
