<?xml version="1.0" encoding="UTF-8" standalone="no"?>
<svg
   xmlns:dc="http://purl.org/dc/elements/1.1/"
   xmlns:cc="http://creativecommons.org/ns#"
   xmlns:rdf="http://www.w3.org/1999/02/22-rdf-syntax-ns#"
   xmlns:svg="http://www.w3.org/2000/svg"
   xmlns="http://www.w3.org/2000/svg"
   xmlns:sodipodi="http://sodipodi.sourceforge.net/DTD/sodipodi-0.dtd"
   xmlns:inkscape="http://www.inkscape.org/namespaces/inkscape"
   width="101"
   height="101"
   viewBox="0 0 26.722918 26.722918"
   version="1.1"
   id="svg1373"
   inkscape:version="1.0.1 (3bc2e813f5, 2020-09-07)"
   sodipodi:docname="mana_hybrid_br.svg">
  <defs
     id="defs1367" />
  <sodipodi:namedview
     id="base"
     pagecolor="#ffffff"
     bordercolor="#666666"
     borderopacity="1.0"
     inkscape:pageopacity="0.0"
     inkscape:pageshadow="2"
     inkscape:zoom="1.979899"
     inkscape:cx="117.43847"
     inkscape:cy="151.29002"
     inkscape:document-units="mm"
     inkscape:current-layer="layer1"
     inkscape:document-rotation="0"
     showgrid="false"
     units="px"
     inkscape:window-width="2560"
     inkscape:window-height="1377"
     inkscape:window-x="1912"
     inkscape:window-y="-8"
     inkscape:window-maximized="1" />
  <metadata
     id="metadata1370">
    <rdf:RDF>
      <cc:Work
         rdf:about="">
        <dc:format>image/svg+xml</dc:format>
        <dc:type
           rdf:resource="http://purl.org/dc/dcmitype/StillImage" />
        <dc:title></dc:title>
      </cc:Work>
    </rdf:RDF>
  </metadata>
  <g
     inkscape:label="Layer 1"
     inkscape:groupmode="layer"
     id="layer1">
    <g
       id="g2312"
       style="fill:none;stroke:#000000;stroke-opacity:1"
       transform="matrix(0.26458333,0,0,0.26458333,139.03854,-27.649223)">
      <path
         fill="#e49977"
         d="m -439.651,119.637 c 9.052,9.051 14.651,21.551 14.651,35.36 0,27.616 -22.387,50.003 -50,50.003 -13.807,0 -26.305,-5.596 -35.354,-14.646"
         id="path2308"
         style="fill:none;stroke:#000000;stroke-opacity:1" />
      <path
         fill="#bab1ab"
         d="m -439.651,119.638 c -9.048,-9.043 -21.547,-14.637 -35.349,-14.637 -27.613,0 -50,22.384 -50,49.997 0,13.807 5.597,26.309 14.646,35.356 z"
         id="path2310"
         style="fill:none;stroke:#000000;stroke-opacity:1" />
    </g>
    <path
       fill="#0d0f0f"
       d="m 23.494997,19.827346 c -0.454554,1.084791 -1.357313,1.626129 -2.709333,1.626129 -0.247915,0 -0.516467,0.03043 -0.805392,0.0926 -0.433652,0.0934 -0.650346,0.22225 -0.650346,0.387615 0,0.05159 0.03598,0.110596 0.108479,0.178329 0.0717,0.06694 0.134409,0.100806 0.186002,0.100806 -0.258498,0 -0.08308,0.0077 0.525727,0.02249 0.609336,0.01588 0.991394,0.02355 1.14644,0.02355 -0.897996,0.526256 -2.399771,0.768879 -4.50559,0.727604 -0.69162,-0.0098 -1.285081,-0.314325 -1.780381,-0.913077 -0.48551,-0.567796 -0.727868,-1.202532 -0.727868,-1.904207 0,-0.743479 0.250295,-1.375304 0.751152,-1.897062 0.500062,-0.5207 1.122362,-0.781315 1.865577,-0.781315 0.164835,0 0.384439,0.03625 0.657754,0.10795 0.273579,0.07223 0.456935,0.10848 0.549539,0.10848 0.382059,0 0.856986,-0.157957 1.424782,-0.472282 0.567795,-0.314589 0.836083,-0.472281 0.805127,-0.472281 -0.103452,1.083998 -0.464609,1.812131 -1.083998,2.182813 -0.443971,0.258762 -0.665692,0.511704 -0.665692,0.75856 0,0.155046 0.0926,0.279135 0.278342,0.372004 0.144462,0.0717 0.304535,0.10795 0.480219,0.10795 0.268287,0 0.531283,-0.164835 0.789516,-0.4953 0.257704,-0.329935 0.371211,-0.629444 0.340254,-0.897996 -0.03069,-0.310091 -0.0098,-0.681566 0.06218,-1.114689 0.02037,-0.124354 0.09552,-0.27649 0.224367,-0.456936 0.129117,-0.180975 0.245533,-0.2921 0.348456,-0.333904 0,0.09366 -0.0336,0.248444 -0.100541,0.464609 -0.0672,0.216958 -0.100542,0.37756 -0.100542,0.479954 0,0.227541 0.06191,0.40296 0.186002,0.52652 0.185473,-0.0717 0.350308,-0.30427 0.4953,-0.696912 0.123825,-0.298979 0.195792,-0.588433 0.216958,-0.866246 -0.433916,-0.02064 -0.849577,-0.216958 -1.246452,-0.589227 -0.397139,-0.371475 -0.595841,-0.773906 -0.595841,-1.207294 0,-0.0717 0.0098,-0.144727 0.03096,-0.216693 0.06138,0.0934 0.154252,0.23786 0.278606,0.433916 0.175154,0.257969 0.309563,0.387086 0.402432,0.387086 0.123825,0 0.185737,-0.129117 0.185737,-0.387086 0,-0.330464 -0.08784,-0.629708 -0.26326,-0.89826 -0.196586,-0.320411 -0.449528,-0.479954 -0.758561,-0.479954 -0.144992,0 -0.361421,0.07726 -0.650346,0.232304 -0.289189,0.154516 -0.55245,0.232304 -0.789252,0.232304 -0.07223,0 -0.392641,-0.0934 -0.960173,-0.278871 1.000919,-0.165364 1.501775,-0.314854 1.501775,-0.449527 0,-0.350573 -0.686329,-0.588169 -2.059252,-0.7112 -0.134408,-0.01032 -0.381794,-0.03096 -0.743214,-0.06218 0.04101,-0.05133 0.335491,-0.107685 0.88265,-0.170392 0.464343,-0.0508 0.789252,-0.07752 0.974989,-0.07752 2.456656,0 4.015052,1.192213 4.675981,3.577432 0.114036,-0.09472 0.170921,-0.251355 0.170921,-0.470959 0,-0.282575 -0.08281,-0.638175 -0.248179,-1.067064 -0.06218,-0.168011 -0.160602,-0.4191 -0.294481,-0.753798 0.846137,1.078177 1.27,2.100262 1.27,3.064669 0,0.508529 -0.119327,0.970227 -0.356658,1.3843 -0.154253,0.280193 -0.443971,0.637645 -0.866775,1.073943 -0.423334,0.43524 -0.711994,0.772319 -0.86704,1.010973 0.567796,-0.155046 0.939535,-0.273844 1.114954,-0.356394 0.391848,-0.175683 0.748242,-0.439208 1.068123,-0.789781 0,0.134938 -0.05688,0.33655 -0.170127,0.603515 z m -6.750579,-6.084359 c 0,0.185473 -0.103452,0.3048 -0.309563,0.356659 l -0.402431,0.06138 c -0.144727,0.07197 -0.356394,0.356658 -0.634471,0.851694 -0.03148,-0.154517 -0.07752,-0.371211 -0.1397,-0.650081 -0.09287,0.0098 -0.247385,0.09313 -0.464344,0.24765 -0.09287,0.07223 -0.242622,0.180975 -0.449527,0.325173 0.06218,-0.371211 0.269082,-0.747713 0.619655,-1.130036 0.371475,-0.422804 0.732895,-0.633942 1.083733,-0.633942 0.464344,-5.29e-4 0.696648,0.190236 0.696648,0.5715 z m 2.693987,1.424782 c 0,0.175154 -0.09551,0.322791 -0.286543,0.441325 -0.19103,0.118268 -0.379413,0.178064 -0.564886,0.178064 -0.248179,0 -0.470164,-0.138641 -0.665956,-0.418306 -0.237596,-0.33999 -0.479954,-0.56224 -0.727604,-0.665692 0.05133,-0.05159 0.113506,-0.07752 0.186266,-0.07752 0.09234,0 0.249767,0.0717 0.471752,0.21643 0.221457,0.145256 0.363803,0.216958 0.42598,0.216958 0.05159,0 0.136525,-0.0717 0.255058,-0.216958 0.118533,-0.144727 0.250296,-0.21643 0.395023,-0.21643 0.340783,0 0.51091,0.180975 0.51091,0.542132 z"
       id="path2314"
       style="stroke-width:0.264583" />
    <path
       fill="#0d0f0f"
       d="m 14.223203,7.5697294 c 0,0.71464 -0.259821,1.202002 -0.779991,1.461823 -0.151871,0.07593 -0.627857,0.179387 -1.429544,0.308504 -0.519642,0.08705 -0.779463,0.287867 -0.779463,0.600869 v 1.3157726 c 0,0.0553 0.01667,0.222779 0.04868,0.504296 l 0.04895,0.519906 c 0,0.16219 -0.0381,0.427831 -0.114036,0.795867 -0.205581,0.04313 -0.443971,0.09207 -0.714375,0.146843 -0.08705,-0.325173 -0.12991,-0.547423 -0.12991,-0.66675 0,-0.05371 0.01323,-0.135466 0.04022,-0.243681 0.02699,-0.10795 0.04075,-0.189442 0.04075,-0.243681 0,-0.07514 -0.06694,-0.286808 -0.201612,-0.633148 h -0.252148 c -0.03334,0.05371 -0.04419,0.12409 -0.0336,0.210344 0.04366,0.18415 0.05953,0.341048 0.04895,0.471223 -0.1844141,0.12991 -0.4384141,0.303212 -0.7633231,0.519906 -0.07647,-0.0217 -0.102923,-0.03254 -0.08149,-0.03254 V 11.45196 c -0.0217,-0.05344 -0.07567,-0.07541 -0.162454,-0.06482 h -0.195004 l -0.194997,1.526911 c -0.151607,0.01085 -0.335492,0.01085 -0.551921,0 -0.07594,-0.357191 -0.211402,-0.887416 -0.405871,-1.591472 h -0.13044 c -0.119062,0.379148 -0.18415,0.584729 -0.194998,0.617273 0,0.04313 0.01376,0.127 0.04101,0.251619 0.02672,0.124619 0.04022,0.208227 0.04022,0.251619 0,0.03201 -0.01111,0.11377 -0.03307,0.243681 l -0.04842,0.389996 c -0.02196,0.02117 -0.04868,0.03201 -0.08123,0.03201 -0.324908,0 -0.541866,-0.08096 -0.649552,-0.243152 C 6.4957899,12.703171 6.4521339,12.4751 6.4740949,12.183 l 0.130439,-1.948921 c 0,-0.03201 0.01032,-0.07541 0.03202,-0.130175 0.0217,-0.05371 0.03254,-0.09208 0.03254,-0.1132406 0,-0.08678 -0.09208,-0.26035 -0.27596,-0.520436 -0.03254,-0.01032 -0.200555,-0.04868 -0.503767,-0.113767 -0.18415,-0.04313 -0.546894,-0.119062 -1.087967,-0.227012 -0.747183,-0.140229 -1.121039,-0.741627 -1.121039,-1.803136 0,-1.581414 0.649816,-2.896658 1.949185,-3.947054 0.05397,0.292365 0.146315,0.681567 0.276225,1.168929 0.09737,0.02275 0.308769,0.07144 0.633413,0.146844 0.06535,0.02143 0.395552,0.141023 0.990864,0.357717 -0.303212,-0.183886 -0.6985,-0.481542 -1.185333,-0.893498 -0.184415,-0.216429 -0.276754,-0.579173 -0.276754,-1.088231 0,-0.119063 0.205845,-0.259557 0.617802,-0.423069 0.368035,-0.151077 0.643996,-0.237331 0.82841,-0.259027 0.584465,-0.07567 1.033992,-0.1143 1.348317,-0.1143 1.3533431,0 2.4471311,0.347133 3.2810971,1.040341 -0.270404,0.314325 -0.736335,0.649023 -1.396735,1.007269 0.259821,0.01085 0.638969,-0.09208 1.137179,-0.309033 0.497946,-0.2159 0.709083,-0.324644 0.633413,-0.324644 0.08652,0 0.25982,0.173038 0.519906,0.519377 0.194469,0.259821 0.351631,0.493448 0.470958,0.698765 0.346604,0.617273 0.579438,1.283758 0.698765,1.998398 0,0.248973 0.0053,0.427566 0.01614,0.535516 z m -6.2219411,0.293158 c 0,-0.465931 -0.202935,-0.907256 -0.608806,-1.324504 -0.4064,-0.416983 -0.842434,-0.62521 -1.307836,-0.62521 -0.411427,0 -0.773906,0.174625 -1.088495,0.523346 -0.314061,0.348985 -0.470959,0.73607 -0.470959,1.161256 0,0.370681 0.178594,0.611187 0.536311,0.719667 0.227277,0.06562 0.546364,0.103716 0.958056,0.114829 h 0.893233 c 0.725488,0.0095 1.088496,-0.180446 1.088496,-0.569384 z m 1.770592,2.014009 v -0.502973 c -0.07567,-0.141023 -0.151607,-0.287602 -0.227013,-0.439209 -0.06509,-0.216164 -0.184414,-0.519377 -0.357452,-0.909902 l -0.178858,1.901296 c 0,0.1518706 -0.03202,0.2272766 -0.09737,0.2272766 -0.04313,0 -0.07594,-0.01058 -0.09763,-0.03228 -0.07594,-1.1480256 -0.113506,-1.6467656 -0.113506,-1.4941006 v -0.568325 c -0.02196,-0.03334 -0.04895,-0.04974 -0.08149,-0.04974 -0.368036,0.380206 -0.551921,0.991658 -0.551921,1.835679 0,0.4659316 0.04313,0.7527396 0.129646,0.8617486 0.08705,-0.02196 0.183885,-0.0598 0.292893,-0.114036 0.04313,-0.02196 0.167482,-0.03254 0.373592,-0.03254 0.205052,0 0.454819,0.06509 0.746919,0.194469 0.108214,-2.64e-4 0.162189,-0.292364 0.162189,-0.8773586 z m 3.6713581,-2.263775 c 0,-0.435504 -0.162455,-0.824971 -0.487363,-1.168929 -0.325173,-0.343165 -0.6985,-0.514615 -1.12051,-0.514615 -0.454819,0 -0.880534,0.208227 -1.275557,0.62521 -0.395287,0.416455 -0.5931951,0.852752 -0.5931951,1.307571 0,0.379148 0.1844141,0.568325 0.5524501,0.568325 h 1.867958 c 0.704321,-0.01058 1.056217,-0.282575 1.056217,-0.817562 z"
       id="path2316"
       style="stroke-width:0.264583" />
  </g>
</svg>
