<?xml version="1.0" encoding="UTF-8" standalone="no"?>
<svg
   xmlns:dc="http://purl.org/dc/elements/1.1/"
   xmlns:cc="http://creativecommons.org/ns#"
   xmlns:rdf="http://www.w3.org/1999/02/22-rdf-syntax-ns#"
   xmlns:svg="http://www.w3.org/2000/svg"
   xmlns="http://www.w3.org/2000/svg"
   xmlns:sodipodi="http://sodipodi.sourceforge.net/DTD/sodipodi-0.dtd"
   xmlns:inkscape="http://www.inkscape.org/namespaces/inkscape"
   width="101"
   height="101"
   viewBox="0 0 26.722918 26.722918"
   version="1.1"
   id="svg1373"
   inkscape:version="1.0.1 (3bc2e813f5, 2020-09-07)"
   sodipodi:docname="mana_hybrid_ur.svg">
  <defs
     id="defs1367" />
  <sodipodi:namedview
     id="base"
     pagecolor="#ffffff"
     bordercolor="#666666"
     borderopacity="1.0"
     inkscape:pageopacity="0.0"
     inkscape:pageshadow="2"
     inkscape:zoom="1.979899"
     inkscape:cx="117.43847"
     inkscape:cy="151.29002"
     inkscape:document-units="mm"
     inkscape:current-layer="layer1"
     inkscape:document-rotation="0"
     showgrid="false"
     units="px"
     inkscape:window-width="2560"
     inkscape:window-height="1377"
     inkscape:window-x="1912"
     inkscape:window-y="-8"
     inkscape:window-maximized="1" />
  <metadata
     id="metadata1370">
    <rdf:RDF>
      <cc:Work
         rdf:about="">
        <dc:format>image/svg+xml</dc:format>
        <dc:type
           rdf:resource="http://purl.org/dc/dcmitype/StillImage" />
        <dc:title></dc:title>
      </cc:Work>
    </rdf:RDF>
  </metadata>
  <g
     inkscape:label="Layer 1"
     inkscape:groupmode="layer"
     id="layer1">
    <g
       id="g2302"
       style="fill:none;stroke:#000000;stroke-opacity:1"
       transform="matrix(0.26458333,0,0,0.26458333,166.81979,-27.649223)">
      <path
         fill="#e49977"
         d="m -544.651,119.637 c 9.052,9.051 14.651,21.551 14.651,35.36 0,27.616 -22.387,50.003 -50,50.003 -13.807,0 -26.305,-5.596 -35.354,-14.646"
         id="path2298"
         style="fill:none;stroke:#000000;stroke-opacity:1" />
      <path
         fill="#c1d7e9"
         d="m -544.651,119.638 c -9.048,-9.043 -21.547,-14.637 -35.349,-14.637 -27.613,0 -50,22.384 -50,49.997 0,13.807 5.597,26.309 14.646,35.356 z"
         id="path2300"
         style="fill:none;stroke:#000000;stroke-opacity:1" />
    </g>
    <path
       fill="#0d0f0f"
       d="m 23.495,19.827346 c -0.454554,1.084791 -1.357313,1.626129 -2.709333,1.626129 -0.247915,0 -0.516467,0.03043 -0.805392,0.0926 -0.433652,0.0934 -0.650346,0.22225 -0.650346,0.387615 0,0.05159 0.03598,0.110596 0.108479,0.178329 0.07197,0.06694 0.134409,0.100806 0.186002,0.100806 -0.258498,0 -0.08308,0.0077 0.525727,0.02249 0.609336,0.01588 0.991394,0.02355 1.14644,0.02355 -0.897996,0.526256 -2.399771,0.768879 -4.50559,0.727604 -0.691621,-0.0098 -1.285082,-0.314325 -1.780382,-0.913077 -0.48551,-0.567796 -0.727868,-1.202532 -0.727868,-1.904207 0,-0.743479 0.250295,-1.375304 0.751152,-1.897062 0.500062,-0.5207 1.122362,-0.781315 1.865578,-0.781315 0.164835,0 0.384439,0.03625 0.657754,0.10795 0.273579,0.07223 0.456935,0.10848 0.549539,0.10848 0.382059,0 0.856986,-0.157957 1.424782,-0.472282 0.567795,-0.314589 0.836083,-0.472281 0.805127,-0.472281 -0.103452,1.083998 -0.464609,1.812131 -1.083998,2.182813 -0.443971,0.258762 -0.665692,0.511704 -0.665692,0.75856 0,0.155046 0.0926,0.279135 0.278342,0.372004 0.144462,0.0717 0.304535,0.10795 0.480219,0.10795 0.268287,0 0.531283,-0.164835 0.789516,-0.4953 0.257704,-0.329935 0.371211,-0.629444 0.340254,-0.897996 -0.03069,-0.310091 -0.0098,-0.681566 0.06218,-1.114689 0.02037,-0.124354 0.09552,-0.27649 0.224367,-0.456936 0.129117,-0.180975 0.245533,-0.2921 0.348456,-0.333904 0,0.09366 -0.0336,0.248444 -0.100541,0.464609 -0.0672,0.216958 -0.100542,0.37756 -0.100542,0.479954 0,0.227541 0.06191,0.40296 0.186002,0.52652 0.185473,-0.0717 0.350308,-0.30427 0.4953,-0.696912 0.123825,-0.298979 0.195792,-0.588433 0.216958,-0.866246 -0.433916,-0.02064 -0.849577,-0.216958 -1.246452,-0.589227 -0.397139,-0.371475 -0.595841,-0.773906 -0.595841,-1.207294 0,-0.0717 0.0098,-0.144727 0.03096,-0.216693 0.06138,0.0934 0.154252,0.23786 0.278606,0.433916 0.175154,0.257969 0.309563,0.387086 0.402432,0.387086 0.123825,0 0.185737,-0.129117 0.185737,-0.387086 0,-0.330464 -0.08784,-0.629708 -0.26326,-0.89826 -0.196586,-0.320411 -0.449528,-0.479954 -0.758561,-0.479954 -0.144992,0 -0.361421,0.07726 -0.650346,0.232304 -0.289189,0.154516 -0.55245,0.232304 -0.789252,0.232304 -0.07223,0 -0.392641,-0.0934 -0.960173,-0.278871 1.000919,-0.165364 1.501775,-0.314854 1.501775,-0.449527 0,-0.350573 -0.686329,-0.588169 -2.059252,-0.7112 -0.134408,-0.01032 -0.381795,-0.03096 -0.743215,-0.06218 0.04101,-0.05133 0.335491,-0.107685 0.882651,-0.170392 0.464343,-0.0508 0.789252,-0.07752 0.974989,-0.07752 2.456656,0 4.015052,1.192213 4.675981,3.577432 0.114036,-0.09472 0.170657,-0.251355 0.170657,-0.470959 0,-0.282575 -0.08255,-0.638175 -0.247915,-1.067064 -0.06218,-0.168011 -0.160602,-0.4191 -0.294481,-0.753798 0.846137,1.078177 1.27,2.100262 1.27,3.064669 0,0.508529 -0.119327,0.970227 -0.356658,1.3843 -0.154253,0.280193 -0.443971,0.637645 -0.866775,1.073943 -0.423334,0.43524 -0.711994,0.772319 -0.86704,1.010973 0.567796,-0.155046 0.939535,-0.273844 1.114954,-0.356394 0.391848,-0.175683 0.748242,-0.439208 1.068123,-0.789781 0,0.134938 -0.05688,0.33655 -0.170127,0.603515 z m -6.750579,-6.084359 c 0,0.185473 -0.103453,0.3048 -0.309564,0.356659 l -0.402431,0.06138 c -0.144727,0.07197 -0.356394,0.356658 -0.634471,0.851694 -0.03148,-0.154517 -0.07752,-0.371211 -0.1397,-0.650081 -0.09287,0.0098 -0.247385,0.09313 -0.464344,0.24765 -0.09287,0.07223 -0.242622,0.180975 -0.449527,0.325173 0.06218,-0.371211 0.269082,-0.747713 0.619655,-1.130036 0.371475,-0.422804 0.732895,-0.633942 1.083733,-0.633942 0.464344,-5.29e-4 0.696649,0.190236 0.696649,0.5715 z m 2.693987,1.424782 c 0,0.175154 -0.09551,0.322791 -0.286543,0.441325 -0.19103,0.118268 -0.379413,0.178064 -0.564886,0.178064 -0.248179,0 -0.470164,-0.138641 -0.665956,-0.418306 -0.237596,-0.33999 -0.479954,-0.56224 -0.727604,-0.665692 0.05133,-0.05159 0.113506,-0.07752 0.186266,-0.07752 0.09234,0 0.249767,0.0717 0.471752,0.21643 0.221457,0.145256 0.363803,0.216958 0.42598,0.216958 0.05159,0 0.136525,-0.0717 0.255058,-0.216958 0.118533,-0.144727 0.250296,-0.21643 0.395023,-0.21643 0.340783,0 0.51091,0.180975 0.51091,0.542132 z"
       id="path2304"
       style="stroke-width:0.264583" />
    <path
       fill="#0d0f0f"
       d="m 11.010899,12.873302 c -0.712523,0.7239 -1.5893519,1.086644 -2.6315456,1.086644 -1.1699875,0 -2.0978813,-0.400315 -2.784475,-1.201473 C 4.94612,11.99515 4.6220054,11.022806 4.6220054,9.8409127 c 0,-1.2713229 0.5529792,-2.720975 1.6594667,-4.3486917 C 7.1839659,4.1576627 8.2454742,2.9879398 9.4662617,1.9833169 9.2881971,2.7974398 9.1992971,3.3755544 9.1992971,3.718719 c 0,0.7884583 0.2473854,1.5581312 0.7437438,2.3079604 0.6101291,0.8897937 1.0744731,1.551252 1.3922371,1.9833166 0.495829,0.7503584 0.744008,1.4816667 0.744008,2.192602 -2.64e-4,1.056481 -0.356658,1.945746 -1.068387,2.670704 z M 10.991849,8.8024231 C 10.801084,8.3761794 10.578834,8.0930752 10.324305,7.952846 c 0.03837,0.076465 0.05715,0.1844146 0.05715,0.3249084 0,0.2672291 -0.07593,0.6482291 -0.2286,1.1437937 L 9.9046763,10.184871 c 0,0.444764 0.2225147,0.667014 0.6675437,0.667014 0.470164,0 0.705908,-0.311679 0.705908,-0.9342431 -2.64e-4,-0.3180292 -0.09578,-0.6897688 -0.286279,-1.1152188 z"
       id="path2306"
       style="stroke-width:0.264583" />
  </g>
</svg>
