<?xml version="1.0" encoding="UTF-8" standalone="no"?>
<svg
   xmlns:dc="http://purl.org/dc/elements/1.1/"
   xmlns:cc="http://creativecommons.org/ns#"
   xmlns:rdf="http://www.w3.org/1999/02/22-rdf-syntax-ns#"
   xmlns:svg="http://www.w3.org/2000/svg"
   xmlns="http://www.w3.org/2000/svg"
   xmlns:sodipodi="http://sodipodi.sourceforge.net/DTD/sodipodi-0.dtd"
   xmlns:inkscape="http://www.inkscape.org/namespaces/inkscape"
   width="101"
   height="101"
   viewBox="0 0 26.722918 26.722918"
   version="1.1"
   id="svg1373"
   inkscape:version="1.0.1 (3bc2e813f5, 2020-09-07)"
   sodipodi:docname="mana_hybrid_2b.svg">
  <defs
     id="defs1367" />
  <sodipodi:namedview
     id="base"
     pagecolor="#ffffff"
     bordercolor="#666666"
     borderopacity="1.0"
     inkscape:pageopacity="0.0"
     inkscape:pageshadow="2"
     inkscape:zoom="1.979899"
     inkscape:cx="117.43847"
     inkscape:cy="151.29002"
     inkscape:document-units="mm"
     inkscape:current-layer="layer1"
     inkscape:document-rotation="0"
     showgrid="false"
     units="px"
     inkscape:window-width="2560"
     inkscape:window-height="1377"
     inkscape:window-x="1912"
     inkscape:window-y="-8"
     inkscape:window-maximized="1" />
  <metadata
     id="metadata1370">
    <rdf:RDF>
      <cc:Work
         rdf:about="">
        <dc:format>image/svg+xml</dc:format>
        <dc:type
           rdf:resource="http://purl.org/dc/dcmitype/StillImage" />
        <dc:title></dc:title>
      </cc:Work>
    </rdf:RDF>
  </metadata>
  <g
     inkscape:label="Layer 1"
     inkscape:groupmode="layer"
     id="layer1">
    <g
       id="g2392"
       style="fill:none;stroke:#000000;stroke-opacity:1;stroke-width:4"
       transform="matrix(0.26458333,0,0,0.26458333,194.60104,-55.430472)">
      <path
         fill="#bab1ab"
         d="m -649.651,224.637 c 9.052,9.051 14.651,21.551 14.651,35.36 0,27.616 -22.386,50.003 -50.001,50.003 -13.806,0 -26.305,-5.596 -35.354,-14.646"
         id="path2388"
         style="fill:none;stroke:#000000;stroke-opacity:1;stroke-width:4" />
      <path
         
         d="m -649.651,224.638 c -9.048,-9.044 -21.546,-14.637 -35.35,-14.637 -27.613,0 -49.999,22.384 -49.999,49.997 0,13.807 5.597,26.309 14.646,35.356 z"
         id="path2390"
         style="fill:none;stroke:#000000;stroke-opacity:1;stroke-width:4" />
    </g>
    <path
       fill="#0d0f0f"
       d="m 11.680295,11.136313 -0.758296,2.560373 H 4.6193589 v -0.547158 c 0.3061229,-0.341312 0.9768417,-1.029494 2.0126854,-2.065073 0.6236229,-0.624152 1.241425,-1.2834942 1.8534063,-1.9780252 0.3061229,-0.340783 0.5418666,-0.635265 0.7056437,-0.88265 0.3648604,-0.528902 0.5476875,-1.070504 0.5476875,-1.624013 0,-0.541072 -0.1674812,-1.018116 -0.5029729,-1.429279 -0.3352271,-0.413014 -0.7680854,-0.61886 -1.2977812,-0.61886 -1.141148,0 -2.0357042,0.771525 -2.682875,2.313252 l -0.5654146,-0.21246 c 0.7649104,-2.165086 1.9706166,-3.247496 3.6189708,-3.247496 0.8120063,0 1.5033625,0.276225 2.0740691,0.829204 0.571236,0.553508 0.856192,1.235604 0.856192,2.048139 0,1.035844 -0.59399,2.047082 -1.7827632,3.036359 l -1.235075,1.0234082 c -0.7887229,0.659342 -1.4427729,1.277144 -1.9595041,1.853407 -0.035983,0.03625 -0.1063625,0.118004 -0.2121959,0.24765 H 9.332911 c 0.5058833,0 0.888736,-0.09975 1.146969,-0.299773 0.223573,-0.177271 0.441854,-0.512498 0.653521,-1.007004 z"
       id="path2394"
       style="stroke-width:0.264583" />
    <path
       fill="#0d0f0f"
       d="m 23.844248,17.591882 c 0,0.71464 -0.259821,1.202267 -0.779727,1.461823 -0.151871,0.07594 -0.628121,0.179388 -1.429808,0.308504 -0.519378,0.08731 -0.779463,0.287338 -0.779463,0.600869 v 1.315773 c 0,0.0553 0.01667,0.222779 0.04868,0.504031 l 0.04895,0.520171 c 0,0.16219 -0.0381,0.427831 -0.114035,0.795867 -0.205581,0.04313 -0.443971,0.09208 -0.71464,0.146843 -0.08678,-0.325437 -0.12991,-0.547422 -0.12991,-0.66675 0,-0.05371 0.01323,-0.135466 0.04048,-0.243681 0.02699,-0.10795 0.04075,-0.189441 0.04075,-0.243946 0,-0.07514 -0.06694,-0.286543 -0.201613,-0.633412 h -0.252147 c -0.03334,0.05424 -0.04419,0.124619 -0.0336,0.210873 0.04339,0.184414 0.05953,0.341048 0.04895,0.471223 -0.184414,0.12991 -0.438414,0.303212 -0.763322,0.519906 -0.07647,-0.0217 -0.102923,-0.03254 -0.08149,-0.03254 v -1.153319 c -0.02143,-0.05371 -0.07541,-0.07541 -0.162454,-0.06509 h -0.194998 l -0.194998,1.52691 c -0.151606,0.01085 -0.335492,0.01085 -0.551921,0 -0.07594,-0.357452 -0.211402,-0.887412 -0.406135,-1.591998 h -0.13044 c -0.119062,0.379148 -0.183885,0.584994 -0.194998,0.617538 0,0.04313 0.01376,0.126735 0.04101,0.251619 0.02672,0.124883 0.04048,0.208227 0.04048,0.251618 0,0.03228 -0.01111,0.113771 -0.03307,0.243682 l -0.04868,0.39026 c -0.02196,0.0209 -0.04842,0.03175 -0.08096,0.03175 -0.324908,0 -0.541867,-0.08123 -0.649552,-0.243152 -0.109008,-0.162719 -0.1524,-0.39026 -0.13044,-0.682625 l 0.13044,-1.948656 c 0,-0.03254 0.01032,-0.07594 0.03201,-0.130175 0.0217,-0.05371 0.03254,-0.09208 0.03254,-0.113242 0,-0.08678 -0.09207,-0.26035 -0.27596,-0.5207 -0.03254,-0.01058 -0.20029,-0.04895 -0.503767,-0.114035 -0.183885,-0.04286 -0.546894,-0.118798 -1.087966,-0.226748 -0.747447,-0.140494 -1.121304,-0.741627 -1.121304,-1.802871 0,-1.581679 0.650081,-2.896923 1.949185,-3.947583 0.05398,0.292629 0.146579,0.682096 0.276489,1.169458 0.09737,0.02223 0.308769,0.07117 0.633413,0.146579 0.06535,0.02143 0.395287,0.140759 0.990864,0.357452 -0.302947,-0.183885 -0.6985,-0.481012 -1.185333,-0.892968 -0.184414,-0.21643 -0.276754,-0.579703 -0.276754,-1.088232 0,-0.119856 0.205846,-0.259821 0.617802,-0.423333 0.368035,-0.151342 0.643996,-0.237067 0.82841,-0.259292 0.584465,-0.07541 1.033992,-0.113771 1.348317,-0.113771 1.353344,0 2.447396,0.346869 3.281098,1.040342 -0.270404,0.314325 -0.736335,0.649023 -1.396735,1.007004 0.25982,0.01085 0.638968,-0.09181 1.137179,-0.309033 0.497946,-0.215635 0.709083,-0.324908 0.633412,-0.324908 0.08652,0 0.260086,0.173566 0.519907,0.519906 0.194468,0.259821 0.351631,0.492919 0.470958,0.6985 0.346604,0.617273 0.579437,1.284023 0.698764,1.998133 0,0.249238 0.0053,0.427831 0.01614,0.535781 z m -6.221942,0.293159 c 0,-0.465932 -0.202935,-0.907257 -0.608806,-1.324505 -0.4064,-0.416983 -0.842698,-0.62521 -1.3081,-0.62521 -0.411427,0 -0.773906,0.174625 -1.088231,0.523346 -0.314061,0.348985 -0.470959,0.736071 -0.470959,1.161521 0,0.370416 0.178594,0.610923 0.536046,0.719402 0.227542,0.06562 0.546629,0.103716 0.958057,0.114829 h 0.893497 c 0.725753,0.0093 1.088496,-0.180446 1.088496,-0.569383 z m 1.770857,2.014008 v -0.502973 c -0.07567,-0.141023 -0.151607,-0.287867 -0.227013,-0.439208 -0.06509,-0.216165 -0.184415,-0.519377 -0.357452,-0.909902 l -0.178858,1.900766 c 0,0.1524 -0.03228,0.227806 -0.09763,0.227806 -0.04313,0 -0.07593,-0.01058 -0.09737,-0.03254 C 18.3589,18.995235 18.321333,18.49676 18.321333,18.64916 v -0.568325 c -0.02196,-0.03334 -0.04895,-0.04974 -0.08149,-0.04974 -0.368036,0.380206 -0.551921,0.991658 -0.551921,1.835679 0,0.465931 0.04313,0.752739 0.129646,0.861748 0.08705,-0.02196 0.183885,-0.06006 0.292894,-0.114036 0.04313,-0.02196 0.167481,-0.03254 0.373327,-0.03254 0.205052,0 0.455083,0.06482 0.746918,0.194469 0.10848,-7.94e-4 0.162455,-0.292364 0.162455,-0.877358 z m 3.671358,-2.263775 c 0,-0.435504 -0.162454,-0.825236 -0.487363,-1.168929 -0.324908,-0.343165 -0.6985,-0.514615 -1.120245,-0.514615 -0.455084,0 -0.880534,0.208227 -1.275557,0.624681 -0.395552,0.416984 -0.593195,0.853017 -0.593195,1.308365 0,0.378883 0.184414,0.56806 0.552449,0.56806 h 1.867694 c 0.704321,-0.01058 1.056217,-0.282575 1.056217,-0.817562 z"
       id="path2396"
       style="stroke-width:0.264583" />
  </g>
</svg>
