<?xml version="1.0" encoding="UTF-8" standalone="no"?>
<svg
   xmlns:dc="http://purl.org/dc/elements/1.1/"
   xmlns:cc="http://creativecommons.org/ns#"
   xmlns:rdf="http://www.w3.org/1999/02/22-rdf-syntax-ns#"
   xmlns:svg="http://www.w3.org/2000/svg"
   xmlns="http://www.w3.org/2000/svg"
   xmlns:sodipodi="http://sodipodi.sourceforge.net/DTD/sodipodi-0.dtd"
   xmlns:inkscape="http://www.inkscape.org/namespaces/inkscape"
   width="101"
   height="101"
   viewBox="0 0 26.722918 26.722918"
   version="1.1"
   id="svg1373"
   inkscape:version="1.0.1 (3bc2e813f5, 2020-09-07)"
   sodipodi:docname="mana_hybrid_wb.svg">
  <defs
     id="defs1367" />
  <sodipodi:namedview
     id="base"
     pagecolor="#ffffff"
     bordercolor="#666666"
     borderopacity="1.0"
     inkscape:pageopacity="0.0"
     inkscape:pageshadow="2"
     inkscape:zoom="1.979899"
     inkscape:cx="117.43847"
     inkscape:cy="151.29002"
     inkscape:document-units="mm"
     inkscape:current-layer="layer1"
     inkscape:document-rotation="0"
     showgrid="false"
     units="px"
     inkscape:window-width="2560"
     inkscape:window-height="1377"
     inkscape:window-x="1912"
     inkscape:window-y="-8"
     inkscape:window-maximized="1" />
  <metadata
     id="metadata1370">
    <rdf:RDF>
      <cc:Work
         rdf:about="">
        <dc:format>image/svg+xml</dc:format>
        <dc:type
           rdf:resource="http://purl.org/dc/dcmitype/StillImage" />
        <dc:title></dc:title>
      </cc:Work>
    </rdf:RDF>
  </metadata>
  <g
     inkscape:label="Layer 1"
     inkscape:groupmode="layer"
     id="layer1">
    <g
       id="g2282"
       style="fill:none;stroke:#000000;stroke-opacity:1"
       transform="matrix(0.26458333,0,0,0.26458333,222.38229,-27.649223)">
      <path
         fill="#bab1ab"
         d="m -754.651,119.637 c 9.052,9.051 14.651,21.551 14.651,35.36 0,27.616 -22.386,50.003 -50.001,50.003 -13.806,0 -26.305,-5.596 -35.354,-14.646"
         id="path2278"
         style="fill:none;stroke:#000000;stroke-opacity:1" />
      <path
         fill="#f8f6d8"
         d="m -754.651,119.638 c -9.048,-9.043 -21.546,-14.637 -35.35,-14.637 -27.613,0 -49.999,22.384 -49.999,49.997 0,13.807 5.597,26.309 14.646,35.356 z"
         id="path2280"
         style="fill:none;stroke:#000000;stroke-opacity:1" />
    </g>
    <path
       fill="#0d0f0f"
       d="m 23.844248,17.591881 c 0,0.71464 -0.259821,1.202267 -0.779727,1.461823 -0.151871,0.07594 -0.628121,0.179388 -1.429808,0.308504 -0.519378,0.08731 -0.779463,0.287338 -0.779463,0.600869 v 1.315773 c 0,0.0553 0.01667,0.222779 0.04895,0.504031 l 0.04895,0.520171 c 0,0.16219 -0.0381,0.427831 -0.114036,0.795867 -0.205581,0.04313 -0.44397,0.09208 -0.714639,0.146843 -0.08678,-0.325437 -0.129911,-0.547422 -0.129911,-0.66675 0,-0.05371 0.01323,-0.135466 0.04048,-0.243681 0.02699,-0.107685 0.04075,-0.189441 0.04075,-0.243946 0,-0.07514 -0.06694,-0.286543 -0.201613,-0.633412 h -0.252148 c -0.03334,0.05424 -0.04419,0.124883 -0.0336,0.210873 0.04339,0.184414 0.05953,0.341048 0.04921,0.471223 -0.184415,0.12991 -0.438415,0.303212 -0.763323,0.519906 -0.07647,-0.0217 -0.102923,-0.03254 -0.08149,-0.03254 v -1.153319 c -0.02143,-0.05371 -0.07541,-0.07541 -0.162454,-0.06509 h -0.194998 l -0.194998,1.52691 c -0.151606,0.01085 -0.335492,0.01085 -0.551921,0 -0.07594,-0.357452 -0.211402,-0.887412 -0.406135,-1.591998 h -0.13044 c -0.119062,0.379148 -0.183885,0.584994 -0.194998,0.617538 0,0.04313 0.01376,0.126735 0.04101,0.251619 0.02699,0.124883 0.04048,0.208227 0.04048,0.251618 0,0.03228 -0.01111,0.113771 -0.03307,0.243682 l -0.04868,0.39026 c -0.02196,0.0209 -0.04842,0.03175 -0.08096,0.03175 -0.324908,0 -0.541866,-0.08123 -0.649552,-0.243152 -0.109008,-0.162719 -0.1524,-0.39026 -0.130439,-0.682625 l 0.130439,-1.948656 c 0,-0.03254 0.01032,-0.07594 0.03201,-0.130175 0.0217,-0.05371 0.03254,-0.09208 0.03254,-0.113242 0,-0.08678 -0.09207,-0.26035 -0.27596,-0.5207 -0.03254,-0.01058 -0.20029,-0.04895 -0.503767,-0.114035 -0.183885,-0.04286 -0.546629,-0.118798 -1.087966,-0.226748 -0.747448,-0.140494 -1.121304,-0.741627 -1.121304,-1.802871 0,-1.581679 0.650081,-2.896923 1.949185,-3.947583 0.05398,0.292629 0.146579,0.682096 0.27649,1.169458 0.09737,0.02223 0.308768,0.07117 0.633412,0.146579 0.06535,0.02143 0.395288,0.140759 0.990865,0.357452 -0.302948,-0.183885 -0.6985,-0.481012 -1.185334,-0.892968 -0.184414,-0.21643 -0.276754,-0.579438 -0.276754,-1.088232 0,-0.119591 0.205846,-0.259821 0.617802,-0.423333 0.368036,-0.151342 0.643996,-0.237067 0.828411,-0.259027 0.584464,-0.07567 1.033991,-0.114036 1.348316,-0.114036 1.353344,0 2.447396,0.346869 3.281098,1.040342 -0.270404,0.314325 -0.736335,0.649023 -1.396735,1.007004 0.259821,0.01085 0.638969,-0.09181 1.137179,-0.309033 0.497946,-0.215635 0.709083,-0.324908 0.633412,-0.324908 0.08652,0 0.260086,0.173566 0.519907,0.519906 0.194204,0.259821 0.351631,0.492919 0.470958,0.6985 0.346604,0.617273 0.579438,1.284023 0.698765,1.998133 0,0.249238 0.0053,0.427831 0.01614,0.535781 z m -6.221942,0.293159 c 0,-0.465932 -0.202935,-0.907257 -0.608806,-1.324505 -0.4064,-0.416983 -0.842962,-0.62521 -1.3081,-0.62521 -0.411427,0 -0.773906,0.174625 -1.088231,0.523346 -0.314061,0.348985 -0.470959,0.736071 -0.470959,1.161521 0,0.370416 0.178594,0.610923 0.536046,0.719402 0.227542,0.06562 0.546629,0.103716 0.958057,0.114829 h 0.893497 c 0.725753,0.0093 1.088496,-0.180446 1.088496,-0.569383 z m 1.770857,2.014008 V 19.396075 C 19.317493,19.255052 19.241556,19.108208 19.16615,18.956867 19.10106,18.740702 18.981735,18.43749 18.808698,18.046965 l -0.178858,1.900766 c 0,0.1524 -0.03228,0.227806 -0.09763,0.227806 -0.04313,0 -0.07593,-0.01058 -0.09737,-0.03254 -0.07594,-1.147763 -0.113507,-1.646238 -0.113507,-1.493838 v -0.568325 c -0.02196,-0.03334 -0.04895,-0.04974 -0.08149,-0.04974 -0.368036,0.380206 -0.551921,0.991658 -0.551921,1.835679 0,0.465931 0.04313,0.752739 0.129646,0.861748 0.08705,-0.0217 0.183885,-0.0598 0.292629,-0.114036 0.04313,-0.02196 0.167481,-0.03254 0.373327,-0.03254 0.205052,0 0.455083,0.06482 0.746919,0.194469 0.108744,-7.94e-4 0.162719,-0.292364 0.162719,-0.877358 z m 3.671358,-2.263775 c 0,-0.435504 -0.162454,-0.825236 -0.487363,-1.168929 -0.324908,-0.343165 -0.6985,-0.514615 -1.120245,-0.514615 -0.455084,0 -0.880534,0.208227 -1.275557,0.624681 -0.395552,0.416984 -0.593195,0.853017 -0.593195,1.308365 0,0.378883 0.184414,0.56806 0.552449,0.56806 h 1.867694 c 0.704321,-0.01058 1.056217,-0.282575 1.056217,-0.817562 z"
       id="path2284"
       style="stroke-width:0.264583" />
    <path
       fill="#0d0f0f"
       d="m 14.596267,10.256044 c -0.644525,-0.5990166 -1.072621,-0.9239246 -1.2827,-0.9741956 -0.152665,-0.03678 -0.300302,0.05212 -0.442384,0.265906 -0.142081,0.213784 -0.341841,0.289719 -0.600075,0.227013 -0.105039,-0.02487 -0.310885,-0.1143 -0.617272,-0.268817 -0.24818,0.234156 -0.381265,0.389202 -0.399786,0.465138 -0.02514,0.1050386 0.02355,0.2481786 0.145521,0.4294176 0.121708,0.180711 0.236537,0.283104 0.344223,0.309034 0.068,0.01667 0.164571,0.02434 0.288396,0.02381 0.123825,0 0.205581,0.004 0.245004,0.01349 0.117475,0.02778 0.124089,0.25691 0.0209,0.687123 -0.0979,0.410633 -0.344488,1.019439 -0.739246,1.823508 -0.01535,-1.033992 -0.161131,-1.584325 -0.437885,-1.650471 -0.03837,-0.0093 -0.12409,7.94e-4 -0.257175,0.02937 -0.133615,0.02805 -0.2286,0.03651 -0.28575,0.02275 -0.277284,-0.06615 -0.465138,-0.379412 -0.563827,-0.938477 -0.455613,-0.03836 -0.7294568,0.133879 -0.8210026,0.515673 -0.045773,0.191823 0.00635,0.365919 0.1558396,0.522552 0.149225,0.157163 0.2180166,0.259556 0.2071687,0.306917 C 9.4948354,12.324556 9.0214958,12.63015 8.139375,12.984956 7.6692104,13.17625 7.3437729,13.310129 7.1635917,13.388181 7.3379521,13.248217 7.5258062,13.055335 7.7260958,12.810067 7.9541667,12.531196 8.0891042,12.306035 8.1303792,12.133262 8.1531333,12.038806 8.0753458,11.87794 7.8967521,11.653573 7.7178937,11.428412 7.6517479,11.221244 7.6975208,11.030744 7.73615,10.86776 7.8411896,10.681229 8.0131687,10.469033 7.9232104,10.29626 7.7925062,10.18884 7.6205271,10.148094 7.2384687,10.056019 7.0175417,10.1346 6.9580104,10.383573 c 0.041275,-0.171715 0.010319,-0.04286 -0.09234,0.38735 -0.066146,0.316971 -0.3429,0.417512 -0.8302625,0.30136 -0.3727979,-0.0889 -0.9779,-0.324908 -1.8161,-0.706966 1.0535709,-0.01085 1.6189854,-0.178594 1.6965084,-0.5037666 -0.00873,0.03863 -7.938e-4,-0.08123 0.0254,-0.357981 0.032544,-0.304536 0.306917,-0.522817 0.8223254,-0.651933 0.019315,-0.459317 -0.156898,-0.734219 -0.5299605,-0.823119 -0.05715,-0.01455 -0.1867958,0.06059 -0.3870854,0.224896 C 5.6454125,8.4177194 5.4779312,8.4838654 5.3443167,8.4518504 5.1149229,8.3970814 4.8781208,8.0777294 4.634175,7.4937944 4.5214625,7.2038114 4.3465729,6.7733334 4.1097708,6.2013044 c 0.1923521,0.166952 0.3844396,0.334963 0.5770563,0.50165 0.2547937,0.202671 0.4683125,0.324115 0.6400271,0.365654 0.1338791,0.03175 0.2931583,-0.05345 0.4783666,-0.257439 0.1846792,-0.202936 0.3825875,-0.2794 0.5926667,-0.229129 0.029369,0.0066 0.206375,0.109537 0.5323417,0.309298 0.2479145,-0.233363 0.3878791,-0.417248 0.4201583,-0.551392 0.026987,-0.1143 -0.010583,-0.262202 -0.1140354,-0.443971 -0.1029229,-0.181239 -0.2121959,-0.285221 -0.3267604,-0.313531 -0.04789,-0.01138 -0.1248834,-0.01508 -0.2320396,-0.0098 -0.1074209,0.0048 -0.1849438,0.0016 -0.2325688,-0.01032 -0.1719791,-0.04101 -0.2066396,-0.27649 -0.1037166,-0.706438 0.026987,-0.115358 0.293952,-0.743215 0.7995708,-1.885156 -0.043921,0.140494 -0.045773,0.423598 -0.00556,0.847989 0.04789,0.516732 0.1817688,0.8001 0.4016375,0.853546 0.0381,0.009 0.1214438,-0.0013 0.2500313,-0.03148 0.1283229,-0.02963 0.2256896,-0.03704 0.2923646,-0.02064 0.2196041,0.05292 0.371475,0.220398 0.4556125,0.502973 l 0.1225021,0.43815 c 0.2002932,0.04815 0.3849724,0.01667 0.5527182,-0.09446 0.168275,-0.11139 0.2767542,-0.267758 0.3246438,-0.468313 0.050006,-0.209814 0,-0.391318 -0.1502833,-0.543983 -0.1508125,-0.152122 -0.2193396,-0.256897 -0.2050521,-0.314312 0.04789,-0.200554 0.4445,-0.464079 1.1893019,-0.79031 0.597959,-0.261144 0.98134,-0.407194 1.150673,-0.437357 -0.543454,0.456407 -0.846402,0.812271 -0.907785,1.070769 -0.03201,0.133879 0.01455,0.297127 0.140494,0.48895 0.157427,0.229394 0.2413,0.386027 0.251354,0.468577 0.04286,0.243417 -0.03863,0.542132 -0.244475,0.896673 0.214577,0.243417 0.388673,0.380736 0.523081,0.413279 0.276225,0.06615 0.449527,-0.04419 0.518054,-0.330729 0.0071,-0.02858 0.01667,-0.122237 0.02963,-0.280458 0.01217,-0.159279 0.02593,-0.246856 0.03995,-0.264054 0.07064,-0.124619 0.34925,-0.128059 0.836612,-0.01191 0.305858,0.07329 0.920485,0.31115 1.844675,0.71411 -0.223837,0.0069 -0.559858,0.0172 -1.007798,0.03175 -0.409839,0.02302 -0.631825,0.106627 -0.666485,0.250031 -0.01561,0.06668 -0.01958,0.187061 -0.01058,0.360892 0.009,0.173567 0.0042,0.299244 -0.01402,0.375179 -0.03175,0.134144 -0.147637,0.237067 -0.346868,0.31115 l -0.570442,0.227277 c 0.06509,0.237861 0.111125,0.380471 0.140494,0.427302 0.06853,0.137848 0.183356,0.226219 0.34581,0.265113 0.114829,0.02752 0.243946,-0.04789 0.387615,-0.225954 0.143404,-0.1778 0.320675,-0.241036 0.530754,-0.191294 0.257969,0.06165 0.49239,0.370152 0.703262,0.926042 0.116682,0.31115 0.301361,0.784489 0.553509,1.4208116 z M 11.61309,8.6632524 c 0.14605,-0.611452 0.04842,-1.196181 -0.293159,-1.7526 -0.341841,-0.556683 -0.818621,-0.908314 -1.4298081,-1.053835 -0.6215062,-0.149225 -1.2099396,-0.0553 -1.7650354,0.282046 -0.5550958,0.336285 -0.9122833,0.814387 -1.0702396,1.433248 -0.1561042,0.609335 -0.055563,1.191947 0.3018896,1.747308 0.3571875,0.554567 0.841375,0.9059326 1.4533562,1.0522476 0.6495521,0.155045 1.2430123,0.07223 1.7793233,-0.248444 0.535781,-0.3214686 0.877094,-0.8085666 1.023673,-1.4599706 z m -0.215371,-0.05159 C 11.258283,9.1945364 10.947133,9.6308334 10.46374,9.9184364 9.9806104,10.20736 9.4469458,10.281708 8.8645979,10.142273 8.3007708,10.007335 7.8652666,9.6956564 7.5575562,9.2080294 7.2498458,8.7204024 7.1635916,8.1952044 7.2985291,7.6305834 c 0.1330855,-0.554302 0.4492625,-0.981075 0.9503834,-1.280847 0.50165,-0.298715 1.0289646,-0.381794 1.5830021,-0.249503 0.5540374,0.132292 0.9863664,0.44794 1.2961934,0.946415 0.309827,0.499004 0.40005,1.019704 0.269611,1.56501 z"
       id="path2286"
       style="stroke-width:0.264583" />
  </g>
</svg>
