<?xml version="1.0" encoding="UTF-8" standalone="no"?>
<svg
   xmlns:dc="http://purl.org/dc/elements/1.1/"
   xmlns:cc="http://creativecommons.org/ns#"
   xmlns:rdf="http://www.w3.org/1999/02/22-rdf-syntax-ns#"
   xmlns:svg="http://www.w3.org/2000/svg"
   xmlns="http://www.w3.org/2000/svg"
   xmlns:sodipodi="http://sodipodi.sourceforge.net/DTD/sodipodi-0.dtd"
   xmlns:inkscape="http://www.inkscape.org/namespaces/inkscape"
   width="101"
   height="101"
   viewBox="0 0 26.722918 26.722918"
   version="1.1"
   id="svg1373"
   inkscape:version="1.0.1 (3bc2e813f5, 2020-09-07)"
   sodipodi:docname="mana_hybrid_rg.svg">
  <defs
     id="defs1367" />
  <sodipodi:namedview
     id="base"
     pagecolor="#ffffff"
     bordercolor="#666666"
     borderopacity="1.0"
     inkscape:pageopacity="0.0"
     inkscape:pageshadow="2"
     inkscape:zoom="1.979899"
     inkscape:cx="117.43847"
     inkscape:cy="151.29002"
     inkscape:document-units="mm"
     inkscape:current-layer="layer1"
     inkscape:document-rotation="0"
     showgrid="false"
     units="px"
     inkscape:window-width="2560"
     inkscape:window-height="1377"
     inkscape:window-x="1912"
     inkscape:window-y="-8"
     inkscape:window-maximized="1" />
  <metadata
     id="metadata1370">
    <rdf:RDF>
      <cc:Work
         rdf:about="">
        <dc:format>image/svg+xml</dc:format>
        <dc:type
           rdf:resource="http://purl.org/dc/dcmitype/StillImage" />
        <dc:title></dc:title>
      </cc:Work>
    </rdf:RDF>
  </metadata>
  <g
     inkscape:label="Layer 1"
     inkscape:groupmode="layer"
     id="layer1">
    <g
       id="g2342"
       style="fill:none;stroke:#000000;stroke-opacity:1"
       transform="matrix(0.26458333,0,0,0.26458333,55.694791,-27.649223)">
      <path
         fill="#a3c095"
         d="m -124.651,119.637 c 9.053,9.051 14.651,21.551 14.651,35.36 0,27.616 -22.387,50.003 -50,50.003 -13.807,0 -26.305,-5.596 -35.354,-14.646"
         id="path2338"
         style="fill:none;stroke:#000000;stroke-opacity:1" />
      <path
         fill="#e49977"
         d="m -124.651,119.638 c -9.048,-9.043 -21.547,-14.637 -35.349,-14.637 -27.613,0 -50,22.384 -50,49.997 0,13.807 5.596,26.309 14.646,35.356 z"
         id="path2340"
         style="fill:none;stroke:#000000;stroke-opacity:1" />
    </g>
    <path
       fill="#0d0f0f"
       d="m 13.873955,10.206567 c -0.454554,1.084527 -1.357312,1.626129 -2.709333,1.626129 -0.247915,0 -0.516467,0.03043 -0.805392,0.0926 -0.433652,0.0934 -0.650081,0.222515 -0.650081,0.387615 0,0.05159 0.03598,0.110595 0.108215,0.178329 0.07197,0.06694 0.134408,0.100541 0.186002,0.100541 -0.258498,0 -0.08281,0.0079 0.525727,0.02276 0.609071,0.01587 0.991129,0.02355 1.146175,0.02355 -0.898261,0.525992 -2.399771,0.76888 -4.50559,0.727605 -0.691621,-0.0098 -1.285081,-0.314325 -1.780381,-0.913077 -0.485246,-0.567796 -0.727604,-1.202532 -0.727604,-1.903942 0,-0.7434788 0.250031,-1.3755688 0.751152,-1.8973268 0.500062,-0.520435 1.122362,-0.781315 1.865577,-0.781315 0.164835,0 0.384439,0.03625 0.657754,0.10795 0.273579,0.07223 0.456935,0.10848 0.54954,0.10848 0.382058,0 0.85672,-0.157957 1.424516,-0.472282 0.567796,-0.314858 0.836348,-0.472285 0.805392,-0.472285 -0.103452,1.083733 -0.464608,1.811867 -1.083998,2.183077 -0.444235,0.258763 -0.665692,0.51144 -0.665692,0.7582958 0,0.155046 0.09234,0.279135 0.278342,0.372004 0.144463,0.0717 0.304535,0.10795 0.480219,0.10795 0.268287,0 0.531283,-0.164835 0.789516,-0.495035 0.257705,-0.3301998 0.371211,-0.6297088 0.340255,-0.8985248 -0.03043,-0.309827 -0.0098,-0.681567 0.06218,-1.114425 0.02037,-0.124619 0.09551,-0.27649 0.224366,-0.456936 0.129117,-0.180975 0.245534,-0.2921 0.348457,-0.333639 0,0.0934 -0.03387,0.248179 -0.100807,0.464343 -0.0672,0.216694 -0.100541,0.377825 -0.100541,0.479955 0,0.227277 0.06165,0.402695 0.185737,0.52652 0.185738,-0.0717 0.350573,-0.30427 0.4953,-0.696912 0.123825,-0.299244 0.195792,-0.588433 0.216959,-0.866775 -0.433917,-0.01984 -0.849578,-0.216429 -1.246717,-0.588698 -0.397404,-0.371475 -0.595842,-0.774171 -0.595842,-1.207294 0,-0.07197 0.0098,-0.144727 0.03096,-0.216693 0.06138,0.0934 0.154253,0.23786 0.278871,0.433916 0.17489,0.25744 0.309563,0.386556 0.402432,0.386556 0.123825,0 0.185472,-0.129116 0.185472,-0.386556 0,-0.3302 -0.08758,-0.629444 -0.262995,-0.89826 -0.196321,-0.320411 -0.449263,-0.479954 -0.758561,-0.479954 -0.144991,0 -0.361421,0.07752 -0.650346,0.232568 -0.289189,0.154517 -0.55245,0.23204 -0.788987,0.23204 -0.0725,0 -0.392642,-0.09366 -0.960438,-0.279135 1.000919,-0.1651 1.501775,-0.31459 1.501775,-0.448998 0,-0.350838 -0.686329,-0.588434 -2.059252,-0.71173 -0.134143,-0.01005 -0.381529,-0.03069 -0.74295,-0.06218 0.04101,-0.05107 0.335492,-0.10795 0.88265,-0.170391 0.464344,-0.0508 0.789252,-0.07779 0.97499,-0.07779 2.456656,0 4.015052,1.192741 4.675981,3.577431 0.114036,-0.09446 0.170921,-0.25109 0.170921,-0.470694 0,-0.282839 -0.08282,-0.638704 -0.247915,-1.067594 -0.06218,-0.167481 -0.160602,-0.4191 -0.294481,-0.753533 0.845873,1.078177 1.27,2.100263 1.27,3.064933 0,0.508 -0.119327,0.969963 -0.356658,1.383771 -0.154252,0.280723 -0.443971,0.638175 -0.866775,1.073944 -0.423069,0.4355048 -0.711994,0.7725838 -0.86704,1.0112378 0.567796,-0.155046 0.9398,-0.274108 1.115219,-0.356658 0.391583,-0.175419 0.747977,-0.4389448 1.067858,-0.7895168 -2.64e-4,0.135202 -0.05715,0.33602 -0.170127,0.6040438 z M 7.123111,4.1219442 c 0,0.185737 -0.103452,0.304271 -0.309562,0.356658 l -0.402431,0.06165 c -0.144992,0.0717 -0.356394,0.356129 -0.634471,0.851429 -0.03122,-0.154516 -0.07752,-0.371475 -0.1397,-0.650346 -0.09287,0.01032 -0.24765,0.0934 -0.464344,0.247915 -0.09287,0.07197 -0.242623,0.180975 -0.449262,0.325173 0.06218,-0.371475 0.269081,-0.747713 0.619654,-1.130035 0.371475,-0.423069 0.73316,-0.633942 1.083733,-0.633942 0.464344,-7.94e-4 0.696383,0.190235 0.696383,0.5715 z m 2.693988,1.424781 c 0,0.17489 -0.09525,0.323056 -0.286544,0.441325 -0.191029,0.118533 -0.379412,0.178329 -0.564885,0.178329 -0.248179,0 -0.470165,-0.138906 -0.665956,-0.418571 -0.237596,-0.339989 -0.479955,-0.562239 -0.727869,-0.665691 0.05107,-0.05159 0.113506,-0.07752 0.186266,-0.07752 0.0926,0 0.249767,0.0717 0.471753,0.216429 0.221456,0.145256 0.363537,0.216958 0.425714,0.216958 0.05159,0 0.13679,-0.0717 0.255323,-0.216958 0.118533,-0.144727 0.250031,-0.216429 0.395023,-0.216429 0.341048,0 0.511175,0.180975 0.511175,0.542131 z"
       id="path2344"
       style="stroke-width:0.264583" />
    <path
       fill="#0d0f0f"
       d="m 23.817526,18.022623 c 0,0.200554 -0.07752,0.380206 -0.232569,0.540544 -0.155046,0.159808 -0.332846,0.239448 -0.5334,0.239448 -0.319352,0 -0.555096,-0.149755 -0.704585,-0.450057 l -0.705644,-0.02963 c -0.150019,0 -0.445558,0.06509 -0.885031,0.194998 -0.470165,0.129646 -0.740304,0.23495 -0.810419,0.31459 -0.109537,0.12012 -0.19976,0.400579 -0.270139,0.840845 -0.06033,0.359834 -0.08969,0.625211 -0.08969,0.795338 0,0.269875 0.04233,0.467783 0.127,0.592667 0.08493,0.125147 0.26035,0.229922 0.524933,0.314589 0.264583,0.08414 0.427567,0.132821 0.487892,0.142611 0.03995,0 0.104775,-0.0048 0.194998,-0.01508 h 0.180181 c 0.12991,0 0.264848,0.02011 0.405342,0.06006 0.19976,0.06006 0.284956,0.139435 0.255323,0.239977 -0.140494,-0.01958 -0.385234,0.01005 -0.735013,0.08996 l 0.419629,0.210344 c 0,0.120121 -0.170127,0.179652 -0.510116,0.179652 -0.09049,0 -0.213255,-0.01905 -0.367771,-0.05953 -0.155575,-0.04075 -0.258234,-0.06059 -0.307711,-0.06059 h -0.194998 c -0.01005,0.100277 -0.03969,0.249502 -0.08996,0.450056 -0.170921,-0.0098 -0.370152,-0.110066 -0.600604,-0.299773 -0.230188,-0.1905 -0.375179,-0.285485 -0.434711,-0.285485 -0.06032,0 -0.145785,0.09499 -0.255322,0.285485 -0.110332,0.189707 -0.1651,0.319353 -0.1651,0.390261 -0.129911,-0.07091 -0.239713,-0.200554 -0.330465,-0.390261 -0.03995,-0.130704 -0.08493,-0.260879 -0.134673,-0.391318 -0.100277,0.01032 -0.284956,0.221191 -0.55536,0.631031 h -0.07514 c -0.02037,-0.0299 -0.09525,-0.239713 -0.225425,-0.631031 -0.310092,-0.09922 -0.600075,-0.148961 -0.86995,-0.148961 -0.12991,0 -0.330465,0.02963 -0.600604,0.09022 l -0.419894,-0.0299 c 0.0598,-0.06032 0.23495,-0.175154 0.524933,-0.345281 0.339725,-0.200554 0.60034,-0.300831 0.780257,-0.300831 0.02963,0 0.06985,0.0056 0.12012,0.01561 0.04974,0.01032 0.09022,0.01535 0.120121,0.01535 0.06932,0 0.182298,-0.03757 0.337344,-0.112977 0.155046,-0.07488 0.245269,-0.14261 0.26961,-0.202671 0.02593,-0.06059 0.03836,-0.215106 0.03836,-0.465402 0,-0.569648 -0.150283,-0.995627 -0.450585,-1.275027 -0.260086,-0.250031 -0.690034,-0.429948 -1.290373,-0.540544 -0.159809,0.569913 -0.610394,0.855663 -1.350169,0.855663 -0.240506,0 -0.480483,-0.145257 -0.72046,-0.435505 -0.239978,-0.290247 -0.360098,-0.55536 -0.360098,-0.795602 0,-0.370152 0.155045,-0.674952 0.465137,-0.915193 -0.249767,-0.259557 -0.375179,-0.524669 -0.375179,-0.795338 0,-0.249767 0.07726,-0.4699 0.232569,-0.6604 0.155046,-0.189442 0.357981,-0.299773 0.607748,-0.3302 -0.01958,-0.319617 0.08493,-0.540279 0.314854,-0.660135 -0.109802,-0.109538 -0.164571,-0.304271 -0.164571,-0.584994 0,-0.329671 0.109537,-0.605102 0.329935,-0.825235 0.219605,-0.219605 0.495036,-0.3302 0.824707,-0.3302 0.360627,0 0.655902,0.125677 0.885825,0.375179 0.290512,-0.990071 0.915193,-1.485107 1.875631,-1.485107 0.499798,0 0.940329,0.200025 1.320271,0.600605 0.140229,0.149489 0.209814,0.229658 0.209814,0.239448 -0.119591,0 -0.05953,-0.02276 0.180182,-0.06721 0.240506,-0.04524 0.414866,-0.068 0.525462,-0.068 0.389996,0 0.735013,0.145521 1.035844,0.435505 0.259821,0.26035 0.440002,0.589756 0.540279,0.99007 0.06959,0.01032 0.179652,0.03995 0.329406,0.09022 0.220134,0.110332 0.330465,0.300302 0.330465,0.570177 0,0.04974 -0.04022,0.145257 -0.120121,0.285486 0.640027,0.360098 0.960437,0.86016 0.960437,1.500187 0,0.180182 -0.07038,0.430477 -0.209814,0.750359 0.260879,0.150548 0.391054,0.370681 0.391054,0.660929 z m -6.182783,0.660135 v -0.194733 c 0,-0.229923 -0.112184,-0.440267 -0.337344,-0.630238 -0.22516,-0.1905 -0.452438,-0.284956 -0.682625,-0.284956 -0.280458,0 -0.540279,0.06509 -0.780256,0.194204 0.530225,-0.0291 1.130035,0.275432 1.800225,0.915723 z m -0.269875,-1.860021 c -0.149754,-0.17092 -0.279929,-0.345545 -0.389996,-0.525197 -0.420423,0.109537 -0.630502,0.235214 -0.630502,0.37465 0.119856,-0.0098 0.295275,0.01243 0.524933,0.06773 0.230188,0.0553 0.395817,0.08281 0.495565,0.08281 z m 0.915987,-0.465931 v -0.660135 c -0.240506,-0.03942 -0.386027,-0.0598 -0.435504,-0.0598 v 0.22516 z m 1.950509,-0.419629 c -0.120121,-0.05001 -0.345282,-0.150283 -0.675746,-0.300302 v 1.290373 c 0.470429,-0.270404 0.695325,-0.600075 0.675746,-0.990071 z m 0.824441,1.770592 -0.329671,-0.404548 c -0.19976,0.139964 -0.402431,0.282046 -0.608012,0.427302 -0.205052,0.144727 -0.382323,0.307446 -0.532077,0.487892 0.449527,-0.241036 0.940329,-0.410369 1.46976,-0.510646 z"
       id="path2346"
       style="stroke-width:0.264583" />
  </g>
</svg>
