<?xml version="1.0" encoding="UTF-8" standalone="no"?>
<svg
   xmlns:dc="http://purl.org/dc/elements/1.1/"
   xmlns:cc="http://creativecommons.org/ns#"
   xmlns:rdf="http://www.w3.org/1999/02/22-rdf-syntax-ns#"
   xmlns:svg="http://www.w3.org/2000/svg"
   xmlns="http://www.w3.org/2000/svg"
   xmlns:sodipodi="http://sodipodi.sourceforge.net/DTD/sodipodi-0.dtd"
   xmlns:inkscape="http://www.inkscape.org/namespaces/inkscape"
   width="101"
   height="101"
   viewBox="0 0 26.722918 26.722918"
   version="1.1"
   id="svg1373"
   inkscape:version="1.0.1 (3bc2e813f5, 2020-09-07)"
   sodipodi:docname="mana_red.svg">
  <defs
     id="defs1367" />
  <sodipodi:namedview
     id="base"
     pagecolor="#ffffff"
     bordercolor="#666666"
     borderopacity="1.0"
     inkscape:pageopacity="0.0"
     inkscape:pageshadow="2"
     inkscape:zoom="1.979899"
     inkscape:cx="117.43847"
     inkscape:cy="151.29002"
     inkscape:document-units="mm"
     inkscape:current-layer="layer1"
     inkscape:document-rotation="0"
     showgrid="false"
     units="px"
     inkscape:window-width="2560"
     inkscape:window-height="1377"
     inkscape:window-x="1912"
     inkscape:window-y="-8"
     inkscape:window-maximized="1" />
  <metadata
     id="metadata1370">
    <rdf:RDF>
      <cc:Work
         rdf:about="">
        <dc:format>image/svg+xml</dc:format>
        <dc:type
           rdf:resource="http://purl.org/dc/dcmitype/StillImage" />
        <dc:title></dc:title>
      </cc:Work>
    </rdf:RDF>
  </metadata>
  <g
     inkscape:label="Layer 1"
     inkscape:groupmode="layer"
     id="layer1">
    <g
       id="g2238"
       style="fill:none;stroke:#000000;stroke-opacity:1"
       transform="matrix(0.26458333,0,0,0.26458333,55.694791,0.13229167)">
      <circle
         fill="#e49977"
         cx="-160"
         cy="50"
         r="50"
         id="circle2236"
         style="fill:none;stroke:#000000;stroke-opacity:1" />
    </g>
    <path
       fill="#0d0f0f"
       d="m 24.464697,17.758039 c -0.988483,2.357967 -2.95275,3.536686 -5.893594,3.536686 -0.538956,0 -1.123421,0.0672 -1.751806,0.201612 -0.942975,0.202142 -1.414463,0.483659 -1.414463,0.842963 0,0.112183 0.07805,0.240771 0.235744,0.387085 0.156633,0.146315 0.2921,0.218546 0.404019,0.218546 -0.561711,0 -0.179917,0.01693 1.144587,0.05053 1.325034,0.0336 2.155825,0.05054 2.492905,0.05054 -1.953419,1.144587 -5.220759,1.671902 -9.800961,1.582473 -1.50495,-0.02223 -2.795588,-0.684742 -3.873236,-1.987021 -1.056216,-1.23534 -1.583266,-2.6162 -1.583266,-4.142846 0,-1.616075 0.544248,-2.991908 1.634066,-4.126177 1.088232,-1.132946 2.44184,-1.700477 4.05818,-1.700477 0.359039,0 0.836083,0.07858 1.431396,0.235744 0.594783,0.157162 0.993775,0.235743 1.195387,0.235743 0.830527,0 1.86399,-0.342106 3.099065,-1.027377 1.234546,-0.684741 1.81901,-1.027377 1.751806,-1.027377 -0.224896,2.357967 -1.010708,3.941234 -2.358496,4.748742 -0.9652,0.56171 -1.448064,1.111514 -1.448064,1.649942 0,0.336814 0.202141,0.606689 0.60616,0.808831 0.314325,0.157427 0.661988,0.236008 1.043781,0.236008 0.583936,0 1.156494,-0.358775 1.718204,-1.077119 0.560653,-0.719137 0.808303,-1.369748 0.741098,-1.954212 -0.0672,-0.673365 -0.02223,-1.482461 0.134938,-2.424642 0.04445,-0.269875 0.207169,-0.600604 0.487892,-0.993246 0.280722,-0.39317 0.5334,-0.63447 0.758031,-0.724429 0,0.201613 -0.07276,0.538956 -0.219075,1.010179 -0.146315,0.471223 -0.218546,0.820209 -0.218546,1.044311 0,0.493977 0.134408,0.875506 0.404019,1.144587 0.403489,-0.156633 0.762793,-0.661987 1.077912,-1.515798 0.268817,-0.65061 0.425715,-1.279525 0.471223,-1.885685 -0.943504,-0.04498 -1.847321,-0.471223 -2.71145,-1.2800543 -0.864658,-0.808831 -1.296458,-1.684073 -1.296458,-2.626783 0,-0.157163 0.0217,-0.314325 0.06773,-0.471752 0.134408,0.202141 0.336286,0.516731 0.605631,0.942975 0.381794,0.561181 0.673894,0.841904 0.876565,0.841904 0.268817,0 0.40349,-0.280723 0.40349,-0.841904 0,-0.718344 -0.191294,-1.369484 -0.572559,-1.953419 -0.426773,-0.696119 -0.977106,-1.044311 -1.650471,-1.044311 -0.314589,0 -0.786077,0.16854 -1.413933,0.505355 -0.629444,0.336285 -1.202002,0.505354 -1.717675,0.505354 -0.157692,0 -0.854339,-0.202671 -2.088885,-0.60669 2.177521,-0.35851 3.267075,-0.684212 3.267075,-0.976577 0,-0.763323 -1.493573,-1.280054 -4.479396,-1.549135 -0.292362,-0.02222 -0.831054,-0.0672 -1.616866,-0.134937 0.08943,-0.112183 0.72972,-0.235744 1.920346,-0.370417 1.010179,-0.111654 1.717675,-0.168539 2.121429,-0.168539 5.34379,0 8.734425,2.594239 10.171377,7.780867 0.247121,-0.204523 0.370946,-0.54663 0.370946,-1.024203 0,-0.614891 -0.179917,-1.389062 -0.538956,-2.322247 -0.135467,-0.363803 -0.348721,-0.910432 -0.640292,-1.638565 1.840706,2.34606 2.761985,4.569354 2.761985,6.6672353 0,1.105429 -0.259027,2.109523 -0.775229,3.011223 -0.336021,0.609336 -0.965729,1.387475 -1.885685,2.335213 -0.92075,0.947208 -1.549665,1.680633 -1.886744,2.199481 1.235075,-0.336286 2.043906,-0.594783 2.4257,-0.7747 0.852752,-0.381 1.627188,-0.954088 2.323836,-1.717675 0,0.292629 -0.123561,0.730779 -0.370417,1.314185 z M 9.779792,4.5222577 c 0,0.40349 -0.224896,0.661988 -0.673364,0.774171 l -0.876036,0.134938 c -0.314589,0.157162 -0.7747,0.7747 -1.38086,1.852083 -0.06773,-0.336286 -0.16854,-0.807773 -0.303213,-1.414463 -0.202141,0.02276 -0.538427,0.202142 -1.010179,0.538957 -0.202141,0.157162 -0.528108,0.392641 -0.977106,0.706966 0.135467,-0.808302 0.583935,-1.626658 1.347787,-2.458773 0.808303,-0.919956 1.594115,-1.380331 2.357438,-1.380331 1.010179,0 1.515533,0.415925 1.515533,1.246452 z m 5.860522,3.098006 c 0,0.381794 -0.207698,0.702205 -0.623094,0.960173 -0.415396,0.258498 -0.825236,0.387615 -1.229254,0.387615 -0.538957,0 -1.022086,-0.303213 -1.448065,-0.909638 -0.51726,-0.741097 -1.04431,-1.223697 -1.583267,-1.449122 0.112184,-0.111655 0.247121,-0.168011 0.404548,-0.168011 0.202142,0 0.543719,0.157163 1.026848,0.471223 0.4826,0.31459 0.791104,0.471752 0.926571,0.471752 0.112183,0 0.297127,-0.157162 0.555625,-0.471752 0.257969,-0.314325 0.544248,-0.471223 0.858838,-0.471223 0.740833,2.65e-4 1.11125,0.393436 1.11125,1.178983 z"
       id="path2240"
       style="stroke-width:0.264583" />
  </g>
</svg>
