<?xml version="1.0" encoding="UTF-8" standalone="no"?>
<svg
   xmlns:dc="http://purl.org/dc/elements/1.1/"
   xmlns:cc="http://creativecommons.org/ns#"
   xmlns:rdf="http://www.w3.org/1999/02/22-rdf-syntax-ns#"
   xmlns:svg="http://www.w3.org/2000/svg"
   xmlns="http://www.w3.org/2000/svg"
   xmlns:sodipodi="http://sodipodi.sourceforge.net/DTD/sodipodi-0.dtd"
   xmlns:inkscape="http://www.inkscape.org/namespaces/inkscape"
   width="101"
   height="101"
   viewBox="0 0 26.722918 26.722918"
   version="1.1"
   id="svg1373"
   inkscape:version="1.0.1 (3bc2e813f5, 2020-09-07)"
   sodipodi:docname="tap.svg">
  <defs
     id="defs1367" />
  <sodipodi:namedview
     id="base"
     pagecolor="#ffffff"
     bordercolor="#666666"
     borderopacity="1.0"
     inkscape:pageopacity="0.0"
     inkscape:pageshadow="2"
     inkscape:zoom="1.979899"
     inkscape:cx="117.43847"
     inkscape:cy="151.29002"
     inkscape:document-units="mm"
     inkscape:current-layer="layer1"
     inkscape:document-rotation="0"
     showgrid="false"
     units="px"
     inkscape:window-width="2560"
     inkscape:window-height="1377"
     inkscape:window-x="1912"
     inkscape:window-y="-8"
     inkscape:window-maximized="1" />
  <metadata
     id="metadata1370">
    <rdf:RDF>
      <cc:Work
         rdf:about="">
        <dc:format>image/svg+xml</dc:format>
        <dc:type
           rdf:resource="http://purl.org/dc/dcmitype/StillImage" />
        <dc:title></dc:title>
      </cc:Work>
    </rdf:RDF>
  </metadata>
  <g
     inkscape:label="Layer 1"
     inkscape:groupmode="layer"
     id="layer1">
    <g
       id="g2440"
       style="fill:none;stroke:#000000;stroke-opacity:1;stroke-width:4"
       transform="matrix(0.26458333,0,0,0.26458333,250.16354,-83.210924)">
      <circle
         
         cx="-895"
         cy="364.99799"
         r="50"
         id="circle2438"
         style="fill:none;stroke:#000000;stroke-opacity:1;stroke-width:4" />
    </g>
    <path
       fill="#0d0f0f"
       d="m 22.709712,15.721548 h -9.526059 l 3.488532,-2.482585 c -1.29593,-1.028435 -2.795588,-1.541992 -4.493684,-1.541992 -0.849577,0 -1.432454,0.16219 -1.743604,0.485775 -0.313267,0.324644 -0.4701645,0.91149 -0.4701645,1.760538 0,2.347648 1.2072935,4.852458 3.6224105,7.513108 l -2.749285,2.783681 C 7.639045,20.349375 6.0412263,16.873015 6.0412263,13.80914 c 0,-1.833033 0.5519208,-3.293269 1.6589375,-4.3775324 1.1059583,-1.084262 2.5786292,-1.626658 4.4100752,-1.626658 2.236523,0 4.6736,0.850635 7.313348,2.5492614 l 2.0447,-3.4877384 z"
       id="path2442"
       style="stroke-width:0.264583" />
  </g>
</svg>
