<?xml version="1.0" encoding="UTF-8" standalone="no"?>
<svg
   xmlns:dc="http://purl.org/dc/elements/1.1/"
   xmlns:cc="http://creativecommons.org/ns#"
   xmlns:rdf="http://www.w3.org/1999/02/22-rdf-syntax-ns#"
   xmlns:svg="http://www.w3.org/2000/svg"
   xmlns="http://www.w3.org/2000/svg"
   xmlns:sodipodi="http://sodipodi.sourceforge.net/DTD/sodipodi-0.dtd"
   xmlns:inkscape="http://www.inkscape.org/namespaces/inkscape"
   width="101"
   height="101"
   viewBox="0 0 26.722918 26.722918"
   version="1.1"
   id="svg1373"
   inkscape:version="1.0.1 (3bc2e813f5, 2020-09-07)"
   sodipodi:docname="untap.svg">
  <defs
     id="defs1367" />
  <sodipodi:namedview
     id="base"
     pagecolor="#ffffff"
     bordercolor="#666666"
     borderopacity="1.0"
     inkscape:pageopacity="0.0"
     inkscape:pageshadow="2"
     inkscape:zoom="1.979899"
     inkscape:cx="117.43847"
     inkscape:cy="151.29002"
     inkscape:document-units="mm"
     inkscape:current-layer="layer1"
     inkscape:document-rotation="0"
     showgrid="false"
     units="px"
     inkscape:window-width="2560"
     inkscape:window-height="1377"
     inkscape:window-x="1912"
     inkscape:window-y="-8"
     inkscape:window-maximized="1" />
  <metadata
     id="metadata1370">
    <rdf:RDF>
      <cc:Work
         rdf:about="">
        <dc:format>image/svg+xml</dc:format>
        <dc:type
           rdf:resource="http://purl.org/dc/dcmitype/StillImage" />
        <dc:title></dc:title>
      </cc:Work>
    </rdf:RDF>
  </metadata>
  <g
     inkscape:label="Layer 1"
     inkscape:groupmode="layer"
     id="layer1">
    <g
       id="g2446"
       transform="matrix(0.26458333,0,0,0.26458333,222.25,-83.343216)">
      <circle
         fill="#0d0f0f"
         cx="-790"
         cy="364.99799"
         r="50"
         id="circle2444" />
    </g>
    <path
       fill="#ffffff"
       d="m 20.887532,6.4238249 -3.34645,1.9626791 c 1.629834,2.531004 2.444221,4.86992 2.444221,7.014633 0,1.75895 -0.520965,3.168915 -1.559719,4.230158 -1.041929,1.063096 -2.439193,1.593586 -4.199202,1.593586 -2.940314,0 -6.2756514,-1.53379 -10.0075994,-4.601369 l 2.6707042,-2.639748 c 2.5548167,2.31775 4.9556452,3.475302 7.2088372,3.475302 0.814387,0 1.377685,-0.149225 1.687777,-0.449527 0.312208,-0.300831 0.467254,-0.858308 0.467254,-1.672696 0,-1.630362 -0.493977,-3.068108 -1.480079,-4.311385 l -2.380192,3.345127 V 5.2342582 Z"
       id="path2448"
       style="stroke-width:0.264583" />
  </g>
</svg>
